<?xml version="1.0" encoding="UTF-8" standalone="no"?><svg xmlns="http://www.w3.org/2000/svg" xmlns:xlink="http://www.w3.org/1999/xlink" contentStyleType="text/css" height="1268px" preserveAspectRatio="none" style="width:719px;height:1268px;background:#FFFFFF;" version="1.1" viewBox="0 0 719 1268" width="719.2px" zoomAndPan="magnify"><defs/><g><!--cluster Class Diagram--><g id="cluster_Class Diagram"><path d="M6.8,4.8 L96.4,4.8 A3,3 0 0 1 98.4,6.8 L104,23.9 L711.6,23.9 A2,2 0 0 1 713.6,25.9 L713.6,1260.4 A2,2 0 0 1 711.6,1262.4 L6.8,1262.4 A2,2 0 0 1 4.8,1260.4 L4.8,6.8 A2,2 0 0 1 6.8,4.8 " fill="none" style="stroke:#000000;stroke-width:1.2000000000000002;"/><line style="stroke:#000000;stroke-width:1.2000000000000002;" x1="4.8" x2="104" y1="23.9" y2="23.9"/><text fill="#000000" font-family="Sarabun" font-size="12.8" font-weight="bold" lengthAdjust="spacing" textLength="88.8" x="8" y="17.9875">Class Diagram</text></g><!--class UserAccount--><g id="elem_UserAccount"><rect codeLine="19" fill="#F1F1F1" height="295.8" id="UserAccount" rx="2" ry="2" style="stroke:#181818;stroke-width:0.4000000000000001;" width="136" x="376.8" y="33.6"/><ellipse cx="406.44" cy="46.4" fill="#ADD1B2" rx="8.8" ry="8.8" style="stroke:#181818;stroke-width:0.8000000000000002;"/><path d="M408.24,44 Q408.8025,43.6 408.79,43.4 Q408.7775,43.2 408.99,43.2 Q409.365,43.2 409.6025,43.375 Q409.84,43.5375 409.84,43.925 L409.84,44.8625 Q409.84,45.2625 409.7275,45.4375 Q409.615,45.6 409.44,45.6 Q409.2775,45.6 409.19,45.4625 Q409.09,45.325 409.04,44.9625 Q408.99,44.7125 408.84,44.575 Q408.5275,44.3125 407.99,44.1625 Q407.4525,44 406.915,44 Q406.24,44 405.615,44.2625 Q405.0025,44.525 404.615,45.1125 Q404.24,45.6875 404.24,46.4875 L404.24,47.35 Q404.24,48.3125 404.915,48.9625 Q405.59,49.6 406.79,49.6 Q407.5025,49.6 408.0025,49.275 Q408.29,49.0875 408.615,48.5375 Q408.8275,48.2 408.94,48.1 Q409.0525,48 409.19,48 Q409.4525,48 409.64,48.2125 Q409.84,48.4125 409.84,48.7 Q409.84,48.975 409.165,49.3 Q409.165,49.775 408.5275,50.0375 Q407.69,50.4 406.665,50.4 Q405.465,50.4 404.5025,49.975 Q403.7275,49.6375 403.1775,48.9125 Q402.64,48.175 402.64,47.3 L402.64,46.525 Q402.64,45.6125 403.115,44.8375 Q403.6025,44.05 404.44,43.625 Q405.29,43.2 406.24,43.2 Q406.815,43.2 407.365,43.35 Q407.915,43.5 408.24,44 Z " fill="#000000"/><text fill="#000000" font-family="Sarabun" font-size="12.8" lengthAdjust="spacing" textLength="71.2" x="421.56" y="50.8375">UserAccount</text><line style="stroke:#181818;stroke-width:0.4000000000000001;" x1="377.6" x2="512" y1="59.2" y2="59.2"/><text fill="#000000" font-family="Sarabun" font-size="12.8" lengthAdjust="spacing" textLength="47.2" x="381.6" y="73.9875">-id : uuid</text><text fill="#000000" font-family="Sarabun" font-size="12.8" lengthAdjust="spacing" textLength="99.2" x="381.6" y="88.2875">-username : string</text><text fill="#000000" font-family="Sarabun" font-size="12.8" lengthAdjust="spacing" textLength="126.4" x="381.6" y="102.5875">-hashPassword : string</text><text fill="#000000" font-family="Sarabun" font-size="12.8" lengthAdjust="spacing" textLength="108.8" x="381.6" y="116.8875">-activated : boolean</text><text fill="#000000" font-family="Sarabun" font-size="12.8" lengthAdjust="spacing" textLength="85.6" x="381.6" y="131.1875">-role : RoleEum</text><text fill="#000000" font-family="Sarabun" font-size="12.8" lengthAdjust="spacing" textLength="75.2" x="381.6" y="145.4875">-name : string</text><text fill="#000000" font-family="Sarabun" font-size="12.8" lengthAdjust="spacing" textLength="92" x="381.6" y="159.7875">-surname : string</text><text fill="#000000" font-family="Sarabun" font-size="12.8" lengthAdjust="spacing" textLength="78.4" x="381.6" y="174.0875">-phone : string</text><text fill="#000000" font-family="Sarabun" font-size="12.8" lengthAdjust="spacing" textLength="74.4" x="381.6" y="188.3875">-email : string</text><text fill="#000000" font-family="Sarabun" font-size="12.8" lengthAdjust="spacing" textLength="107.2" x="381.6" y="202.6875">-removed : boolean</text><text fill="#000000" font-family="Sarabun" font-size="12.8" lengthAdjust="spacing" textLength="102.4" x="381.6" y="216.9875">-groupDataId: uuid</text><text fill="#000000" font-family="Sarabun" font-size="12.8" lengthAdjust="spacing" textLength="92.8" x="381.6" y="231.2875">-createdAt : date</text><text fill="#000000" font-family="Sarabun" font-size="12.8" lengthAdjust="spacing" textLength="96" x="381.6" y="245.5875">-updatedAt : date</text><line style="stroke:#181818;stroke-width:0.4000000000000001;" x1="377.6" x2="512" y1="251.5" y2="251.5"/><text fill="#000000" font-family="Sarabun" font-size="12.8" lengthAdjust="spacing" textLength="99.2" x="381.6" y="266.2875">+getOne() : object</text><text fill="#000000" font-family="Sarabun" font-size="12.8" lengthAdjust="spacing" textLength="84" x="381.6" y="280.5875">+getAll() : array</text><text fill="#000000" font-family="Sarabun" font-size="12.8" lengthAdjust="spacing" textLength="93.6" x="381.6" y="294.8875">+create() : object</text><text fill="#000000" font-family="Sarabun" font-size="12.8" lengthAdjust="spacing" textLength="86.4" x="381.6" y="309.1875">+update() : void</text><text fill="#000000" font-family="Sarabun" font-size="12.8" lengthAdjust="spacing" textLength="82.4" x="381.6" y="323.4875">+delete() : void</text></g><!--class GroupData--><g id="elem_GroupData"><rect codeLine="42" fill="#F1F1F1" height="410.2" id="GroupData" rx="2" ry="2" style="stroke:#181818;stroke-width:0.4000000000000001;" width="176" x="356.8" y="623.2"/><ellipse cx="410.6" cy="636" fill="#ADD1B2" rx="8.8" ry="8.8" style="stroke:#181818;stroke-width:0.8000000000000002;"/><path d="M412.4,633.6 Q412.9625,633.2 412.95,633 Q412.9375,632.8 413.15,632.8 Q413.525,632.8 413.7625,632.975 Q414,633.1375 414,633.525 L414,634.4625 Q414,634.8625 413.8875,635.0375 Q413.775,635.2 413.6,635.2 Q413.4375,635.2 413.35,635.0625 Q413.25,634.925 413.2,634.5625 Q413.15,634.3125 413,634.175 Q412.6875,633.9125 412.15,633.7625 Q411.6125,633.6 411.075,633.6 Q410.4,633.6 409.775,633.8625 Q409.1625,634.125 408.775,634.7125 Q408.4,635.2875 408.4,636.0875 L408.4,636.95 Q408.4,637.9125 409.075,638.5625 Q409.75,639.2 410.95,639.2 Q411.6625,639.2 412.1625,638.875 Q412.45,638.6875 412.775,638.1375 Q412.9875,637.8 413.1,637.7 Q413.2125,637.6 413.35,637.6 Q413.6125,637.6 413.8,637.8125 Q414,638.0125 414,638.3 Q414,638.575 413.325,638.9 Q413.325,639.375 412.6875,639.6375 Q411.85,640 410.825,640 Q409.625,640 408.6625,639.575 Q407.8875,639.2375 407.3375,638.5125 Q406.8,637.775 406.8,636.9 L406.8,636.125 Q406.8,635.2125 407.275,634.4375 Q407.7625,633.65 408.6,633.225 Q409.45,632.8 410.4,632.8 Q410.975,632.8 411.525,632.95 Q412.075,633.1 412.4,633.6 Z " fill="#000000"/><text fill="#000000" font-family="Sarabun" font-size="12.8" lengthAdjust="spacing" textLength="61.6" x="427" y="640.4375">GroupData</text><line style="stroke:#181818;stroke-width:0.4000000000000001;" x1="357.6" x2="532" y1="648.8" y2="648.8"/><text fill="#000000" font-family="Sarabun" font-size="12.8" lengthAdjust="spacing" textLength="47.2" x="361.6" y="663.5875">-id : uuid</text><text fill="#000000" font-family="Sarabun" font-size="12.8" lengthAdjust="spacing" textLength="109.6" x="361.6" y="677.8875">-groupName : string</text><text fill="#000000" font-family="Sarabun" font-size="12.8" lengthAdjust="spacing" textLength="166.4" x="361.6" y="692.1875">-groupType : GroupTypeEnum</text><text fill="#000000" font-family="Sarabun" font-size="12.8" lengthAdjust="spacing" textLength="84" x="361.6" y="706.4875">-agency : string</text><text fill="#000000" font-family="Sarabun" font-size="12.8" lengthAdjust="spacing" textLength="78.4" x="361.6" y="720.7875">-phone : string</text><text fill="#000000" font-family="Sarabun" font-size="12.8" lengthAdjust="spacing" textLength="74.4" x="361.6" y="735.0875">-email : string</text><text fill="#000000" font-family="Sarabun" font-size="12.8" lengthAdjust="spacing" textLength="68" x="361.6" y="749.3875">-logo : string</text><text fill="#000000" font-family="Sarabun" font-size="12.8" lengthAdjust="spacing" textLength="82.4" x="361.6" y="763.6875">-banner : string</text><text fill="#000000" font-family="Sarabun" font-size="12.8" lengthAdjust="spacing" textLength="99.2" x="361.6" y="777.9875">-verified : boolean</text><text fill="#000000" font-family="Sarabun" font-size="12.8" lengthAdjust="spacing" textLength="60.8" x="361.6" y="792.2875">-hno: string</text><text fill="#000000" font-family="Sarabun" font-size="12.8" lengthAdjust="spacing" textLength="76" x="361.6" y="806.5875">-village: string</text><text fill="#000000" font-family="Sarabun" font-size="12.8" lengthAdjust="spacing" textLength="64" x="361.6" y="820.8875">-lane: string</text><text fill="#000000" font-family="Sarabun" font-size="12.8" lengthAdjust="spacing" textLength="69.6" x="361.6" y="835.1875">-road : string</text><text fill="#000000" font-family="Sarabun" font-size="12.8" lengthAdjust="spacing" textLength="100" x="361.6" y="849.4875">-subDistrict: string</text><text fill="#000000" font-family="Sarabun" font-size="12.8" lengthAdjust="spacing" textLength="77.6" x="361.6" y="863.7875">-district: string</text><text fill="#000000" font-family="Sarabun" font-size="12.8" lengthAdjust="spacing" textLength="91.2" x="361.6" y="878.0875">-province : string</text><text fill="#000000" font-family="Sarabun" font-size="12.8" lengthAdjust="spacing" textLength="88" x="361.6" y="892.3875">-zipCode: string</text><text fill="#000000" font-family="Sarabun" font-size="12.8" lengthAdjust="spacing" textLength="56.8" x="361.6" y="906.6875">-lat : string</text><text fill="#000000" font-family="Sarabun" font-size="12.8" lengthAdjust="spacing" textLength="60" x="361.6" y="920.9875">-lng : string</text><text fill="#000000" font-family="Sarabun" font-size="12.8" lengthAdjust="spacing" textLength="92.8" x="361.6" y="935.2875">-createdAt : date</text><text fill="#000000" font-family="Sarabun" font-size="12.8" lengthAdjust="spacing" textLength="96" x="361.6" y="949.5875">-updatedAt : date</text><line style="stroke:#181818;stroke-width:0.4000000000000001;" x1="357.6" x2="532" y1="955.5" y2="955.5"/><text fill="#000000" font-family="Sarabun" font-size="12.8" lengthAdjust="spacing" textLength="99.2" x="361.6" y="970.2875">+getOne() : object</text><text fill="#000000" font-family="Sarabun" font-size="12.8" lengthAdjust="spacing" textLength="84" x="361.6" y="984.5875">+getAll() : array</text><text fill="#000000" font-family="Sarabun" font-size="12.8" lengthAdjust="spacing" textLength="93.6" x="361.6" y="998.8875">+create() : object</text><text fill="#000000" font-family="Sarabun" font-size="12.8" lengthAdjust="spacing" textLength="86.4" x="361.6" y="1013.1875">+update() : void</text><text fill="#000000" font-family="Sarabun" font-size="12.8" lengthAdjust="spacing" textLength="82.4" x="361.6" y="1027.4875">+delete() : void</text></g><!--class RoleEum--><g id="elem_RoleEum"><rect codeLine="73" fill="#F1F1F1" height="67" id="RoleEum" rx="2" ry="2" style="stroke:#181818;stroke-width:0.4000000000000001;" width="76.8" x="250.4" y="148"/><ellipse cx="262.4" cy="160.8" fill="#EB937F" rx="8.8" ry="8.8" style="stroke:#181818;stroke-width:0.8000000000000002;"/><path d="M261.6,161.2 L261.6,163.6 L264.8,163.6 L264.8,162.8 L264.8,162.4 L264.9125,162 L265.2,162 L265.4875,162 L265.6,162.4 L265.6,162.8 L265.6,164.4 L260,164.4 L259.6,164.4 L259.2,164.2875 L259.2,164 L259.2,163.7125 L259.6,163.6 L260,163.6 L260,163.6 L260,158 L260,158 L259.6,158 L259.2,157.8875 L259.2,157.6 L259.2,157.3125 L259.6,157.2 L260,157.2 L265.6,157.2 L265.6,158.8 L265.6,159.2 L265.4875,159.6 L265.2,159.6 L264.9125,159.6 L264.8,159.2 L264.8,158.8 L264.8,158 L261.6,158 L261.6,160.4 L263.2,160.4 L263.2,160 L263.2,160 L263.3125,159.6 L263.6,159.6 L263.8875,159.6 L264,160 L264,160.4 L264,161.2 L264,161.6 L263.8875,162 L263.8875,162 L263.6,162 L263.3125,162 L263.2,161.6 L263.2,161.6 L263.2,161.2 L261.6,161.2 Z " fill="#000000"/><text fill="#000000" font-family="Sarabun" font-size="12.8" lengthAdjust="spacing" textLength="51.2" x="273.6" y="165.2375">RoleEum</text><line style="stroke:#181818;stroke-width:0.4000000000000001;" x1="251.2" x2="326.4" y1="173.6" y2="173.6"/><text fill="#000000" font-family="Sarabun" font-size="12.8" lengthAdjust="spacing" textLength="60" x="255.2" y="188.3875">-MEMBER</text><text fill="#000000" font-family="Sarabun" font-size="12.8" lengthAdjust="spacing" textLength="44" x="255.2" y="202.6875">-ADMIN</text><line style="stroke:#181818;stroke-width:0.4000000000000001;" x1="251.2" x2="326.4" y1="208.6" y2="208.6"/></g><!--class GroupTypeEnum--><g id="elem_GroupTypeEnum"><rect codeLine="78" fill="#F1F1F1" height="67" id="GroupTypeEnum" rx="2" ry="2" style="stroke:#181818;stroke-width:0.4000000000000001;" width="119.2" x="370.8" y="1139.6"/><ellipse cx="382.8" cy="1152.4" fill="#EB937F" rx="8.8" ry="8.8" style="stroke:#181818;stroke-width:0.8000000000000002;"/><path d="M382,1152.8 L382,1155.2 L385.2,1155.2 L385.2,1154.4 L385.2,1154 L385.3125,1153.6 L385.6,1153.6 L385.8875,1153.6 L386,1154 L386,1154.4 L386,1156 L380.4,1156 L380,1156 L379.6,1155.8875 L379.6,1155.6 L379.6,1155.3125 L380,1155.2 L380.4,1155.2 L380.4,1155.2 L380.4,1149.6 L380.4,1149.6 L380,1149.6 L379.6,1149.4875 L379.6,1149.2 L379.6,1148.9125 L380,1148.8 L380.4,1148.8 L386,1148.8 L386,1150.4 L386,1150.8 L385.8875,1151.2 L385.6,1151.2 L385.3125,1151.2 L385.2,1150.8 L385.2,1150.4 L385.2,1149.6 L382,1149.6 L382,1152 L383.6,1152 L383.6,1151.6 L383.6,1151.6 L383.7125,1151.2 L384,1151.2 L384.2875,1151.2 L384.4,1151.6 L384.4,1152 L384.4,1152.8 L384.4,1153.2 L384.2875,1153.6 L384.2875,1153.6 L384,1153.6 L383.7125,1153.6 L383.6,1153.2 L383.6,1153.2 L383.6,1152.8 L382,1152.8 Z " fill="#000000"/><text fill="#000000" font-family="Sarabun" font-size="12.8" lengthAdjust="spacing" textLength="93.6" x="394" y="1156.8375">GroupTypeEnum</text><line style="stroke:#181818;stroke-width:0.4000000000000001;" x1="371.6" x2="489.2" y1="1165.2" y2="1165.2"/><text fill="#000000" font-family="Sarabun" font-size="12.8" lengthAdjust="spacing" textLength="109.6" x="375.6" y="1179.9875">-MANUFACTURER</text><text fill="#000000" font-family="Sarabun" font-size="12.8" lengthAdjust="spacing" textLength="40" x="375.6" y="1194.2875">-SHOP</text><line style="stroke:#181818;stroke-width:0.4000000000000001;" x1="371.6" x2="489.2" y1="1200.2" y2="1200.2"/></g><!--class Product--><g id="elem_Product"><rect codeLine="85" fill="#F1F1F1" height="224.3" id="Product" rx="2" ry="2" style="stroke:#181818;stroke-width:0.4000000000000001;" width="119.2" x="182" y="716.4"/><ellipse cx="216.68" cy="729.2" fill="#ADD1B2" rx="8.8" ry="8.8" style="stroke:#181818;stroke-width:0.8000000000000002;"/><path d="M218.48,726.8 Q219.0425,726.4 219.03,726.2 Q219.0175,726 219.23,726 Q219.605,726 219.8425,726.175 Q220.08,726.3375 220.08,726.725 L220.08,727.6625 Q220.08,728.0625 219.9675,728.2375 Q219.855,728.4 219.68,728.4 Q219.5175,728.4 219.43,728.2625 Q219.33,728.125 219.28,727.7625 Q219.23,727.5125 219.08,727.375 Q218.7675,727.1125 218.23,726.9625 Q217.6925,726.8 217.155,726.8 Q216.48,726.8 215.855,727.0625 Q215.2425,727.325 214.855,727.9125 Q214.48,728.4875 214.48,729.2875 L214.48,730.15 Q214.48,731.1125 215.155,731.7625 Q215.83,732.4 217.03,732.4 Q217.7425,732.4 218.2425,732.075 Q218.53,731.8875 218.855,731.3375 Q219.0675,731 219.18,730.9 Q219.2925,730.8 219.43,730.8 Q219.6925,730.8 219.88,731.0125 Q220.08,731.2125 220.08,731.5 Q220.08,731.775 219.405,732.1 Q219.405,732.575 218.7675,732.8375 Q217.93,733.2 216.905,733.2 Q215.705,733.2 214.7425,732.775 Q213.9675,732.4375 213.4175,731.7125 Q212.88,730.975 212.88,730.1 L212.88,729.325 Q212.88,728.4125 213.355,727.6375 Q213.8425,726.85 214.68,726.425 Q215.53,726 216.48,726 Q217.055,726 217.605,726.15 Q218.155,726.3 218.48,726.8 Z " fill="#000000"/><text fill="#000000" font-family="Sarabun" font-size="12.8" lengthAdjust="spacing" textLength="43.2" x="232.92" y="733.6375">Product</text><line style="stroke:#181818;stroke-width:0.4000000000000001;" x1="182.8" x2="300.4" y1="742" y2="742"/><text fill="#000000" font-family="Sarabun" font-size="12.8" lengthAdjust="spacing" textLength="47.2" x="186.8" y="756.7875">-id : uuid</text><text fill="#000000" font-family="Sarabun" font-size="12.8" lengthAdjust="spacing" textLength="75.2" x="186.8" y="771.0875">-name : string</text><text fill="#000000" font-family="Sarabun" font-size="12.8" lengthAdjust="spacing" textLength="85.6" x="186.8" y="785.3875">-price : decimal</text><text fill="#000000" font-family="Sarabun" font-size="12.8" lengthAdjust="spacing" textLength="71.2" x="186.8" y="799.6875">-desc : string</text><text fill="#000000" font-family="Sarabun" font-size="12.8" lengthAdjust="spacing" textLength="109.6" x="186.8" y="813.9875">-categoryId: number</text><text fill="#000000" font-family="Sarabun" font-size="12.8" lengthAdjust="spacing" textLength="102.4" x="186.8" y="828.2875">-groupDataId: uuid</text><text fill="#000000" font-family="Sarabun" font-size="12.8" lengthAdjust="spacing" textLength="92.8" x="186.8" y="842.5875">-createdAt : date</text><text fill="#000000" font-family="Sarabun" font-size="12.8" lengthAdjust="spacing" textLength="96" x="186.8" y="856.8875">-updatedAt : date</text><line style="stroke:#181818;stroke-width:0.4000000000000001;" x1="182.8" x2="300.4" y1="862.8" y2="862.8"/><text fill="#000000" font-family="Sarabun" font-size="12.8" lengthAdjust="spacing" textLength="99.2" x="186.8" y="877.5875">+getOne() : object</text><text fill="#000000" font-family="Sarabun" font-size="12.8" lengthAdjust="spacing" textLength="84" x="186.8" y="891.8875">+getAll() : array</text><text fill="#000000" font-family="Sarabun" font-size="12.8" lengthAdjust="spacing" textLength="93.6" x="186.8" y="906.1875">+create() : object</text><text fill="#000000" font-family="Sarabun" font-size="12.8" lengthAdjust="spacing" textLength="86.4" x="186.8" y="920.4875">+update() : void</text><text fill="#000000" font-family="Sarabun" font-size="12.8" lengthAdjust="spacing" textLength="82.4" x="186.8" y="934.7875">+delete() : void</text></g><!--class ProductImage--><g id="elem_ProductImage"><rect codeLine="103" fill="#F1F1F1" height="181.4" id="ProductImage" rx="2" ry="2" style="stroke:#181818;stroke-width:0.4000000000000001;" width="108.8" x="187.2" y="378.4"/><ellipse cx="201.72" cy="391.2" fill="#ADD1B2" rx="8.8" ry="8.8" style="stroke:#181818;stroke-width:0.8000000000000002;"/><path d="M203.52,388.8 Q204.0825,388.4 204.07,388.2 Q204.0575,388 204.27,388 Q204.645,388 204.8825,388.175 Q205.12,388.3375 205.12,388.725 L205.12,389.6625 Q205.12,390.0625 205.0075,390.2375 Q204.895,390.4 204.72,390.4 Q204.5575,390.4 204.47,390.2625 Q204.37,390.125 204.32,389.7625 Q204.27,389.5125 204.12,389.375 Q203.8075,389.1125 203.27,388.9625 Q202.7325,388.8 202.195,388.8 Q201.52,388.8 200.895,389.0625 Q200.2825,389.325 199.895,389.9125 Q199.52,390.4875 199.52,391.2875 L199.52,392.15 Q199.52,393.1125 200.195,393.7625 Q200.87,394.4 202.07,394.4 Q202.7825,394.4 203.2825,394.075 Q203.57,393.8875 203.895,393.3375 Q204.1075,393 204.22,392.9 Q204.3325,392.8 204.47,392.8 Q204.7325,392.8 204.92,393.0125 Q205.12,393.2125 205.12,393.5 Q205.12,393.775 204.445,394.1 Q204.445,394.575 203.8075,394.8375 Q202.97,395.2 201.945,395.2 Q200.745,395.2 199.7825,394.775 Q199.0075,394.4375 198.4575,393.7125 Q197.92,392.975 197.92,392.1 L197.92,391.325 Q197.92,390.4125 198.395,389.6375 Q198.8825,388.85 199.72,388.425 Q200.57,388 201.52,388 Q202.095,388 202.645,388.15 Q203.195,388.3 203.52,388.8 Z " fill="#000000"/><text fill="#000000" font-family="Sarabun" font-size="12.8" lengthAdjust="spacing" textLength="77.6" x="213.48" y="395.6375">ProductImage</text><line style="stroke:#181818;stroke-width:0.4000000000000001;" x1="188" x2="295.2" y1="404" y2="404"/><text fill="#000000" font-family="Sarabun" font-size="12.8" lengthAdjust="spacing" textLength="47.2" x="192" y="418.7875">-id : uuid</text><text fill="#000000" font-family="Sarabun" font-size="12.8" lengthAdjust="spacing" textLength="79.2" x="192" y="433.0875">-image : string</text><text fill="#000000" font-family="Sarabun" font-size="12.8" lengthAdjust="spacing" textLength="88" x="192" y="447.3875">-productId : uuid</text><text fill="#000000" font-family="Sarabun" font-size="12.8" lengthAdjust="spacing" textLength="92.8" x="192" y="461.6875">-createdAt : date</text><text fill="#000000" font-family="Sarabun" font-size="12.8" lengthAdjust="spacing" textLength="96" x="192" y="475.9875">-updatedAt : date</text><line style="stroke:#181818;stroke-width:0.4000000000000001;" x1="188" x2="295.2" y1="481.9" y2="481.9"/><text fill="#000000" font-family="Sarabun" font-size="12.8" lengthAdjust="spacing" textLength="99.2" x="192" y="496.6875">+getOne() : object</text><text fill="#000000" font-family="Sarabun" font-size="12.8" lengthAdjust="spacing" textLength="84" x="192" y="510.9875">+getAll() : array</text><text fill="#000000" font-family="Sarabun" font-size="12.8" lengthAdjust="spacing" textLength="93.6" x="192" y="525.2875">+create() : object</text><text fill="#000000" font-family="Sarabun" font-size="12.8" lengthAdjust="spacing" textLength="86.4" x="192" y="539.5875">+update() : void</text><text fill="#000000" font-family="Sarabun" font-size="12.8" lengthAdjust="spacing" textLength="82.4" x="192" y="553.8875">+delete() : void</text></g><!--class Category--><g id="elem_Category"><rect codeLine="118" fill="#F1F1F1" height="195.7" id="Category" rx="2" ry="2" style="stroke:#181818;stroke-width:0.4000000000000001;" width="108.8" x="17.6" y="730.4"/><ellipse cx="44" cy="743.2" fill="#ADD1B2" rx="8.8" ry="8.8" style="stroke:#181818;stroke-width:0.8000000000000002;"/><path d="M45.8,740.8 Q46.3625,740.4 46.35,740.2 Q46.3375,740 46.55,740 Q46.925,740 47.1625,740.175 Q47.4,740.3375 47.4,740.725 L47.4,741.6625 Q47.4,742.0625 47.2875,742.2375 Q47.175,742.4 47,742.4 Q46.8375,742.4 46.75,742.2625 Q46.65,742.125 46.6,741.7625 Q46.55,741.5125 46.4,741.375 Q46.0875,741.1125 45.55,740.9625 Q45.0125,740.8 44.475,740.8 Q43.8,740.8 43.175,741.0625 Q42.5625,741.325 42.175,741.9125 Q41.8,742.4875 41.8,743.2875 L41.8,744.15 Q41.8,745.1125 42.475,745.7625 Q43.15,746.4 44.35,746.4 Q45.0625,746.4 45.5625,746.075 Q45.85,745.8875 46.175,745.3375 Q46.3875,745 46.5,744.9 Q46.6125,744.8 46.75,744.8 Q47.0125,744.8 47.2,745.0125 Q47.4,745.2125 47.4,745.5 Q47.4,745.775 46.725,746.1 Q46.725,746.575 46.0875,746.8375 Q45.25,747.2 44.225,747.2 Q43.025,747.2 42.0625,746.775 Q41.2875,746.4375 40.7375,745.7125 Q40.2,744.975 40.2,744.1 L40.2,743.325 Q40.2,742.4125 40.675,741.6375 Q41.1625,740.85 42,740.425 Q42.85,740 43.8,740 Q44.375,740 44.925,740.15 Q45.475,740.3 45.8,740.8 Z " fill="#000000"/><text fill="#000000" font-family="Sarabun" font-size="12.8" lengthAdjust="spacing" textLength="51.2" x="58.4" y="747.6375">Category</text><line style="stroke:#181818;stroke-width:0.4000000000000001;" x1="18.4" x2="125.6" y1="756" y2="756"/><text fill="#000000" font-family="Sarabun" font-size="12.8" lengthAdjust="spacing" textLength="65.6" x="22.4" y="770.7875">-id : number</text><text fill="#000000" font-family="Sarabun" font-size="12.8" lengthAdjust="spacing" textLength="75.2" x="22.4" y="785.0875">-name : string</text><text fill="#000000" font-family="Sarabun" font-size="12.8" lengthAdjust="spacing" textLength="71.2" x="22.4" y="799.3875">-desc : string</text><text fill="#000000" font-family="Sarabun" font-size="12.8" lengthAdjust="spacing" textLength="76" x="22.4" y="813.6875">-image: string</text><text fill="#000000" font-family="Sarabun" font-size="12.8" lengthAdjust="spacing" textLength="92.8" x="22.4" y="827.9875">-createdAt : date</text><text fill="#000000" font-family="Sarabun" font-size="12.8" lengthAdjust="spacing" textLength="96" x="22.4" y="842.2875">-updatedAt : date</text><line style="stroke:#181818;stroke-width:0.4000000000000001;" x1="18.4" x2="125.6" y1="848.2" y2="848.2"/><text fill="#000000" font-family="Sarabun" font-size="12.8" lengthAdjust="spacing" textLength="99.2" x="22.4" y="862.9875">+getOne() : object</text><text fill="#000000" font-family="Sarabun" font-size="12.8" lengthAdjust="spacing" textLength="84" x="22.4" y="877.2875">+getAll() : array</text><text fill="#000000" font-family="Sarabun" font-size="12.8" lengthAdjust="spacing" textLength="93.6" x="22.4" y="891.5875">+create() : object</text><text fill="#000000" font-family="Sarabun" font-size="12.8" lengthAdjust="spacing" textLength="86.4" x="22.4" y="905.8875">+update() : void</text><text fill="#000000" font-family="Sarabun" font-size="12.8" lengthAdjust="spacing" textLength="82.4" x="22.4" y="920.1875">+delete() : void</text></g><!--class ColorScheme--><g id="elem_ColorScheme"><rect codeLine="134" fill="#F1F1F1" height="195.7" id="ColorScheme" rx="2" ry="2" style="stroke:#181818;stroke-width:0.4000000000000001;" width="108.8" x="592" y="730.4"/><ellipse cx="606.88" cy="743.2" fill="#ADD1B2" rx="8.8" ry="8.8" style="stroke:#181818;stroke-width:0.8000000000000002;"/><path d="M608.68,740.8 Q609.2425,740.4 609.23,740.2 Q609.2175,740 609.43,740 Q609.805,740 610.0425,740.175 Q610.28,740.3375 610.28,740.725 L610.28,741.6625 Q610.28,742.0625 610.1675,742.2375 Q610.055,742.4 609.88,742.4 Q609.7175,742.4 609.63,742.2625 Q609.53,742.125 609.48,741.7625 Q609.43,741.5125 609.28,741.375 Q608.9675,741.1125 608.43,740.9625 Q607.8925,740.8 607.355,740.8 Q606.68,740.8 606.055,741.0625 Q605.4425,741.325 605.055,741.9125 Q604.68,742.4875 604.68,743.2875 L604.68,744.15 Q604.68,745.1125 605.355,745.7625 Q606.03,746.4 607.23,746.4 Q607.9425,746.4 608.4425,746.075 Q608.73,745.8875 609.055,745.3375 Q609.2675,745 609.38,744.9 Q609.4925,744.8 609.63,744.8 Q609.8925,744.8 610.08,745.0125 Q610.28,745.2125 610.28,745.5 Q610.28,745.775 609.605,746.1 Q609.605,746.575 608.9675,746.8375 Q608.13,747.2 607.105,747.2 Q605.905,747.2 604.9425,746.775 Q604.1675,746.4375 603.6175,745.7125 Q603.08,744.975 603.08,744.1 L603.08,743.325 Q603.08,742.4125 603.555,741.6375 Q604.0425,740.85 604.88,740.425 Q605.73,740 606.68,740 Q607.255,740 607.805,740.15 Q608.355,740.3 608.68,740.8 Z " fill="#000000"/><text fill="#000000" font-family="Sarabun" font-size="12.8" lengthAdjust="spacing" textLength="76.8" x="618.72" y="747.6375">ColorScheme</text><line style="stroke:#181818;stroke-width:0.4000000000000001;" x1="592.8" x2="700" y1="756" y2="756"/><text fill="#000000" font-family="Sarabun" font-size="12.8" lengthAdjust="spacing" textLength="47.2" x="596.8" y="770.7875">-id : uuid</text><text fill="#000000" font-family="Sarabun" font-size="12.8" lengthAdjust="spacing" textLength="75.2" x="596.8" y="785.0875">-name : string</text><text fill="#000000" font-family="Sarabun" font-size="12.8" lengthAdjust="spacing" textLength="67.2" x="596.8" y="799.3875">-ccid : string</text><text fill="#000000" font-family="Sarabun" font-size="12.8" lengthAdjust="spacing" textLength="63.2" x="596.8" y="813.6875">-hex : string</text><text fill="#000000" font-family="Sarabun" font-size="12.8" lengthAdjust="spacing" textLength="92.8" x="596.8" y="827.9875">-createdAt : date</text><text fill="#000000" font-family="Sarabun" font-size="12.8" lengthAdjust="spacing" textLength="96" x="596.8" y="842.2875">-updatedAt : date</text><line style="stroke:#181818;stroke-width:0.4000000000000001;" x1="592.8" x2="700" y1="848.2" y2="848.2"/><text fill="#000000" font-family="Sarabun" font-size="12.8" lengthAdjust="spacing" textLength="99.2" x="596.8" y="862.9875">+getOne() : object</text><text fill="#000000" font-family="Sarabun" font-size="12.8" lengthAdjust="spacing" textLength="84" x="596.8" y="877.2875">+getAll() : array</text><text fill="#000000" font-family="Sarabun" font-size="12.8" lengthAdjust="spacing" textLength="93.6" x="596.8" y="891.5875">+create() : object</text><text fill="#000000" font-family="Sarabun" font-size="12.8" lengthAdjust="spacing" textLength="86.4" x="596.8" y="905.8875">+update() : void</text><text fill="#000000" font-family="Sarabun" font-size="12.8" lengthAdjust="spacing" textLength="82.4" x="596.8" y="920.1875">+delete() : void</text></g><!--class GroupColorScheme--><g id="elem_GroupColorScheme"><rect codeLine="150" fill="#F1F1F1" height="152.8" id="GroupColorScheme" rx="2" ry="2" style="stroke:#181818;stroke-width:0.4000000000000001;" width="136.8" x="518" y="1096.8"/><ellipse cx="530" cy="1109.6" fill="#ADD1B2" rx="8.8" ry="8.8" style="stroke:#181818;stroke-width:0.8000000000000002;"/><path d="M531.8,1107.2 Q532.3625,1106.8 532.35,1106.6 Q532.3375,1106.4 532.55,1106.4 Q532.925,1106.4 533.1625,1106.575 Q533.4,1106.7375 533.4,1107.125 L533.4,1108.0625 Q533.4,1108.4625 533.2875,1108.6375 Q533.175,1108.8 533,1108.8 Q532.8375,1108.8 532.75,1108.6625 Q532.65,1108.525 532.6,1108.1625 Q532.55,1107.9125 532.4,1107.775 Q532.0875,1107.5125 531.55,1107.3625 Q531.0125,1107.2 530.475,1107.2 Q529.8,1107.2 529.175,1107.4625 Q528.5625,1107.725 528.175,1108.3125 Q527.8,1108.8875 527.8,1109.6875 L527.8,1110.55 Q527.8,1111.5125 528.475,1112.1625 Q529.15,1112.8 530.35,1112.8 Q531.0625,1112.8 531.5625,1112.475 Q531.85,1112.2875 532.175,1111.7375 Q532.3875,1111.4 532.5,1111.3 Q532.6125,1111.2 532.75,1111.2 Q533.0125,1111.2 533.2,1111.4125 Q533.4,1111.6125 533.4,1111.9 Q533.4,1112.175 532.725,1112.5 Q532.725,1112.975 532.0875,1113.2375 Q531.25,1113.6 530.225,1113.6 Q529.025,1113.6 528.0625,1113.175 Q527.2875,1112.8375 526.7375,1112.1125 Q526.2,1111.375 526.2,1110.5 L526.2,1109.725 Q526.2,1108.8125 526.675,1108.0375 Q527.1625,1107.25 528,1106.825 Q528.85,1106.4 529.8,1106.4 Q530.375,1106.4 530.925,1106.55 Q531.475,1106.7 531.8,1107.2 Z " fill="#000000"/><text fill="#000000" font-family="Sarabun" font-size="12.8" lengthAdjust="spacing" textLength="111.2" x="541.2" y="1114.0375">GroupColorScheme</text><line style="stroke:#181818;stroke-width:0.4000000000000001;" x1="518.8" x2="654" y1="1122.4" y2="1122.4"/><text fill="#000000" font-family="Sarabun" font-size="12.8" lengthAdjust="spacing" textLength="14.4" x="522.8" y="1137.1875">-id</text><text fill="#000000" font-family="Sarabun" font-size="12.8" lengthAdjust="spacing" textLength="80.8" x="522.8" y="1151.4875">-colorShemeId</text><text fill="#000000" font-family="Sarabun" font-size="12.8" lengthAdjust="spacing" textLength="72.8" x="522.8" y="1165.7875">-groupDataId</text><line style="stroke:#181818;stroke-width:0.4000000000000001;" x1="518.8" x2="654" y1="1171.7" y2="1171.7"/><text fill="#000000" font-family="Sarabun" font-size="12.8" lengthAdjust="spacing" textLength="99.2" x="522.8" y="1186.4875">+getOne() : object</text><text fill="#000000" font-family="Sarabun" font-size="12.8" lengthAdjust="spacing" textLength="84" x="522.8" y="1200.7875">+getAll() : array</text><text fill="#000000" font-family="Sarabun" font-size="12.8" lengthAdjust="spacing" textLength="93.6" x="522.8" y="1215.0875">+create() : object</text><text fill="#000000" font-family="Sarabun" font-size="12.8" lengthAdjust="spacing" textLength="86.4" x="522.8" y="1229.3875">+update() : void</text><text fill="#000000" font-family="Sarabun" font-size="12.8" lengthAdjust="spacing" textLength="82.4" x="522.8" y="1243.6875">+delete() : void</text></g><ellipse cx="562.4" cy="828.4" fill="#181818" rx="1.6" ry="1.6" style="stroke:#181818;stroke-width:0.8000000000000002;"/><!--link RoleEum to UserAccount--><g id="link_RoleEum_UserAccount"><path codeLine="162" d="M327.36,181.6 C342.248,181.6 359.736,181.6 376.608,181.6 " fill="none" id="RoleEum-UserAccount" style="stroke:#181818;stroke-width:0.8000000000000002;"/><text fill="#000000" font-family="Sarabun" font-size="12.8" lengthAdjust="spacing" textLength="20" x="342" y="176.3875">has</text><text fill="#000000" font-family="Sarabun" font-size="12.8" lengthAdjust="spacing" textLength="7.2" x="333.5523" y="178.6548">1</text><text fill="#000000" font-family="Sarabun" font-size="12.8" lengthAdjust="spacing" textLength="7.2" x="363.2384" y="179.0418">1</text></g><!--reverse link GroupData to UserAccount--><g id="link_GroupData_UserAccount"><path codeLine="164" d="M444.8,612.28 C444.8,519.448 444.8,413.232 444.8,329.616 " fill="none" id="GroupData-backto-UserAccount" style="stroke:#181818;stroke-width:0.8000000000000002;"/><polygon fill="#181818" points="444.8,622.952,448,618.152,444.8,613.352,441.6,618.152,444.8,622.952" style="stroke:#181818;stroke-width:0.8000000000000002;"/><text fill="#000000" font-family="Sarabun" font-size="12.8" lengthAdjust="spacing" textLength="20" x="445.6" y="473.9875">has</text><text fill="#000000" font-family="Sarabun" font-size="12.8" lengthAdjust="spacing" textLength="7.2" x="437.4819" y="613.9899">1</text><text fill="#000000" font-family="Sarabun" font-size="12.8" lengthAdjust="spacing" textLength="7.2" x="437.4594" y="347.2686">1</text></g><!--link GroupData to GroupTypeEnum--><g id="link_GroupData_GroupTypeEnum"><path codeLine="165" d="M436.216,1033.8 C434.488,1074.992 432.872,1113.56 431.784,1139.496 " fill="none" id="GroupData-GroupTypeEnum" style="stroke:#181818;stroke-width:0.8000000000000002;"/><text fill="#000000" font-family="Sarabun" font-size="12.8" lengthAdjust="spacing" textLength="20" x="435.2" y="1069.9875">has</text><text fill="#000000" font-family="Sarabun" font-size="12.8" lengthAdjust="spacing" textLength="7.2" x="428.6543" y="1051.7005">1</text><text fill="#000000" font-family="Sarabun" font-size="12.8" lengthAdjust="spacing" textLength="7.2" x="424.2031" y="1130.5992">1</text></g><!--link GroupData to apoint17--><g id="link_GroupData_apoint17"><path d="M532.888,828.4 C542.32,828.4 555.912,828.4 560.672,828.4 " fill="none" id="GroupData-apoint17" style="stroke:#181818;stroke-width:0.8000000000000002;"/><text fill="#000000" font-family="Sarabun" font-size="12.8" lengthAdjust="spacing" textLength="18.4" x="536.0406" y="824.4808">1..*</text></g><!--link apoint17 to ColorScheme--><g id="link_apoint17_ColorScheme"><path d="M564.24,828.4 C567.64,828.4 575.152,828.4 581.496,828.4 " fill="none" id="apoint17-to-ColorScheme" style="stroke:#181818;stroke-width:0.8000000000000002;"/><polygon fill="#181818" points="591.904,828.4,587.104,825.2,582.304,828.4,587.104,831.6,591.904,828.4" style="stroke:#181818;stroke-width:0.8000000000000002;"/><text fill="#000000" font-family="Sarabun" font-size="12.8" lengthAdjust="spacing" textLength="18.4" x="570.4793" y="824.1324">1..*</text></g><!--link apoint17 to GroupColorScheme--><g id="link_apoint17_GroupColorScheme"><path d="M562.472,830.184 C563.432,844.008 574.352,1000.144 581.104,1096.672 " fill="none" id="apoint17-GroupColorScheme" style="stroke:#181818;stroke-width:0.8000000000000002;stroke-dasharray:7.0,7.0;"/></g><!--link Product to GroupData--><g id="link_Product_GroupData"><path codeLine="169" d="M301.464,828.4 C318.792,828.4 338.08,828.4 356.744,828.4 " fill="none" id="Product-GroupData" style="stroke:#181818;stroke-width:0.8000000000000002;"/><text fill="#000000" font-family="Sarabun" font-size="12.8" lengthAdjust="spacing" textLength="26.4" x="315.8" y="823.1875">have</text><text fill="#000000" font-family="Sarabun" font-size="12.8" lengthAdjust="spacing" textLength="18.4" x="307.615" y="840.6109">0..*</text><text fill="#000000" font-family="Sarabun" font-size="12.8" lengthAdjust="spacing" textLength="7.2" x="343.0994" y="825.941">1</text></g><!--link UserAccount to ColorScheme--><g id="link_UserAccount_ColorScheme"><path codeLine="171" d="M490.8,329.616 C529.176,452.44 582.784,624 616.008,730.328 " fill="none" id="UserAccount-ColorScheme" style="stroke:#181818;stroke-width:0.8000000000000002;"/><text fill="#000000" font-family="Sarabun" font-size="12.8" lengthAdjust="spacing" textLength="84" x="563.2" y="473.9875">admin-manage</text><text fill="#000000" font-family="Sarabun" font-size="12.8" lengthAdjust="spacing" textLength="7.2" x="485.2563" y="347.2686">1</text><text fill="#000000" font-family="Sarabun" font-size="12.8" lengthAdjust="spacing" textLength="4.8" x="609.0048" y="721.303">*</text></g><!--link UserAccount to Category--><g id="link_UserAccount_Category"><path codeLine="172" d="M376.68,279.56 C357.424,307.024 341.6,329.6 341.6,329.6 C341.6,329.6 126.4,378.4 126.4,378.4 C126.4,378.4 99.8,598.016 83.8,730.128 " fill="none" id="UserAccount-Category" style="stroke:#181818;stroke-width:0.8000000000000002;"/><text fill="#000000" font-family="Sarabun" font-size="12.8" lengthAdjust="spacing" textLength="45.6" x="127.2" y="473.9875">manage</text><text fill="#000000" font-family="Sarabun" font-size="12.8" lengthAdjust="spacing" textLength="7.2" x="363.0924" y="285.7065">1</text><text fill="#000000" font-family="Sarabun" font-size="12.8" lengthAdjust="spacing" textLength="4.8" x="79.6022" y="721.4164">*</text></g><!--reverse link Category to Product--><g id="link_Category_Product"><path codeLine="174" d="M137.128,828.4 C151.824,828.4 167.36,828.4 181.824,828.4 " fill="none" id="Category-backto-Product" style="stroke:#181818;stroke-width:0.8000000000000002;"/><polygon fill="#181818" points="126.6,828.4,131.4,831.6,136.2,828.4,131.4,825.2,126.6,828.4" style="stroke:#181818;stroke-width:0.8000000000000002;"/><text fill="#000000" font-family="Sarabun" font-size="12.8" lengthAdjust="spacing" textLength="26.4" x="141" y="823.1875">have</text><text fill="#000000" font-family="Sarabun" font-size="12.8" lengthAdjust="spacing" textLength="7.2" x="132.9656" y="825.6984">1</text><text fill="#000000" font-family="Sarabun" font-size="12.8" lengthAdjust="spacing" textLength="18.4" x="157.2808" y="840.6109">0..*</text></g><!--link ProductImage to Product--><g id="link_ProductImage_Product"><path codeLine="175" d="M241.6,560.008 C241.6,604.144 241.6,657.968 241.6,705.728 " fill="none" id="ProductImage-to-Product" style="stroke:#181818;stroke-width:0.8000000000000002;"/><polygon fill="#181818" points="241.6,716.144,244.8,711.344,241.6,706.544,238.4,711.344,241.6,716.144" style="stroke:#181818;stroke-width:0.8000000000000002;"/><text fill="#000000" font-family="Sarabun" font-size="12.8" lengthAdjust="spacing" textLength="26.4" x="242.4" y="596.3875">have</text><text fill="#000000" font-family="Sarabun" font-size="12.8" lengthAdjust="spacing" textLength="18.4" x="222.6106" y="577.8773">1..*</text><text fill="#000000" font-family="Sarabun" font-size="12.8" lengthAdjust="spacing" textLength="7.2" x="234.1919" y="707.2601">1</text></g><!--SRC=[tLPFZnir53_ZJs7DPTgKx6ul728uX6osvB3RrQRx0HoFTsBgiKSUJzeKAXNeWLRYYA1G8Kh51LG9K2ictyOV1TkPIUQFWrXwG4ikiN_lFVlvztlpx72kL9eDzlTJXhZA4xQ7HRAF6SgoVaHHB542G8OH8_3c0SZkKfuYWy68NA2SgIF1rGbA29mQT9PplyUKFZ3Xxm6G8dmNnGG68xi1F5nl4C1FG2sGKKxKCYKm5Mnf9o3q68LKSr4FSpaFbP9qbYiomOAxRGz0UCVulmFNl-aocGa6ml5zHNX61NU6zp_jzq4u4aagCgeishF0C8ubYP43X0K0SBl0yup88SOYvyhaRbVeGnh10Snp6fNptFXmIyq0PYOf7fVu76NpKxF8FI6ZjWrXHHT84MkO2S48ugL5cea1pypVE4zAqBTybdjtJUU2Tq2I8ChQe2I9M7WoYAN8qqEaq2Hgd1DBOZCUAXCHcL5r_3HgmWw_0MEYRdDoxRg1nUnZWjKM7pBcS2GbMfRmUlMk-tfvXoz4cSiDKtECrD678EH24SZ8XHf0NNodYzzryPKkdkhYZIwUwsAbLq_qwWkBh9vKyjwgZhfJN4V6YOTdPx05Pmotgl6ORoGprS_nyj-hmqGisjWCSKva6rqGII-eHyWv5srNofX9hBqLucr82XHr2svsI2s2LSiI-U5KYWNbk7FU1pGTYQYRXUfmmECsT1MAS2QK4eajmyzqyRCk2htwKXSljcLe1mP_hOklTV6hBbxguazTl89sPCr_wEAPBXvNu-VLu2StUENMUkp23FW206BAhkeOcqe-7Xz_E3uh9yF3uyc9IN3jsgZNRS3mvFneEBfpVhO9ctvq-zH6LT_BgHHHZdUtGcz3CfLXmOXWcY1MbGp9S4TRmt4ivDBs7PFOZCZ_GKUID9wxblIB4_nIkZP8doJsGjt5F7NMxWVe8bk-Lu4s9L9Bse-EYX_UWhrHMLHDvXhbvQjQNtqwZgzWFzgKuFUEdT_qwf5ZzfkteLKm8QTuJX9ogMw0CUrSB7Do_ogs-NM9hZvtH3vpNBwfKwMBRztufHi_TQ3fzwyRZmy_ZnKBpcXjawZR2l-ZiyCF_3yup3A1gNj4moCcxlaS0QY_g8ER0UpR9rlV3QiRR003ytOE0DW-pwpPlDJTVts5ohNfMJeshpcVwzvUptYxxwFVg-OrIS2rZVUxTVmwtEl81q1rEmO7zNMtgRXDNHeB4dYOCAxDxQqpYXBA-mdYflS4dfWogEfo9gBoxUJZcEwvkBh_Eft6BLCnKtfN2srp3q7OIILF_J8QtxQGMyrzOhRS_qxCiAkcLyVmCaAQXDlKxLJHHyG_q37SAX3q6X_1CR4tKrr7NpgxL0ozCjQ4xqhv4Fm5]--></g></svg>