<?xml version="1.0" encoding="UTF-8" standalone="no"?><svg xmlns="http://www.w3.org/2000/svg" xmlns:xlink="http://www.w3.org/1999/xlink" contentStyleType="text/css" height="697.4px" preserveAspectRatio="none" style="width:395px;height:697px;background:#FFFFFF;" version="1.1" viewBox="0 0 395 697" width="395.56px" zoomAndPan="magnify"><defs/><g><!--cluster Class Diagram--><g id="cluster_Class Diagram"><path d="M3.74,2.64 L53.02,2.64 A1.65,1.65 0 0 1 54.12,3.74 L57.2,13.145 L391.38,13.145 A1.1,1.1 0 0 1 392.48,14.245 L392.48,693.22 A1.1,1.1 0 0 1 391.38,694.32 L3.74,694.32 A1.1,1.1 0 0 1 2.64,693.22 L2.64,3.74 A1.1,1.1 0 0 1 3.74,2.64 " fill="none" style="stroke:#000000;stroke-width:0.66;"/><line style="stroke:#000000;stroke-width:0.66;" x1="2.64" x2="57.2" y1="13.145" y2="13.145"/><text fill="#000000" font-family="Sarabun" font-size="7.04" font-weight="bold" lengthAdjust="spacing" textLength="48.84" x="4.4" y="9.8931">Class Diagram</text></g><!--class UserAccount--><g id="elem_UserAccount"><rect codeLine="19" fill="#F1F1F1" height="162.69" id="UserAccount" rx="1.1" ry="1.1" style="stroke:#181818;stroke-width:0.22;" width="74.8" x="207.24" y="18.48"/><ellipse cx="223.542" cy="25.52" fill="#ADD1B2" rx="4.84" ry="4.84" style="stroke:#181818;stroke-width:0.44;"/><path d="M224.532,24.2 Q224.8414,23.98 224.8345,23.87 Q224.8276,23.76 224.9445,23.76 Q225.1508,23.76 225.2814,23.8563 Q225.412,23.9456 225.412,24.1588 L225.412,24.6744 Q225.412,24.8944 225.3501,24.9906 Q225.2882,25.08 225.192,25.08 Q225.1026,25.08 225.0545,25.0044 Q224.9995,24.9288 224.972,24.7294 Q224.9445,24.5919 224.862,24.5163 Q224.6901,24.3719 224.3945,24.2894 Q224.0989,24.2 223.8033,24.2 Q223.432,24.2 223.0883,24.3444 Q222.7514,24.4888 222.5383,24.8119 Q222.332,25.1281 222.332,25.5681 L222.332,26.0425 Q222.332,26.5719 222.7033,26.9294 Q223.0745,27.28 223.7345,27.28 Q224.1264,27.28 224.4014,27.1013 Q224.5595,26.9981 224.7383,26.6956 Q224.8551,26.51 224.917,26.455 Q224.9789,26.4 225.0545,26.4 Q225.1989,26.4 225.302,26.5169 Q225.412,26.6269 225.412,26.785 Q225.412,26.9363 225.0408,27.115 Q225.0408,27.3763 224.6901,27.5206 Q224.2295,27.72 223.6658,27.72 Q223.0058,27.72 222.4764,27.4863 Q222.0501,27.3006 221.7476,26.9019 Q221.452,26.4963 221.452,26.015 L221.452,25.5888 Q221.452,25.0869 221.7133,24.6606 Q221.9814,24.2275 222.442,23.9938 Q222.9095,23.76 223.432,23.76 Q223.7483,23.76 224.0508,23.8425 Q224.3533,23.925 224.532,24.2 Z " fill="#000000"/><text fill="#000000" font-family="Sarabun" font-size="7.04" lengthAdjust="spacing" textLength="39.16" x="231.858" y="27.9606">UserAccount</text><line style="stroke:#181818;stroke-width:0.22;" x1="207.68" x2="281.6" y1="32.56" y2="32.56"/><text fill="#000000" font-family="Sarabun" font-size="7.04" lengthAdjust="spacing" textLength="25.96" x="209.88" y="40.6931">-id : uuid</text><text fill="#000000" font-family="Sarabun" font-size="7.04" lengthAdjust="spacing" textLength="54.56" x="209.88" y="48.5581">-username : string</text><text fill="#000000" font-family="Sarabun" font-size="7.04" lengthAdjust="spacing" textLength="69.52" x="209.88" y="56.4231">-hashPassword : string</text><text fill="#000000" font-family="Sarabun" font-size="7.04" lengthAdjust="spacing" textLength="59.84" x="209.88" y="64.2881">-activated : boolean</text><text fill="#000000" font-family="Sarabun" font-size="7.04" lengthAdjust="spacing" textLength="47.08" x="209.88" y="72.1531">-role : RoleEum</text><text fill="#000000" font-family="Sarabun" font-size="7.04" lengthAdjust="spacing" textLength="41.36" x="209.88" y="80.0181">-name : string</text><text fill="#000000" font-family="Sarabun" font-size="7.04" lengthAdjust="spacing" textLength="50.6" x="209.88" y="87.8831">-surname : string</text><text fill="#000000" font-family="Sarabun" font-size="7.04" lengthAdjust="spacing" textLength="43.12" x="209.88" y="95.7481">-phone : string</text><text fill="#000000" font-family="Sarabun" font-size="7.04" lengthAdjust="spacing" textLength="40.92" x="209.88" y="103.6131">-email : string</text><text fill="#000000" font-family="Sarabun" font-size="7.04" lengthAdjust="spacing" textLength="58.96" x="209.88" y="111.4781">-removed : boolean</text><text fill="#000000" font-family="Sarabun" font-size="7.04" lengthAdjust="spacing" textLength="56.32" x="209.88" y="119.3431">-groupDataId: uuid</text><text fill="#000000" font-family="Sarabun" font-size="7.04" lengthAdjust="spacing" textLength="51.04" x="209.88" y="127.2081">-createdAt : date</text><text fill="#000000" font-family="Sarabun" font-size="7.04" lengthAdjust="spacing" textLength="52.8" x="209.88" y="135.0731">-updatedAt : date</text><line style="stroke:#181818;stroke-width:0.22;" x1="207.68" x2="281.6" y1="138.325" y2="138.325"/><text fill="#000000" font-family="Sarabun" font-size="7.04" lengthAdjust="spacing" textLength="54.56" x="209.88" y="146.4581">+getOne() : object</text><text fill="#000000" font-family="Sarabun" font-size="7.04" lengthAdjust="spacing" textLength="46.2" x="209.88" y="154.3231">+getAll() : array</text><text fill="#000000" font-family="Sarabun" font-size="7.04" lengthAdjust="spacing" textLength="51.48" x="209.88" y="162.1881">+create() : object</text><text fill="#000000" font-family="Sarabun" font-size="7.04" lengthAdjust="spacing" textLength="47.52" x="209.88" y="170.0531">+update() : void</text><text fill="#000000" font-family="Sarabun" font-size="7.04" lengthAdjust="spacing" textLength="45.32" x="209.88" y="177.9181">+delete() : void</text></g><!--class GroupData--><g id="elem_GroupData"><rect codeLine="42" fill="#F1F1F1" height="225.61" id="GroupData" rx="1.1" ry="1.1" style="stroke:#181818;stroke-width:0.22;" width="96.8" x="196.24" y="342.76"/><ellipse cx="225.83" cy="349.8" fill="#ADD1B2" rx="4.84" ry="4.84" style="stroke:#181818;stroke-width:0.44;"/><path d="M226.82,348.48 Q227.1294,348.26 227.1225,348.15 Q227.1156,348.04 227.2325,348.04 Q227.4388,348.04 227.5694,348.1363 Q227.7,348.2256 227.7,348.4388 L227.7,348.9544 Q227.7,349.1744 227.6381,349.2706 Q227.5763,349.36 227.48,349.36 Q227.3906,349.36 227.3425,349.2844 Q227.2875,349.2088 227.26,349.0094 Q227.2325,348.8719 227.15,348.7963 Q226.9781,348.6519 226.6825,348.5694 Q226.3869,348.48 226.0913,348.48 Q225.72,348.48 225.3763,348.6244 Q225.0394,348.7688 224.8263,349.0919 Q224.62,349.4081 224.62,349.8481 L224.62,350.3225 Q224.62,350.8519 224.9913,351.2094 Q225.3625,351.56 226.0225,351.56 Q226.4144,351.56 226.6894,351.3813 Q226.8475,351.2781 227.0263,350.9756 Q227.1431,350.79 227.205,350.735 Q227.2669,350.68 227.3425,350.68 Q227.4869,350.68 227.59,350.7969 Q227.7,350.9069 227.7,351.065 Q227.7,351.2163 227.3288,351.395 Q227.3288,351.6563 226.9781,351.8006 Q226.5175,352 225.9538,352 Q225.2938,352 224.7644,351.7663 Q224.3381,351.5806 224.0356,351.1819 Q223.74,350.7763 223.74,350.295 L223.74,349.8688 Q223.74,349.3669 224.0013,348.9406 Q224.2694,348.5075 224.73,348.2738 Q225.1975,348.04 225.72,348.04 Q226.0363,348.04 226.3388,348.1225 Q226.6413,348.205 226.82,348.48 Z " fill="#000000"/><text fill="#000000" font-family="Sarabun" font-size="7.04" lengthAdjust="spacing" textLength="33.88" x="234.85" y="352.2406">GroupData</text><line style="stroke:#181818;stroke-width:0.22;" x1="196.68" x2="292.6" y1="356.84" y2="356.84"/><text fill="#000000" font-family="Sarabun" font-size="7.04" lengthAdjust="spacing" textLength="25.96" x="198.88" y="364.9731">-id : uuid</text><text fill="#000000" font-family="Sarabun" font-size="7.04" lengthAdjust="spacing" textLength="60.28" x="198.88" y="372.8381">-groupName : string</text><text fill="#000000" font-family="Sarabun" font-size="7.04" lengthAdjust="spacing" textLength="91.52" x="198.88" y="380.7031">-groupType : GroupTypeEnum</text><text fill="#000000" font-family="Sarabun" font-size="7.04" lengthAdjust="spacing" textLength="46.2" x="198.88" y="388.5681">-agency : string</text><text fill="#000000" font-family="Sarabun" font-size="7.04" lengthAdjust="spacing" textLength="43.12" x="198.88" y="396.4331">-phone : string</text><text fill="#000000" font-family="Sarabun" font-size="7.04" lengthAdjust="spacing" textLength="40.92" x="198.88" y="404.2981">-email : string</text><text fill="#000000" font-family="Sarabun" font-size="7.04" lengthAdjust="spacing" textLength="37.4" x="198.88" y="412.1631">-logo : string</text><text fill="#000000" font-family="Sarabun" font-size="7.04" lengthAdjust="spacing" textLength="45.32" x="198.88" y="420.0281">-banner : string</text><text fill="#000000" font-family="Sarabun" font-size="7.04" lengthAdjust="spacing" textLength="54.56" x="198.88" y="427.8931">-verified : boolean</text><text fill="#000000" font-family="Sarabun" font-size="7.04" lengthAdjust="spacing" textLength="33.44" x="198.88" y="435.7581">-hno: string</text><text fill="#000000" font-family="Sarabun" font-size="7.04" lengthAdjust="spacing" textLength="41.8" x="198.88" y="443.6231">-village: string</text><text fill="#000000" font-family="Sarabun" font-size="7.04" lengthAdjust="spacing" textLength="35.2" x="198.88" y="451.4881">-lane: string</text><text fill="#000000" font-family="Sarabun" font-size="7.04" lengthAdjust="spacing" textLength="38.28" x="198.88" y="459.3531">-road : string</text><text fill="#000000" font-family="Sarabun" font-size="7.04" lengthAdjust="spacing" textLength="55" x="198.88" y="467.2181">-subDistrict: string</text><text fill="#000000" font-family="Sarabun" font-size="7.04" lengthAdjust="spacing" textLength="42.68" x="198.88" y="475.0831">-district: string</text><text fill="#000000" font-family="Sarabun" font-size="7.04" lengthAdjust="spacing" textLength="50.16" x="198.88" y="482.9481">-province : string</text><text fill="#000000" font-family="Sarabun" font-size="7.04" lengthAdjust="spacing" textLength="48.4" x="198.88" y="490.8131">-zipCode: string</text><text fill="#000000" font-family="Sarabun" font-size="7.04" lengthAdjust="spacing" textLength="31.24" x="198.88" y="498.6781">-lat : string</text><text fill="#000000" font-family="Sarabun" font-size="7.04" lengthAdjust="spacing" textLength="33" x="198.88" y="506.5431">-lng : string</text><text fill="#000000" font-family="Sarabun" font-size="7.04" lengthAdjust="spacing" textLength="51.04" x="198.88" y="514.4081">-createdAt : date</text><text fill="#000000" font-family="Sarabun" font-size="7.04" lengthAdjust="spacing" textLength="52.8" x="198.88" y="522.2731">-updatedAt : date</text><line style="stroke:#181818;stroke-width:0.22;" x1="196.68" x2="292.6" y1="525.525" y2="525.525"/><text fill="#000000" font-family="Sarabun" font-size="7.04" lengthAdjust="spacing" textLength="54.56" x="198.88" y="533.6581">+getOne() : object</text><text fill="#000000" font-family="Sarabun" font-size="7.04" lengthAdjust="spacing" textLength="46.2" x="198.88" y="541.5231">+getAll() : array</text><text fill="#000000" font-family="Sarabun" font-size="7.04" lengthAdjust="spacing" textLength="51.48" x="198.88" y="549.3881">+create() : object</text><text fill="#000000" font-family="Sarabun" font-size="7.04" lengthAdjust="spacing" textLength="47.52" x="198.88" y="557.2531">+update() : void</text><text fill="#000000" font-family="Sarabun" font-size="7.04" lengthAdjust="spacing" textLength="45.32" x="198.88" y="565.1181">+delete() : void</text></g><!--class RoleEum--><g id="elem_RoleEum"><rect codeLine="73" fill="#F1F1F1" height="36.85" id="RoleEum" rx="1.1" ry="1.1" style="stroke:#181818;stroke-width:0.22;" width="42.24" x="137.72" y="81.4"/><ellipse cx="144.32" cy="88.44" fill="#EB937F" rx="4.84" ry="4.84" style="stroke:#181818;stroke-width:0.44;"/><path d="M143.88,88.66 L143.88,89.98 L145.64,89.98 L145.64,89.54 L145.64,89.32 L145.7019,89.1 L145.86,89.1 L146.0181,89.1 L146.08,89.32 L146.08,89.54 L146.08,90.42 L143,90.42 L142.78,90.42 L142.56,90.3581 L142.56,90.2 L142.56,90.0419 L142.78,89.98 L143,89.98 L143,89.98 L143,86.9 L143,86.9 L142.78,86.9 L142.56,86.8381 L142.56,86.68 L142.56,86.5219 L142.78,86.46 L143,86.46 L146.08,86.46 L146.08,87.34 L146.08,87.56 L146.0181,87.78 L145.86,87.78 L145.7019,87.78 L145.64,87.56 L145.64,87.34 L145.64,86.9 L143.88,86.9 L143.88,88.22 L144.76,88.22 L144.76,88 L144.76,88 L144.8219,87.78 L144.98,87.78 L145.1381,87.78 L145.2,88 L145.2,88.22 L145.2,88.66 L145.2,88.88 L145.1381,89.1 L145.1381,89.1 L144.98,89.1 L144.8219,89.1 L144.76,88.88 L144.76,88.88 L144.76,88.66 L143.88,88.66 Z " fill="#000000"/><text fill="#000000" font-family="Sarabun" font-size="7.04" lengthAdjust="spacing" textLength="28.16" x="150.48" y="90.8806">RoleEum</text><line style="stroke:#181818;stroke-width:0.22;" x1="138.16" x2="179.52" y1="95.48" y2="95.48"/><text fill="#000000" font-family="Sarabun" font-size="7.04" lengthAdjust="spacing" textLength="33" x="140.36" y="103.6131">-MEMBER</text><text fill="#000000" font-family="Sarabun" font-size="7.04" lengthAdjust="spacing" textLength="24.2" x="140.36" y="111.4781">-ADMIN</text><line style="stroke:#181818;stroke-width:0.22;" x1="138.16" x2="179.52" y1="114.73" y2="114.73"/></g><!--class GroupTypeEnum--><g id="elem_GroupTypeEnum"><rect codeLine="78" fill="#F1F1F1" height="36.85" id="GroupTypeEnum" rx="1.1" ry="1.1" style="stroke:#181818;stroke-width:0.22;" width="65.56" x="203.94" y="626.78"/><ellipse cx="210.54" cy="633.82" fill="#EB937F" rx="4.84" ry="4.84" style="stroke:#181818;stroke-width:0.44;"/><path d="M210.1,634.04 L210.1,635.36 L211.86,635.36 L211.86,634.92 L211.86,634.7 L211.9219,634.48 L212.08,634.48 L212.2381,634.48 L212.3,634.7 L212.3,634.92 L212.3,635.8 L209.22,635.8 L209,635.8 L208.78,635.7381 L208.78,635.58 L208.78,635.4219 L209,635.36 L209.22,635.36 L209.22,635.36 L209.22,632.28 L209.22,632.28 L209,632.28 L208.78,632.2181 L208.78,632.06 L208.78,631.9019 L209,631.84 L209.22,631.84 L212.3,631.84 L212.3,632.72 L212.3,632.94 L212.2381,633.16 L212.08,633.16 L211.9219,633.16 L211.86,632.94 L211.86,632.72 L211.86,632.28 L210.1,632.28 L210.1,633.6 L210.98,633.6 L210.98,633.38 L210.98,633.38 L211.0419,633.16 L211.2,633.16 L211.3581,633.16 L211.42,633.38 L211.42,633.6 L211.42,634.04 L211.42,634.26 L211.3581,634.48 L211.3581,634.48 L211.2,634.48 L211.0419,634.48 L210.98,634.26 L210.98,634.26 L210.98,634.04 L210.1,634.04 Z " fill="#000000"/><text fill="#000000" font-family="Sarabun" font-size="7.04" lengthAdjust="spacing" textLength="51.48" x="216.7" y="636.2606">GroupTypeEnum</text><line style="stroke:#181818;stroke-width:0.22;" x1="204.38" x2="269.06" y1="640.86" y2="640.86"/><text fill="#000000" font-family="Sarabun" font-size="7.04" lengthAdjust="spacing" textLength="42.24" x="206.58" y="648.9931">-PRODUCER</text><text fill="#000000" font-family="Sarabun" font-size="7.04" lengthAdjust="spacing" textLength="22" x="206.58" y="656.8581">-SHOP</text><line style="stroke:#181818;stroke-width:0.22;" x1="204.38" x2="269.06" y1="660.11" y2="660.11"/></g><!--class Product--><g id="elem_Product"><rect codeLine="85" fill="#F1F1F1" height="123.365" id="Product" rx="1.1" ry="1.1" style="stroke:#181818;stroke-width:0.22;" width="65.56" x="100.1" y="394.02"/><ellipse cx="119.174" cy="401.06" fill="#ADD1B2" rx="4.84" ry="4.84" style="stroke:#181818;stroke-width:0.44;"/><path d="M120.164,399.74 Q120.4734,399.52 120.4665,399.41 Q120.4596,399.3 120.5765,399.3 Q120.7828,399.3 120.9134,399.3963 Q121.044,399.4856 121.044,399.6988 L121.044,400.2144 Q121.044,400.4344 120.9821,400.5306 Q120.9203,400.62 120.824,400.62 Q120.7346,400.62 120.6865,400.5444 Q120.6315,400.4688 120.604,400.2694 Q120.5765,400.1319 120.494,400.0563 Q120.3221,399.9119 120.0265,399.8294 Q119.7309,399.74 119.4353,399.74 Q119.064,399.74 118.7203,399.8844 Q118.3834,400.0288 118.1703,400.3519 Q117.964,400.6681 117.964,401.1081 L117.964,401.5825 Q117.964,402.1119 118.3353,402.4694 Q118.7065,402.82 119.3665,402.82 Q119.7584,402.82 120.0334,402.6413 Q120.1915,402.5381 120.3703,402.2356 Q120.4871,402.05 120.549,401.995 Q120.6109,401.94 120.6865,401.94 Q120.8309,401.94 120.934,402.0569 Q121.044,402.1669 121.044,402.325 Q121.044,402.4763 120.6728,402.655 Q120.6728,402.9163 120.3221,403.0606 Q119.8615,403.26 119.2978,403.26 Q118.6378,403.26 118.1084,403.0263 Q117.6821,402.8406 117.3796,402.4419 Q117.084,402.0363 117.084,401.555 L117.084,401.1288 Q117.084,400.6269 117.3453,400.2006 Q117.6134,399.7675 118.074,399.5338 Q118.5415,399.3 119.064,399.3 Q119.3803,399.3 119.6828,399.3825 Q119.9853,399.465 120.164,399.74 Z " fill="#000000"/><text fill="#000000" font-family="Sarabun" font-size="7.04" lengthAdjust="spacing" textLength="23.76" x="128.106" y="403.5006">Product</text><line style="stroke:#181818;stroke-width:0.22;" x1="100.54" x2="165.22" y1="408.1" y2="408.1"/><text fill="#000000" font-family="Sarabun" font-size="7.04" lengthAdjust="spacing" textLength="25.96" x="102.74" y="416.2331">-id : uuid</text><text fill="#000000" font-family="Sarabun" font-size="7.04" lengthAdjust="spacing" textLength="41.36" x="102.74" y="424.0981">-name : string</text><text fill="#000000" font-family="Sarabun" font-size="7.04" lengthAdjust="spacing" textLength="47.08" x="102.74" y="431.9631">-price : decimal</text><text fill="#000000" font-family="Sarabun" font-size="7.04" lengthAdjust="spacing" textLength="39.16" x="102.74" y="439.8281">-desc : string</text><text fill="#000000" font-family="Sarabun" font-size="7.04" lengthAdjust="spacing" textLength="60.28" x="102.74" y="447.6931">-categoryId: number</text><text fill="#000000" font-family="Sarabun" font-size="7.04" lengthAdjust="spacing" textLength="56.32" x="102.74" y="455.5581">-groupDataId: uuid</text><text fill="#000000" font-family="Sarabun" font-size="7.04" lengthAdjust="spacing" textLength="51.04" x="102.74" y="463.4231">-createdAt : date</text><text fill="#000000" font-family="Sarabun" font-size="7.04" lengthAdjust="spacing" textLength="52.8" x="102.74" y="471.2881">-updatedAt : date</text><line style="stroke:#181818;stroke-width:0.22;" x1="100.54" x2="165.22" y1="474.54" y2="474.54"/><text fill="#000000" font-family="Sarabun" font-size="7.04" lengthAdjust="spacing" textLength="54.56" x="102.74" y="482.6731">+getOne() : object</text><text fill="#000000" font-family="Sarabun" font-size="7.04" lengthAdjust="spacing" textLength="46.2" x="102.74" y="490.5381">+getAll() : array</text><text fill="#000000" font-family="Sarabun" font-size="7.04" lengthAdjust="spacing" textLength="51.48" x="102.74" y="498.4031">+create() : object</text><text fill="#000000" font-family="Sarabun" font-size="7.04" lengthAdjust="spacing" textLength="47.52" x="102.74" y="506.2681">+update() : void</text><text fill="#000000" font-family="Sarabun" font-size="7.04" lengthAdjust="spacing" textLength="45.32" x="102.74" y="514.1331">+delete() : void</text></g><!--class ProductImage--><g id="elem_ProductImage"><rect codeLine="103" fill="#F1F1F1" height="99.77" id="ProductImage" rx="1.1" ry="1.1" style="stroke:#181818;stroke-width:0.22;" width="59.84" x="102.96" y="208.12"/><ellipse cx="110.946" cy="215.16" fill="#ADD1B2" rx="4.84" ry="4.84" style="stroke:#181818;stroke-width:0.44;"/><path d="M111.936,213.84 Q112.2454,213.62 112.2385,213.51 Q112.2316,213.4 112.3485,213.4 Q112.5548,213.4 112.6854,213.4963 Q112.816,213.5856 112.816,213.7988 L112.816,214.3144 Q112.816,214.5344 112.7541,214.6306 Q112.6922,214.72 112.596,214.72 Q112.5066,214.72 112.4585,214.6444 Q112.4035,214.5688 112.376,214.3694 Q112.3485,214.2319 112.266,214.1563 Q112.0941,214.0119 111.7985,213.9294 Q111.5029,213.84 111.2073,213.84 Q110.836,213.84 110.4923,213.9844 Q110.1554,214.1288 109.9423,214.4519 Q109.736,214.7681 109.736,215.2081 L109.736,215.6825 Q109.736,216.2119 110.1073,216.5694 Q110.4785,216.92 111.1385,216.92 Q111.5304,216.92 111.8054,216.7413 Q111.9635,216.6381 112.1423,216.3356 Q112.2591,216.15 112.321,216.095 Q112.3829,216.04 112.4585,216.04 Q112.6029,216.04 112.706,216.1569 Q112.816,216.2669 112.816,216.425 Q112.816,216.5763 112.4448,216.755 Q112.4448,217.0163 112.0941,217.1606 Q111.6335,217.36 111.0698,217.36 Q110.4098,217.36 109.8804,217.1263 Q109.4541,216.9406 109.1516,216.5419 Q108.856,216.1363 108.856,215.655 L108.856,215.2288 Q108.856,214.7269 109.1173,214.3006 Q109.3854,213.8675 109.846,213.6338 Q110.3135,213.4 110.836,213.4 Q111.1523,213.4 111.4548,213.4825 Q111.7573,213.565 111.936,213.84 Z " fill="#000000"/><text fill="#000000" font-family="Sarabun" font-size="7.04" lengthAdjust="spacing" textLength="42.68" x="117.414" y="217.6006">ProductImage</text><line style="stroke:#181818;stroke-width:0.22;" x1="103.4" x2="162.36" y1="222.2" y2="222.2"/><text fill="#000000" font-family="Sarabun" font-size="7.04" lengthAdjust="spacing" textLength="25.96" x="105.6" y="230.3331">-id : uuid</text><text fill="#000000" font-family="Sarabun" font-size="7.04" lengthAdjust="spacing" textLength="43.56" x="105.6" y="238.1981">-image : string</text><text fill="#000000" font-family="Sarabun" font-size="7.04" lengthAdjust="spacing" textLength="48.4" x="105.6" y="246.0631">-productId : uuid</text><text fill="#000000" font-family="Sarabun" font-size="7.04" lengthAdjust="spacing" textLength="51.04" x="105.6" y="253.9281">-createdAt : date</text><text fill="#000000" font-family="Sarabun" font-size="7.04" lengthAdjust="spacing" textLength="52.8" x="105.6" y="261.7931">-updatedAt : date</text><line style="stroke:#181818;stroke-width:0.22;" x1="103.4" x2="162.36" y1="265.045" y2="265.045"/><text fill="#000000" font-family="Sarabun" font-size="7.04" lengthAdjust="spacing" textLength="54.56" x="105.6" y="273.1781">+getOne() : object</text><text fill="#000000" font-family="Sarabun" font-size="7.04" lengthAdjust="spacing" textLength="46.2" x="105.6" y="281.0431">+getAll() : array</text><text fill="#000000" font-family="Sarabun" font-size="7.04" lengthAdjust="spacing" textLength="51.48" x="105.6" y="288.9081">+create() : object</text><text fill="#000000" font-family="Sarabun" font-size="7.04" lengthAdjust="spacing" textLength="47.52" x="105.6" y="296.7731">+update() : void</text><text fill="#000000" font-family="Sarabun" font-size="7.04" lengthAdjust="spacing" textLength="45.32" x="105.6" y="304.6381">+delete() : void</text></g><!--class Category--><g id="elem_Category"><rect codeLine="118" fill="#F1F1F1" height="107.635" id="Category" rx="1.1" ry="1.1" style="stroke:#181818;stroke-width:0.22;" width="59.84" x="9.68" y="401.72"/><ellipse cx="24.2" cy="408.76" fill="#ADD1B2" rx="4.84" ry="4.84" style="stroke:#181818;stroke-width:0.44;"/><path d="M25.19,407.44 Q25.4994,407.22 25.4925,407.11 Q25.4856,407 25.6025,407 Q25.8088,407 25.9394,407.0963 Q26.07,407.1856 26.07,407.3988 L26.07,407.9144 Q26.07,408.1344 26.0081,408.2306 Q25.9463,408.32 25.85,408.32 Q25.7606,408.32 25.7125,408.2444 Q25.6575,408.1688 25.63,407.9694 Q25.6025,407.8319 25.52,407.7563 Q25.3481,407.6119 25.0525,407.5294 Q24.7569,407.44 24.4613,407.44 Q24.09,407.44 23.7463,407.5844 Q23.4094,407.7288 23.1963,408.0519 Q22.99,408.3681 22.99,408.8081 L22.99,409.2825 Q22.99,409.8119 23.3613,410.1694 Q23.7325,410.52 24.3925,410.52 Q24.7844,410.52 25.0594,410.3413 Q25.2175,410.2381 25.3963,409.9356 Q25.5131,409.75 25.575,409.695 Q25.6369,409.64 25.7125,409.64 Q25.8569,409.64 25.96,409.7569 Q26.07,409.8669 26.07,410.025 Q26.07,410.1763 25.6988,410.355 Q25.6988,410.6163 25.3481,410.7606 Q24.8875,410.96 24.3238,410.96 Q23.6638,410.96 23.1344,410.7263 Q22.7081,410.5406 22.4056,410.1419 Q22.11,409.7363 22.11,409.255 L22.11,408.8288 Q22.11,408.3269 22.3713,407.9006 Q22.6394,407.4675 23.1,407.2338 Q23.5675,407 24.09,407 Q24.4063,407 24.7088,407.0825 Q25.0113,407.165 25.19,407.44 Z " fill="#000000"/><text fill="#000000" font-family="Sarabun" font-size="7.04" lengthAdjust="spacing" textLength="28.16" x="32.12" y="411.2006">Category</text><line style="stroke:#181818;stroke-width:0.22;" x1="10.12" x2="69.08" y1="415.8" y2="415.8"/><text fill="#000000" font-family="Sarabun" font-size="7.04" lengthAdjust="spacing" textLength="36.08" x="12.32" y="423.9331">-id : number</text><text fill="#000000" font-family="Sarabun" font-size="7.04" lengthAdjust="spacing" textLength="41.36" x="12.32" y="431.7981">-name : string</text><text fill="#000000" font-family="Sarabun" font-size="7.04" lengthAdjust="spacing" textLength="39.16" x="12.32" y="439.6631">-desc : string</text><text fill="#000000" font-family="Sarabun" font-size="7.04" lengthAdjust="spacing" textLength="41.8" x="12.32" y="447.5281">-image: string</text><text fill="#000000" font-family="Sarabun" font-size="7.04" lengthAdjust="spacing" textLength="51.04" x="12.32" y="455.3931">-createdAt : date</text><text fill="#000000" font-family="Sarabun" font-size="7.04" lengthAdjust="spacing" textLength="52.8" x="12.32" y="463.2581">-updatedAt : date</text><line style="stroke:#181818;stroke-width:0.22;" x1="10.12" x2="69.08" y1="466.51" y2="466.51"/><text fill="#000000" font-family="Sarabun" font-size="7.04" lengthAdjust="spacing" textLength="54.56" x="12.32" y="474.6431">+getOne() : object</text><text fill="#000000" font-family="Sarabun" font-size="7.04" lengthAdjust="spacing" textLength="46.2" x="12.32" y="482.5081">+getAll() : array</text><text fill="#000000" font-family="Sarabun" font-size="7.04" lengthAdjust="spacing" textLength="51.48" x="12.32" y="490.3731">+create() : object</text><text fill="#000000" font-family="Sarabun" font-size="7.04" lengthAdjust="spacing" textLength="47.52" x="12.32" y="498.2381">+update() : void</text><text fill="#000000" font-family="Sarabun" font-size="7.04" lengthAdjust="spacing" textLength="45.32" x="12.32" y="506.1031">+delete() : void</text></g><!--class ColorScheme--><g id="elem_ColorScheme"><rect codeLine="134" fill="#F1F1F1" height="107.635" id="ColorScheme" rx="1.1" ry="1.1" style="stroke:#181818;stroke-width:0.22;" width="59.84" x="325.6" y="401.72"/><ellipse cx="333.784" cy="408.76" fill="#ADD1B2" rx="4.84" ry="4.84" style="stroke:#181818;stroke-width:0.44;"/><path d="M334.774,407.44 Q335.0834,407.22 335.0765,407.11 Q335.0696,407 335.1865,407 Q335.3928,407 335.5234,407.0963 Q335.654,407.1856 335.654,407.3988 L335.654,407.9144 Q335.654,408.1344 335.5921,408.2306 Q335.5303,408.32 335.434,408.32 Q335.3446,408.32 335.2965,408.2444 Q335.2415,408.1688 335.214,407.9694 Q335.1865,407.8319 335.104,407.7563 Q334.9321,407.6119 334.6365,407.5294 Q334.3409,407.44 334.0453,407.44 Q333.674,407.44 333.3303,407.5844 Q332.9934,407.7288 332.7803,408.0519 Q332.574,408.3681 332.574,408.8081 L332.574,409.2825 Q332.574,409.8119 332.9453,410.1694 Q333.3165,410.52 333.9765,410.52 Q334.3684,410.52 334.6434,410.3413 Q334.8015,410.2381 334.9803,409.9356 Q335.0971,409.75 335.159,409.695 Q335.2209,409.64 335.2965,409.64 Q335.4409,409.64 335.544,409.7569 Q335.654,409.8669 335.654,410.025 Q335.654,410.1763 335.2828,410.355 Q335.2828,410.6163 334.9321,410.7606 Q334.4715,410.96 333.9078,410.96 Q333.2478,410.96 332.7184,410.7263 Q332.2921,410.5406 331.9896,410.1419 Q331.694,409.7363 331.694,409.255 L331.694,408.8288 Q331.694,408.3269 331.9553,407.9006 Q332.2234,407.4675 332.684,407.2338 Q333.1515,407 333.674,407 Q333.9903,407 334.2928,407.0825 Q334.5953,407.165 334.774,407.44 Z " fill="#000000"/><text fill="#000000" font-family="Sarabun" font-size="7.04" lengthAdjust="spacing" textLength="42.24" x="340.296" y="411.2006">ColorScheme</text><line style="stroke:#181818;stroke-width:0.22;" x1="326.04" x2="385" y1="415.8" y2="415.8"/><text fill="#000000" font-family="Sarabun" font-size="7.04" lengthAdjust="spacing" textLength="25.96" x="328.24" y="423.9331">-id : uuid</text><text fill="#000000" font-family="Sarabun" font-size="7.04" lengthAdjust="spacing" textLength="41.36" x="328.24" y="431.7981">-name : string</text><text fill="#000000" font-family="Sarabun" font-size="7.04" lengthAdjust="spacing" textLength="36.96" x="328.24" y="439.6631">-ccid : string</text><text fill="#000000" font-family="Sarabun" font-size="7.04" lengthAdjust="spacing" textLength="34.76" x="328.24" y="447.5281">-hex : string</text><text fill="#000000" font-family="Sarabun" font-size="7.04" lengthAdjust="spacing" textLength="51.04" x="328.24" y="455.3931">-createdAt : date</text><text fill="#000000" font-family="Sarabun" font-size="7.04" lengthAdjust="spacing" textLength="52.8" x="328.24" y="463.2581">-updatedAt : date</text><line style="stroke:#181818;stroke-width:0.22;" x1="326.04" x2="385" y1="466.51" y2="466.51"/><text fill="#000000" font-family="Sarabun" font-size="7.04" lengthAdjust="spacing" textLength="54.56" x="328.24" y="474.6431">+getOne() : object</text><text fill="#000000" font-family="Sarabun" font-size="7.04" lengthAdjust="spacing" textLength="46.2" x="328.24" y="482.5081">+getAll() : array</text><text fill="#000000" font-family="Sarabun" font-size="7.04" lengthAdjust="spacing" textLength="51.48" x="328.24" y="490.3731">+create() : object</text><text fill="#000000" font-family="Sarabun" font-size="7.04" lengthAdjust="spacing" textLength="47.52" x="328.24" y="498.2381">+update() : void</text><text fill="#000000" font-family="Sarabun" font-size="7.04" lengthAdjust="spacing" textLength="45.32" x="328.24" y="506.1031">+delete() : void</text></g><!--class GroupColorScheme--><g id="elem_GroupColorScheme"><rect codeLine="150" fill="#F1F1F1" height="84.04" id="GroupColorScheme" rx="1.1" ry="1.1" style="stroke:#181818;stroke-width:0.22;" width="75.24" x="284.9" y="603.24"/><ellipse cx="291.5" cy="610.28" fill="#ADD1B2" rx="4.84" ry="4.84" style="stroke:#181818;stroke-width:0.44;"/><path d="M292.49,608.96 Q292.7994,608.74 292.7925,608.63 Q292.7856,608.52 292.9025,608.52 Q293.1088,608.52 293.2394,608.6163 Q293.37,608.7056 293.37,608.9188 L293.37,609.4344 Q293.37,609.6544 293.3081,609.7506 Q293.2463,609.84 293.15,609.84 Q293.0606,609.84 293.0125,609.7644 Q292.9575,609.6888 292.93,609.4894 Q292.9025,609.3519 292.82,609.2763 Q292.6481,609.1319 292.3525,609.0494 Q292.0569,608.96 291.7613,608.96 Q291.39,608.96 291.0463,609.1044 Q290.7094,609.2488 290.4963,609.5719 Q290.29,609.8881 290.29,610.3281 L290.29,610.8025 Q290.29,611.3319 290.6613,611.6894 Q291.0325,612.04 291.6925,612.04 Q292.0844,612.04 292.3594,611.8613 Q292.5175,611.7581 292.6963,611.4556 Q292.8131,611.27 292.875,611.215 Q292.9369,611.16 293.0125,611.16 Q293.1569,611.16 293.26,611.2769 Q293.37,611.3869 293.37,611.545 Q293.37,611.6963 292.9988,611.875 Q292.9988,612.1363 292.6481,612.2806 Q292.1875,612.48 291.6238,612.48 Q290.9638,612.48 290.4344,612.2463 Q290.0081,612.0606 289.7056,611.6619 Q289.41,611.2563 289.41,610.775 L289.41,610.3488 Q289.41,609.8469 289.6713,609.4206 Q289.9394,608.9875 290.4,608.7538 Q290.8675,608.52 291.39,608.52 Q291.7063,608.52 292.0088,608.6025 Q292.3113,608.685 292.49,608.96 Z " fill="#000000"/><text fill="#000000" font-family="Sarabun" font-size="7.04" lengthAdjust="spacing" textLength="61.16" x="297.66" y="612.7206">GroupColorScheme</text><line style="stroke:#181818;stroke-width:0.22;" x1="285.34" x2="359.7" y1="617.32" y2="617.32"/><text fill="#000000" font-family="Sarabun" font-size="7.04" lengthAdjust="spacing" textLength="7.92" x="287.54" y="625.4531">-id</text><text fill="#000000" font-family="Sarabun" font-size="7.04" lengthAdjust="spacing" textLength="44.44" x="287.54" y="633.3181">-colorShemeId</text><text fill="#000000" font-family="Sarabun" font-size="7.04" lengthAdjust="spacing" textLength="40.04" x="287.54" y="641.1831">-groupDataId</text><line style="stroke:#181818;stroke-width:0.22;" x1="285.34" x2="359.7" y1="644.435" y2="644.435"/><text fill="#000000" font-family="Sarabun" font-size="7.04" lengthAdjust="spacing" textLength="54.56" x="287.54" y="652.5681">+getOne() : object</text><text fill="#000000" font-family="Sarabun" font-size="7.04" lengthAdjust="spacing" textLength="46.2" x="287.54" y="660.4331">+getAll() : array</text><text fill="#000000" font-family="Sarabun" font-size="7.04" lengthAdjust="spacing" textLength="51.48" x="287.54" y="668.2981">+create() : object</text><text fill="#000000" font-family="Sarabun" font-size="7.04" lengthAdjust="spacing" textLength="47.52" x="287.54" y="676.1631">+update() : void</text><text fill="#000000" font-family="Sarabun" font-size="7.04" lengthAdjust="spacing" textLength="45.32" x="287.54" y="684.0281">+delete() : void</text></g><ellipse cx="309.32" cy="455.62" fill="#181818" rx="0.88" ry="0.88" style="stroke:#181818;stroke-width:0.44;"/><!--link RoleEum to UserAccount--><g id="link_RoleEum_UserAccount"><path codeLine="162" d="M180.048,99.88 C188.2364,99.88 197.8548,99.88 207.1344,99.88 " fill="none" id="RoleEum-UserAccount" style="stroke:#181818;stroke-width:0.44;"/><text fill="#000000" font-family="Sarabun" font-size="7.04" lengthAdjust="spacing" textLength="11" x="188.1" y="97.0131">has</text><text fill="#000000" font-family="Sarabun" font-size="7.04" lengthAdjust="spacing" textLength="3.96" x="183.4537" y="98.2602">1</text><text fill="#000000" font-family="Sarabun" font-size="7.04" lengthAdjust="spacing" textLength="3.96" x="199.7811" y="98.473">1</text></g><!--reverse link GroupData to UserAccount--><g id="link_GroupData_UserAccount"><path codeLine="164" d="M244.64,336.754 C244.64,285.6964 244.64,227.2776 244.64,181.2888 " fill="none" id="GroupData-backto-UserAccount" style="stroke:#181818;stroke-width:0.44;"/><polygon fill="#181818" points="244.64,342.6236,246.4,339.9836,244.64,337.3436,242.88,339.9836,244.64,342.6236" style="stroke:#181818;stroke-width:0.44;"/><text fill="#000000" font-family="Sarabun" font-size="7.04" lengthAdjust="spacing" textLength="11" x="245.08" y="260.6931">has</text><text fill="#000000" font-family="Sarabun" font-size="7.04" lengthAdjust="spacing" textLength="3.96" x="240.615" y="337.6944">1</text><text fill="#000000" font-family="Sarabun" font-size="7.04" lengthAdjust="spacing" textLength="3.96" x="240.6027" y="190.9977">1</text></g><!--link GroupData to GroupTypeEnum--><g id="link_GroupData_GroupTypeEnum"><path codeLine="165" d="M239.9188,568.59 C238.9684,591.2456 238.0796,612.458 237.4812,626.7228 " fill="none" id="GroupData-GroupTypeEnum" style="stroke:#181818;stroke-width:0.44;"/><text fill="#000000" font-family="Sarabun" font-size="7.04" lengthAdjust="spacing" textLength="11" x="239.36" y="588.4931">has</text><text fill="#000000" font-family="Sarabun" font-size="7.04" lengthAdjust="spacing" textLength="3.96" x="235.7599" y="578.4353">1</text><text fill="#000000" font-family="Sarabun" font-size="7.04" lengthAdjust="spacing" textLength="3.96" x="233.3117" y="621.8296">1</text></g><!--link GroupData to apoint17--><g id="link_GroupData_apoint17"><path d="M293.0884,455.62 C298.276,455.62 305.7516,455.62 308.3696,455.62 " fill="none" id="GroupData-apoint17" style="stroke:#181818;stroke-width:0.44;"/><text fill="#000000" font-family="Sarabun" font-size="7.04" lengthAdjust="spacing" textLength="10.12" x="294.8223" y="453.4644">1..*</text></g><!--link apoint17 to ColorScheme--><g id="link_apoint17_ColorScheme"><path d="M310.332,455.62 C312.202,455.62 316.3336,455.62 319.8228,455.62 " fill="none" id="apoint17-to-ColorScheme" style="stroke:#181818;stroke-width:0.44;"/><polygon fill="#181818" points="325.5472,455.62,322.9072,453.86,320.2672,455.62,322.9072,457.38,325.5472,455.62" style="stroke:#181818;stroke-width:0.44;"/><text fill="#000000" font-family="Sarabun" font-size="7.04" lengthAdjust="spacing" textLength="10.12" x="313.7636" y="453.2728">1..*</text></g><!--link apoint17 to GroupColorScheme--><g id="link_apoint17_GroupColorScheme"><path d="M309.3596,456.6012 C309.8876,464.2044 315.8936,550.0792 319.6072,603.1696 " fill="none" id="apoint17-GroupColorScheme" style="stroke:#181818;stroke-width:0.44;stroke-dasharray:7.0,7.0;"/></g><!--link Product to GroupData--><g id="link_Product_GroupData"><path codeLine="169" d="M165.8052,455.62 C175.3356,455.62 185.944,455.62 196.2092,455.62 " fill="none" id="Product-GroupData" style="stroke:#181818;stroke-width:0.44;"/><text fill="#000000" font-family="Sarabun" font-size="7.04" lengthAdjust="spacing" textLength="14.52" x="173.69" y="452.7531">have</text><text fill="#000000" font-family="Sarabun" font-size="7.04" lengthAdjust="spacing" textLength="10.12" x="169.1883" y="462.336">0..*</text><text fill="#000000" font-family="Sarabun" font-size="7.04" lengthAdjust="spacing" textLength="3.96" x="188.7047" y="454.2676">1</text></g><!--link UserAccount to ColorScheme--><g id="link_UserAccount_ColorScheme"><path codeLine="171" d="M269.94,181.2888 C291.0468,248.842 320.5312,343.2 338.8044,401.6804 " fill="none" id="UserAccount-ColorScheme" style="stroke:#181818;stroke-width:0.44;"/><text fill="#000000" font-family="Sarabun" font-size="7.04" lengthAdjust="spacing" textLength="46.2" x="309.76" y="260.6931">admin-manage</text><text fill="#000000" font-family="Sarabun" font-size="7.04" lengthAdjust="spacing" textLength="3.96" x="266.8909" y="190.9977">1</text><text fill="#000000" font-family="Sarabun" font-size="7.04" lengthAdjust="spacing" textLength="2.64" x="334.9526" y="396.7167">*</text></g><!--link UserAccount to Category--><g id="link_UserAccount_Category"><path codeLine="172" d="M207.174,153.758 C196.5832,168.8632 187.88,181.28 187.88,181.28 C187.88,181.28 69.52,208.12 69.52,208.12 C69.52,208.12 54.89,328.9088 46.09,401.5704 " fill="none" id="UserAccount-Category" style="stroke:#181818;stroke-width:0.44;"/><text fill="#000000" font-family="Sarabun" font-size="7.04" lengthAdjust="spacing" textLength="25.08" x="69.96" y="260.6931">manage</text><text fill="#000000" font-family="Sarabun" font-size="7.04" lengthAdjust="spacing" textLength="3.96" x="199.7008" y="157.1386">1</text><text fill="#000000" font-family="Sarabun" font-size="7.04" lengthAdjust="spacing" textLength="2.64" x="43.7812" y="396.779">*</text></g><!--reverse link Category to Product--><g id="link_Category_Product"><path codeLine="174" d="M75.4204,455.62 C83.5032,455.62 92.048,455.62 100.0032,455.62 " fill="none" id="Category-backto-Product" style="stroke:#181818;stroke-width:0.44;"/><polygon fill="#181818" points="69.63,455.62,72.27,457.38,74.91,455.62,72.27,453.86,69.63,455.62" style="stroke:#181818;stroke-width:0.44;"/><text fill="#000000" font-family="Sarabun" font-size="7.04" lengthAdjust="spacing" textLength="14.52" x="77.55" y="452.7531">have</text><text fill="#000000" font-family="Sarabun" font-size="7.04" lengthAdjust="spacing" textLength="3.96" x="73.1311" y="454.1341">1</text><text fill="#000000" font-family="Sarabun" font-size="7.04" lengthAdjust="spacing" textLength="10.12" x="86.5045" y="462.336">0..*</text></g><!--link ProductImage to Product--><g id="link_ProductImage_Product"><path codeLine="175" d="M132.88,308.0044 C132.88,332.2792 132.88,361.8824 132.88,388.1504 " fill="none" id="ProductImage-to-Product" style="stroke:#181818;stroke-width:0.44;"/><polygon fill="#181818" points="132.88,393.8792,134.64,391.2392,132.88,388.5992,131.12,391.2392,132.88,393.8792" style="stroke:#181818;stroke-width:0.44;"/><text fill="#000000" font-family="Sarabun" font-size="7.04" lengthAdjust="spacing" textLength="14.52" x="133.32" y="328.0131">have</text><text fill="#000000" font-family="Sarabun" font-size="7.04" lengthAdjust="spacing" textLength="10.12" x="122.4358" y="317.8325">1..*</text><text fill="#000000" font-family="Sarabun" font-size="7.04" lengthAdjust="spacing" textLength="3.96" x="128.8055" y="388.9931">1</text></g><!--SRC=[tLRDhXir55xZfx1cCsrAxhtTi8XW4PAqP75_T4CVmF7uJamzziZZIPj29Nwwe9LO8YXKY5An0LK2r8h9s_XHi9sPP7uSnAKBTCaczdVEiO-_xyonmuLIQJOuF4mPuYfFs04MoI5cAClw4KMnH0a06KQCm9j78BjBUOeC1YDoWNAcRWckJb12uCoWyvpxFMRqWGb_1u0KuRie9Z0OsGtWUBD103y6jK16EL6hbC1Ki9MTWD1Z558jH3tCvJnKIj9vhiWK2-wsFGBXXyR_BRZvpLR9N30GJkuhmZCgk3Ey-qc_3yAHI5AHKMNHdWM6SIn9Z1mWB020smNUoOWSOYnohapkTeK-f14Sm3odKJdFZG-tr0nWPfBYSOalKBOuCulS4p9gsn1MT8aKiOQv48mWNbgacHZmtFnDygG4VSjdkNVNT25u1oG9egmDIfA8fIU3M8ey7IE5fb7Zd5WIc_5GcOZ8ZAhZfr4JTlWD61DroicrwmOMyuy8LZjyo9Z3aPHeLSARrRlkc-KTlXHbBZTCpJ5IHn-2a0j582CNQW1ryPqkVjV5LxfueelNkdYcYxLUFzRhBoooVbp9Uxiwwbvn7Had7fwTmHQSCToknXE-bSnKFyUhVwyE4x5eOtF4EP5jT4aalQ0U8HTSj5qfOoQnzbQ8jo4fKDGjkFcOMWIhbYNomwaKIyfnvxmFQ3eIKJSBrU60nsteAXJXN2Wb4bk6d-dYPrqKUlsbBfxloj0E3FvA5r_hubTTlD35dxfu2Ut8cl_GnLDTFAh6pwh1Jsxmqgtro8KPy3a0n9HTrJ6sbNmyENv_SbvEXkFZwOb9SEFQgDTjmDdvwVZEQ1io- -3qp4PKtygP556EzxT1RpCoLM71Y62Q85QL2ybmHrV3RopaolOSazISoFz1Dv8qNhXsz8iJ-rAQDaYV9lOotSSyTTRkn-SYMxvNWJObKalQZuwA7zw0lL5PL4tc6kNbgrfVVJgEhs0lsfRWzuwTt_JwKyViDsz2gs12pl229EHItG1ZshbK5kJ-LMpncn9TV-w8VEguV5sdIXVVkl4BDtxYGDFhNpKU7duUAnQSqTgcKRSL_aTdX-_vVt2OPG9Jzu26jvYuvtC4eFwQ3cu6i6-VQtqth6wl0GpCkpa0OFSqisRpIdV_zHKgrwPdwTYyudok1mSzu-s-ZtwlcjSa0TUstc_NyUlme2CV0DNj61pLrzsbuZPrQIn9u672k3QtjyueIYZl9uYRtXDuOigWgikPYCgtauzZkkVYwlwRT1gtJCLCwLqjjCiz164dbJprosXysqBkDFU9sNB_Ep73hffU7SFB26aIRbEtLqKV4Vz0nt2dGD1hV0J7nDvCTHrzwUnJCVJAM1E-A-L3y1S0]--></g></svg>