<?xml version="1.0" encoding="UTF-8" standalone="no"?><svg xmlns="http://www.w3.org/2000/svg" xmlns:xlink="http://www.w3.org/1999/xlink" contentStyleType="text/css" height="459.8px" preserveAspectRatio="none" style="width:398px;height:459px;background:#FFFFFF;" version="1.1" viewBox="0 0 398 459" width="398.2px" zoomAndPan="magnify"><defs/><g><!--MD5=[873670755c6433d3512a8b316aa6820d]
class UserAccount--><g id="elem_UserAccount"><rect codeLine="15" fill="#F1F1F1" height="103.7025" id="UserAccount" rx="1.1" ry="1.1" style="stroke:#181818;stroke-width:0.22;" width="124.96" x="270.16" y="160.82"/><ellipse cx="313.17" cy="167.86" fill="#ADD1B2" rx="4.84" ry="4.84" style="stroke:#181818;stroke-width:0.44;"/><path d="M314.05,166.32 Q314.1394,166.1 314.2425,165.99 Q314.3456,165.88 314.4625,165.88 Q314.6688,165.88 314.7994,166.0038 Q314.93,166.1275 314.93,166.4163 L314.93,167.1038 Q314.93,167.3925 314.8063,167.5163 Q314.6825,167.64 314.49,167.64 Q314.3181,167.64 314.2081,167.5644 Q314.0981,167.4888 314.05,167.2894 Q314.0294,167.1519 313.9538,167.0763 Q313.8163,166.9319 313.5688,166.8494 Q313.3213,166.76 313.0738,166.76 Q312.7644,166.76 312.5031,166.8838 Q312.2488,167.0075 312.0494,167.2825 Q311.85,167.5575 311.85,167.9356 L311.85,168.3413 Q311.85,168.795 312.2213,169.0975 Q312.5925,169.4 313.2525,169.4 Q313.6444,169.4 313.9194,169.3106 Q314.0775,169.2625 314.2563,169.1044 Q314.3731,169.015 314.435,168.9875 Q314.4969,168.96 314.5725,168.96 Q314.7169,168.96 314.82,169.0769 Q314.93,169.1869 314.93,169.345 Q314.93,169.4963 314.7788,169.675 Q314.5588,169.9363 314.2081,170.0806 Q313.7475,170.28 313.1838,170.28 Q312.5238,170.28 311.9944,170.0188 Q311.5681,169.8125 311.2656,169.3656 Q310.97,168.9188 310.97,168.3894 L310.97,167.9081 Q310.97,167.3581 311.2313,166.8769 Q311.4994,166.3956 311.96,166.1413 Q312.4275,165.88 312.95,165.88 Q313.2663,165.88 313.5413,165.99 Q313.8163,166.1 314.05,166.32 Z " fill="#000000"/><text fill="#000000" font-family="sans-serif" font-size="6.16" lengthAdjust="spacing" textLength="35.2" x="322.19" y="169.9955">UserAccount</text><line style="stroke:#181818;stroke-width:0.22;" x1="270.6" x2="394.68" y1="174.9" y2="174.9"/><text fill="#000000" font-family="sans-serif" font-size="6.16" lengthAdjust="spacing" textLength="24.2" x="272.8" y="182.2365">-id : uuid</text><text fill="#000000" font-family="sans-serif" font-size="6.16" lengthAdjust="spacing" textLength="50.6" x="272.8" y="189.1184">-username : string</text><text fill="#000000" font-family="sans-serif" font-size="6.16" lengthAdjust="spacing" textLength="63.36" x="272.8" y="196.0002">-hashPassword : string</text><text fill="#000000" font-family="sans-serif" font-size="6.16" lengthAdjust="spacing" textLength="51.04" x="272.8" y="202.8821">-isActive : boolean</text><text fill="#000000" font-family="sans-serif" font-size="6.16" lengthAdjust="spacing" textLength="43.12" x="272.8" y="209.764">-role : RoleEum</text><text fill="#000000" font-family="sans-serif" font-size="6.16" lengthAdjust="spacing" textLength="46.64" x="272.8" y="216.6459">-createdAt : date</text><text fill="#000000" font-family="sans-serif" font-size="6.16" lengthAdjust="spacing" textLength="48.4" x="272.8" y="223.5277">-updatedAt : date</text><line style="stroke:#181818;stroke-width:0.22;" x1="270.6" x2="394.68" y1="226.5931" y2="226.5931"/><text fill="#000000" font-family="sans-serif" font-size="6.16" lengthAdjust="spacing" textLength="119.68" x="272.8" y="233.9296">+getOneUserAccount() : UserAccountEntity</text><text fill="#000000" font-family="sans-serif" font-size="6.16" lengthAdjust="spacing" textLength="117.92" x="272.8" y="240.8115">+getAllUserAccount() : UserAccountEntity[]</text><text fill="#000000" font-family="sans-serif" font-size="6.16" lengthAdjust="spacing" textLength="116.6" x="272.8" y="247.6934">+createUserAccount() : UserAccountEntity</text><text fill="#000000" font-family="sans-serif" font-size="6.16" lengthAdjust="spacing" textLength="79.2" x="272.8" y="254.5752">+updateUserAccount() : void</text><text fill="#000000" font-family="sans-serif" font-size="6.16" lengthAdjust="spacing" textLength="77" x="272.8" y="261.4571">+deleteUserAccount() : void</text></g><!--MD5=[db6d18d8099558415abc41d00477ab92]
class Admin--><g id="elem_Admin"><rect codeLine="31" fill="#F1F1F1" height="117.4663" id="Admin" rx="1.1" ry="1.1" style="stroke:#181818;stroke-width:0.22;" width="88.88" x="155.76" y="154"/><ellipse cx="189.75" cy="161.04" fill="#ADD1B2" rx="4.84" ry="4.84" style="stroke:#181818;stroke-width:0.44;"/><path d="M190.63,159.5 Q190.7194,159.28 190.8225,159.17 Q190.9256,159.06 191.0425,159.06 Q191.2488,159.06 191.3794,159.1838 Q191.51,159.3075 191.51,159.5963 L191.51,160.2838 Q191.51,160.5725 191.3863,160.6963 Q191.2625,160.82 191.07,160.82 Q190.8981,160.82 190.7881,160.7444 Q190.6781,160.6688 190.63,160.4694 Q190.6094,160.3319 190.5338,160.2563 Q190.3963,160.1119 190.1488,160.0294 Q189.9013,159.94 189.6538,159.94 Q189.3444,159.94 189.0831,160.0638 Q188.8288,160.1875 188.6294,160.4625 Q188.43,160.7375 188.43,161.1156 L188.43,161.5213 Q188.43,161.975 188.8013,162.2775 Q189.1725,162.58 189.8325,162.58 Q190.2244,162.58 190.4994,162.4906 Q190.6575,162.4425 190.8363,162.2844 Q190.9531,162.195 191.015,162.1675 Q191.0769,162.14 191.1525,162.14 Q191.2969,162.14 191.4,162.2569 Q191.51,162.3669 191.51,162.525 Q191.51,162.6763 191.3588,162.855 Q191.1388,163.1163 190.7881,163.2606 Q190.3275,163.46 189.7638,163.46 Q189.1038,163.46 188.5744,163.1988 Q188.1481,162.9925 187.8456,162.5456 Q187.55,162.0988 187.55,161.5694 L187.55,161.0881 Q187.55,160.5381 187.8113,160.0569 Q188.0794,159.5756 188.54,159.3213 Q189.0075,159.06 189.53,159.06 Q189.8463,159.06 190.1213,159.17 Q190.3963,159.28 190.63,159.5 Z " fill="#000000"/><text fill="#000000" font-family="sans-serif" font-size="6.16" lengthAdjust="spacing" textLength="17.16" x="198.77" y="163.1755">Admin</text><line style="stroke:#181818;stroke-width:0.22;" x1="156.2" x2="244.2" y1="168.08" y2="168.08"/><text fill="#000000" font-family="sans-serif" font-size="6.16" lengthAdjust="spacing" textLength="24.2" x="158.4" y="175.4165">-id : uuid</text><text fill="#000000" font-family="sans-serif" font-size="6.16" lengthAdjust="spacing" textLength="38.28" x="158.4" y="182.2984">-name : string</text><text fill="#000000" font-family="sans-serif" font-size="6.16" lengthAdjust="spacing" textLength="47.08" x="158.4" y="189.1802">-surname : string</text><text fill="#000000" font-family="sans-serif" font-size="6.16" lengthAdjust="spacing" textLength="40.48" x="158.4" y="196.0621">-phone : string</text><text fill="#000000" font-family="sans-serif" font-size="6.16" lengthAdjust="spacing" textLength="37.4" x="158.4" y="202.944">-email : string</text><text fill="#000000" font-family="sans-serif" font-size="6.16" lengthAdjust="spacing" textLength="44.88" x="158.4" y="209.8259">-addressId: uuid</text><text fill="#000000" font-family="sans-serif" font-size="6.16" lengthAdjust="spacing" textLength="57.2" x="158.4" y="216.7077">-userAccountId: uuid</text><text fill="#000000" font-family="sans-serif" font-size="6.16" lengthAdjust="spacing" textLength="46.64" x="158.4" y="223.5896">-createdAt : date</text><text fill="#000000" font-family="sans-serif" font-size="6.16" lengthAdjust="spacing" textLength="48.4" x="158.4" y="230.4715">-updatedAt : date</text><line style="stroke:#181818;stroke-width:0.22;" x1="156.2" x2="244.2" y1="233.5369" y2="233.5369"/><text fill="#000000" font-family="sans-serif" font-size="6.16" lengthAdjust="spacing" textLength="83.6" x="158.4" y="240.8734">+getOneAdmin() : AdminEntity</text><text fill="#000000" font-family="sans-serif" font-size="6.16" lengthAdjust="spacing" textLength="81.84" x="158.4" y="247.7552">+getAllAdmin() : AdminEntity[]</text><text fill="#000000" font-family="sans-serif" font-size="6.16" lengthAdjust="spacing" textLength="80.52" x="158.4" y="254.6371">+createAdmin() : AdminEntity</text><text fill="#000000" font-family="sans-serif" font-size="6.16" lengthAdjust="spacing" textLength="61.16" x="158.4" y="261.519">+updateAdmin() : void</text><text fill="#000000" font-family="sans-serif" font-size="6.16" lengthAdjust="spacing" textLength="58.96" x="158.4" y="268.4009">+deleteAdmin() : void</text></g><!--MD5=[3fd616f346a44cd59a91eb10b19e157c]
class User--><g id="elem_User"><rect codeLine="49" fill="#F1F1F1" height="131.23" id="User" rx="1.1" ry="1.1" style="stroke:#181818;stroke-width:0.22;" width="80.08" x="152.24" y="315.26"/><ellipse cx="184.03" cy="322.3" fill="#ADD1B2" rx="4.84" ry="4.84" style="stroke:#181818;stroke-width:0.44;"/><path d="M184.91,320.76 Q184.9994,320.54 185.1025,320.43 Q185.2056,320.32 185.3225,320.32 Q185.5288,320.32 185.6594,320.4438 Q185.79,320.5675 185.79,320.8563 L185.79,321.5438 Q185.79,321.8325 185.6663,321.9563 Q185.5425,322.08 185.35,322.08 Q185.1781,322.08 185.0681,322.0044 Q184.9581,321.9288 184.91,321.7294 Q184.8894,321.5919 184.8138,321.5163 Q184.6763,321.3719 184.4288,321.2894 Q184.1813,321.2 183.9338,321.2 Q183.6244,321.2 183.3631,321.3238 Q183.1088,321.4475 182.9094,321.7225 Q182.71,321.9975 182.71,322.3756 L182.71,322.7813 Q182.71,323.235 183.0813,323.5375 Q183.4525,323.84 184.1125,323.84 Q184.5044,323.84 184.7794,323.7506 Q184.9375,323.7025 185.1163,323.5444 Q185.2331,323.455 185.295,323.4275 Q185.3569,323.4 185.4325,323.4 Q185.5769,323.4 185.68,323.5169 Q185.79,323.6269 185.79,323.785 Q185.79,323.9363 185.6388,324.115 Q185.4188,324.3763 185.0681,324.5206 Q184.6075,324.72 184.0438,324.72 Q183.3838,324.72 182.8544,324.4588 Q182.4281,324.2525 182.1256,323.8056 Q181.83,323.3588 181.83,322.8294 L181.83,322.3481 Q181.83,321.7981 182.0913,321.3169 Q182.3594,320.8356 182.82,320.5813 Q183.2875,320.32 183.81,320.32 Q184.1263,320.32 184.4013,320.43 Q184.6763,320.54 184.91,320.76 Z " fill="#000000"/><text fill="#000000" font-family="sans-serif" font-size="6.16" lengthAdjust="spacing" textLength="12.76" x="193.05" y="324.4355">User</text><line style="stroke:#181818;stroke-width:0.22;" x1="152.68" x2="231.88" y1="329.34" y2="329.34"/><text fill="#000000" font-family="sans-serif" font-size="6.16" lengthAdjust="spacing" textLength="24.2" x="154.88" y="336.6765">-id : uuid</text><text fill="#000000" font-family="sans-serif" font-size="6.16" lengthAdjust="spacing" textLength="52.36" x="154.88" y="343.5584">-shopName : string</text><text fill="#000000" font-family="sans-serif" font-size="6.16" lengthAdjust="spacing" textLength="54.56" x="154.88" y="350.4402">-shopOwner : string</text><text fill="#000000" font-family="sans-serif" font-size="6.16" lengthAdjust="spacing" textLength="40.48" x="154.88" y="357.3221">-phone : string</text><text fill="#000000" font-family="sans-serif" font-size="6.16" lengthAdjust="spacing" textLength="37.4" x="154.88" y="364.204">-email : string</text><text fill="#000000" font-family="sans-serif" font-size="6.16" lengthAdjust="spacing" textLength="32.56" x="154.88" y="371.0859">-img : string</text><text fill="#000000" font-family="sans-serif" font-size="6.16" lengthAdjust="spacing" textLength="43.12" x="154.88" y="377.9677">-role : RoleEum</text><text fill="#000000" font-family="sans-serif" font-size="6.16" lengthAdjust="spacing" textLength="44.88" x="154.88" y="384.8496">-addressId: uuid</text><text fill="#000000" font-family="sans-serif" font-size="6.16" lengthAdjust="spacing" textLength="57.2" x="154.88" y="391.7315">-userAccountId: uuid</text><text fill="#000000" font-family="sans-serif" font-size="6.16" lengthAdjust="spacing" textLength="46.64" x="154.88" y="398.6134">-createdAt : date</text><text fill="#000000" font-family="sans-serif" font-size="6.16" lengthAdjust="spacing" textLength="48.4" x="154.88" y="405.4952">-updatedAt : date</text><line style="stroke:#181818;stroke-width:0.22;" x1="152.68" x2="231.88" y1="408.5606" y2="408.5606"/><text fill="#000000" font-family="sans-serif" font-size="6.16" lengthAdjust="spacing" textLength="74.8" x="154.88" y="415.8971">+getOneUser() : UserEntity</text><text fill="#000000" font-family="sans-serif" font-size="6.16" lengthAdjust="spacing" textLength="73.04" x="154.88" y="422.779">+getAllUser() : UserEntity[]</text><text fill="#000000" font-family="sans-serif" font-size="6.16" lengthAdjust="spacing" textLength="71.72" x="154.88" y="429.6609">+createUser() : UserEntity</text><text fill="#000000" font-family="sans-serif" font-size="6.16" lengthAdjust="spacing" textLength="56.76" x="154.88" y="436.5427">+updateUser() : void</text><text fill="#000000" font-family="sans-serif" font-size="6.16" lengthAdjust="spacing" textLength="54.56" x="154.88" y="443.4246">+deleteUser() : void</text></g><!--MD5=[6a70b97d4bdd4fae93e5ca72a4dac6ea]
class RoleEum--><g id="elem_RoleEum"><rect codeLine="69" fill="#F1F1F1" height="34.8838" id="RoleEum" rx="1.1" ry="1.1" style="stroke:#181818;stroke-width:0.22;" width="39.16" x="313.06" y="44.44"/><ellipse cx="319.66" cy="51.48" fill="#EB937F" rx="4.84" ry="4.84" style="stroke:#181818;stroke-width:0.44;"/><path d="M319,51.92 L319,52.8 L320.76,52.8 L320.76,52.36 L320.76,52.1469 L321.035,51.92 L321.2,51.92 L321.365,51.92 L321.64,52.1469 L321.64,52.36 L321.64,53.68 L318.12,53.68 L317.9069,53.68 L317.68,53.405 L317.68,53.24 L317.68,53.075 L317.9069,52.8 L318.12,52.8 L318.12,52.8 L318.12,50.16 L318.12,50.16 L317.9069,50.16 L317.68,49.885 L317.68,49.72 L317.68,49.555 L317.9069,49.28 L318.12,49.28 L321.64,49.28 L321.64,50.6 L321.64,50.8131 L321.365,51.04 L321.2,51.04 L321.035,51.04 L320.76,50.8131 L320.76,50.6 L320.76,50.16 L319,50.16 L319,51.04 L319.44,51.04 L319.44,50.8269 L319.44,50.8269 L319.715,50.6 L319.88,50.6 L320.045,50.6 L320.32,50.8269 L320.32,51.04 L320.32,51.92 L320.32,52.1331 L320.045,52.36 L320.045,52.36 L319.88,52.36 L319.715,52.36 L319.44,52.1331 L319.44,52.1331 L319.44,51.92 L319,51.92 Z " fill="#000000"/><text fill="#000000" font-family="sans-serif" font-size="6.16" lengthAdjust="spacing" textLength="25.08" x="325.82" y="53.6155">RoleEum</text><line style="stroke:#181818;stroke-width:0.22;" x1="313.5" x2="351.78" y1="58.52" y2="58.52"/><text fill="#000000" font-family="sans-serif" font-size="6.16" lengthAdjust="spacing" textLength="18.48" x="315.7" y="65.8565">-USER</text><text fill="#000000" font-family="sans-serif" font-size="6.16" lengthAdjust="spacing" textLength="20.68" x="315.7" y="72.7384">-ADMIN</text><line style="stroke:#181818;stroke-width:0.22;" x1="313.5" x2="351.78" y1="75.8038" y2="75.8038"/></g><!--MD5=[0f39e4cb6f03951afbf6d14bd2505654]
class Address--><g id="elem_Address"><rect codeLine="74" fill="#F1F1F1" height="151.8756" id="Address" rx="1.1" ry="1.1" style="stroke:#181818;stroke-width:0.22;" width="100.32" x="257.84" y="304.92"/><ellipse cx="294.69" cy="311.96" fill="#ADD1B2" rx="4.84" ry="4.84" style="stroke:#181818;stroke-width:0.44;"/><path d="M295.57,310.42 Q295.6594,310.2 295.7625,310.09 Q295.8656,309.98 295.9825,309.98 Q296.1888,309.98 296.3194,310.1038 Q296.45,310.2275 296.45,310.5163 L296.45,311.2038 Q296.45,311.4925 296.3263,311.6163 Q296.2025,311.74 296.01,311.74 Q295.8381,311.74 295.7281,311.6644 Q295.6181,311.5888 295.57,311.3894 Q295.5494,311.2519 295.4738,311.1763 Q295.3363,311.0319 295.0888,310.9494 Q294.8413,310.86 294.5938,310.86 Q294.2844,310.86 294.0231,310.9838 Q293.7688,311.1075 293.5694,311.3825 Q293.37,311.6575 293.37,312.0356 L293.37,312.4413 Q293.37,312.895 293.7413,313.1975 Q294.1125,313.5 294.7725,313.5 Q295.1644,313.5 295.4394,313.4106 Q295.5975,313.3625 295.7763,313.2044 Q295.8931,313.115 295.955,313.0875 Q296.0169,313.06 296.0925,313.06 Q296.2369,313.06 296.34,313.1769 Q296.45,313.2869 296.45,313.445 Q296.45,313.5963 296.2988,313.775 Q296.0788,314.0363 295.7281,314.1806 Q295.2675,314.38 294.7038,314.38 Q294.0438,314.38 293.5144,314.1188 Q293.0881,313.9125 292.7856,313.4656 Q292.49,313.0188 292.49,312.4894 L292.49,312.0081 Q292.49,311.4581 292.7513,310.9769 Q293.0194,310.4956 293.48,310.2413 Q293.9475,309.98 294.47,309.98 Q294.7863,309.98 295.0613,310.09 Q295.3363,310.2 295.57,310.42 Z " fill="#000000"/><text fill="#000000" font-family="sans-serif" font-size="6.16" lengthAdjust="spacing" textLength="22.88" x="303.71" y="314.0955">Address</text><line style="stroke:#181818;stroke-width:0.22;" x1="258.28" x2="357.72" y1="319" y2="319"/><text fill="#000000" font-family="sans-serif" font-size="6.16" lengthAdjust="spacing" textLength="24.2" x="260.48" y="326.3365">-id : uuid</text><text fill="#000000" font-family="sans-serif" font-size="6.16" lengthAdjust="spacing" textLength="45.76" x="260.48" y="333.2184">-houseNo: string</text><text fill="#000000" font-family="sans-serif" font-size="6.16" lengthAdjust="spacing" textLength="36.96" x="260.48" y="340.1002">-village:string</text><text fill="#000000" font-family="sans-serif" font-size="6.16" lengthAdjust="spacing" textLength="46.2" x="260.48" y="346.9821">-villageNo: string</text><text fill="#000000" font-family="sans-serif" font-size="6.16" lengthAdjust="spacing" textLength="33" x="260.48" y="353.864">-lane: string</text><text fill="#000000" font-family="sans-serif" font-size="6.16" lengthAdjust="spacing" textLength="35.64" x="260.48" y="360.7459">-road : string</text><text fill="#000000" font-family="sans-serif" font-size="6.16" lengthAdjust="spacing" textLength="50.16" x="260.48" y="367.6277">-subDistrict: string</text><text fill="#000000" font-family="sans-serif" font-size="6.16" lengthAdjust="spacing" textLength="39.16" x="260.48" y="374.5096">-district: string</text><text fill="#000000" font-family="sans-serif" font-size="6.16" lengthAdjust="spacing" textLength="46.64" x="260.48" y="381.3915">-province : string</text><text fill="#000000" font-family="sans-serif" font-size="6.16" lengthAdjust="spacing" textLength="43.56" x="260.48" y="388.2734">-zipCode: string</text><text fill="#000000" font-family="sans-serif" font-size="6.16" lengthAdjust="spacing" textLength="29.48" x="260.48" y="395.1552">-lat : string</text><text fill="#000000" font-family="sans-serif" font-size="6.16" lengthAdjust="spacing" textLength="31.24" x="260.48" y="402.0371">-lng : string</text><text fill="#000000" font-family="sans-serif" font-size="6.16" lengthAdjust="spacing" textLength="46.64" x="260.48" y="408.919">-createdAt : date</text><text fill="#000000" font-family="sans-serif" font-size="6.16" lengthAdjust="spacing" textLength="48.4" x="260.48" y="415.8009">-updatedAt : date</text><line style="stroke:#181818;stroke-width:0.22;" x1="258.28" x2="357.72" y1="418.8663" y2="418.8663"/><text fill="#000000" font-family="sans-serif" font-size="6.16" lengthAdjust="spacing" textLength="95.04" x="260.48" y="426.2027">+getOneAddress() : AddressEntity</text><text fill="#000000" font-family="sans-serif" font-size="6.16" lengthAdjust="spacing" textLength="93.28" x="260.48" y="433.0846">+getAllAddress() : AddressEntity[]</text><text fill="#000000" font-family="sans-serif" font-size="6.16" lengthAdjust="spacing" textLength="91.96" x="260.48" y="439.9665">+createAddress() : AddressEntity</text><text fill="#000000" font-family="sans-serif" font-size="6.16" lengthAdjust="spacing" textLength="66.88" x="260.48" y="446.8484">+updateAddress() : void</text><text fill="#000000" font-family="sans-serif" font-size="6.16" lengthAdjust="spacing" textLength="64.68" x="260.48" y="453.7302">+deleteAddress() : void</text></g><!--MD5=[72136138052d025cffdce3c22fbd185f]
class Product--><g id="elem_Product"><rect codeLine="97" fill="#F1F1F1" height="110.5844" id="Product" rx="1.1" ry="1.1" style="stroke:#181818;stroke-width:0.22;" width="97.68" x="35.2" y="157.52"/><ellipse cx="71.39" cy="164.56" fill="#ADD1B2" rx="4.84" ry="4.84" style="stroke:#181818;stroke-width:0.44;"/><path d="M72.27,163.02 Q72.3594,162.8 72.4625,162.69 Q72.5656,162.58 72.6825,162.58 Q72.8888,162.58 73.0194,162.7038 Q73.15,162.8275 73.15,163.1163 L73.15,163.8038 Q73.15,164.0925 73.0263,164.2163 Q72.9025,164.34 72.71,164.34 Q72.5381,164.34 72.4281,164.2644 Q72.3181,164.1888 72.27,163.9894 Q72.2494,163.8519 72.1738,163.7763 Q72.0363,163.6319 71.7888,163.5494 Q71.5413,163.46 71.2938,163.46 Q70.9844,163.46 70.7231,163.5838 Q70.4688,163.7075 70.2694,163.9825 Q70.07,164.2575 70.07,164.6356 L70.07,165.0413 Q70.07,165.495 70.4413,165.7975 Q70.8125,166.1 71.4725,166.1 Q71.8644,166.1 72.1394,166.0106 Q72.2975,165.9625 72.4763,165.8044 Q72.5931,165.715 72.655,165.6875 Q72.7169,165.66 72.7925,165.66 Q72.9369,165.66 73.04,165.7769 Q73.15,165.8869 73.15,166.045 Q73.15,166.1963 72.9988,166.375 Q72.7788,166.6363 72.4281,166.7806 Q71.9675,166.98 71.4038,166.98 Q70.7438,166.98 70.2144,166.7188 Q69.7881,166.5125 69.4856,166.0656 Q69.19,165.6188 69.19,165.0894 L69.19,164.6081 Q69.19,164.0581 69.4513,163.5769 Q69.7194,163.0956 70.18,162.8413 Q70.6475,162.58 71.17,162.58 Q71.4863,162.58 71.7613,162.69 Q72.0363,162.8 72.27,163.02 Z " fill="#000000"/><text fill="#000000" font-family="sans-serif" font-size="6.16" lengthAdjust="spacing" textLength="21.56" x="80.41" y="166.6955">Product</text><line style="stroke:#181818;stroke-width:0.22;" x1="35.64" x2="132.44" y1="171.6" y2="171.6"/><text fill="#000000" font-family="sans-serif" font-size="6.16" lengthAdjust="spacing" textLength="24.2" x="37.84" y="178.9365">-id : uuid</text><text fill="#000000" font-family="sans-serif" font-size="6.16" lengthAdjust="spacing" textLength="38.28" x="37.84" y="185.8184">-name : string</text><text fill="#000000" font-family="sans-serif" font-size="6.16" lengthAdjust="spacing" textLength="42.24" x="37.84" y="192.7002">-price : decimal</text><text fill="#000000" font-family="sans-serif" font-size="6.16" lengthAdjust="spacing" textLength="36.08" x="37.84" y="199.5821">-desc : string</text><text fill="#000000" font-family="sans-serif" font-size="6.16" lengthAdjust="spacing" textLength="55.88" x="37.84" y="206.464">-categoryId: number</text><text fill="#000000" font-family="sans-serif" font-size="6.16" lengthAdjust="spacing" textLength="34.76" x="37.84" y="213.3459">-userId: uuid</text><text fill="#000000" font-family="sans-serif" font-size="6.16" lengthAdjust="spacing" textLength="46.64" x="37.84" y="220.2277">-createdAt : date</text><text fill="#000000" font-family="sans-serif" font-size="6.16" lengthAdjust="spacing" textLength="48.4" x="37.84" y="227.1096">-updatedAt : date</text><line style="stroke:#181818;stroke-width:0.22;" x1="35.64" x2="132.44" y1="230.175" y2="230.175"/><text fill="#000000" font-family="sans-serif" font-size="6.16" lengthAdjust="spacing" textLength="92.4" x="37.84" y="237.5115">+getOneProduct() : ProductEntity</text><text fill="#000000" font-family="sans-serif" font-size="6.16" lengthAdjust="spacing" textLength="90.64" x="37.84" y="244.3934">+getAllProduct() : ProductEntity[]</text><text fill="#000000" font-family="sans-serif" font-size="6.16" lengthAdjust="spacing" textLength="89.32" x="37.84" y="251.2752">+createProduct() : ProductEntity</text><text fill="#000000" font-family="sans-serif" font-size="6.16" lengthAdjust="spacing" textLength="65.56" x="37.84" y="258.1571">+updateProduct() : void</text><text fill="#000000" font-family="sans-serif" font-size="6.16" lengthAdjust="spacing" textLength="63.36" x="37.84" y="265.039">+deleteProduct() : void</text></g><!--MD5=[638658a6748aae92dbe5884a4d4bd659]
class ProductImage--><g id="elem_ProductImage"><rect codeLine="114" fill="#F1F1F1" height="89.9388" id="ProductImage" rx="1.1" ry="1.1" style="stroke:#181818;stroke-width:0.22;" width="131.12" x="3.08" y="16.94"/><ellipse cx="47.63" cy="23.98" fill="#ADD1B2" rx="4.84" ry="4.84" style="stroke:#181818;stroke-width:0.44;"/><path d="M48.51,22.44 Q48.5994,22.22 48.7025,22.11 Q48.8056,22 48.9225,22 Q49.1288,22 49.2594,22.1238 Q49.39,22.2475 49.39,22.5363 L49.39,23.2238 Q49.39,23.5125 49.2663,23.6363 Q49.1425,23.76 48.95,23.76 Q48.7781,23.76 48.6681,23.6844 Q48.5581,23.6088 48.51,23.4094 Q48.4894,23.2719 48.4138,23.1963 Q48.2763,23.0519 48.0288,22.9694 Q47.7813,22.88 47.5338,22.88 Q47.2244,22.88 46.9631,23.0038 Q46.7088,23.1275 46.5094,23.4025 Q46.31,23.6775 46.31,24.0556 L46.31,24.4613 Q46.31,24.915 46.6813,25.2175 Q47.0525,25.52 47.7125,25.52 Q48.1044,25.52 48.3794,25.4306 Q48.5375,25.3825 48.7163,25.2244 Q48.8331,25.135 48.895,25.1075 Q48.9569,25.08 49.0325,25.08 Q49.1769,25.08 49.28,25.1969 Q49.39,25.3069 49.39,25.465 Q49.39,25.6163 49.2388,25.795 Q49.0188,26.0563 48.6681,26.2006 Q48.2075,26.4 47.6438,26.4 Q46.9838,26.4 46.4544,26.1388 Q46.0281,25.9325 45.7256,25.4856 Q45.43,25.0388 45.43,24.5094 L45.43,24.0281 Q45.43,23.4781 45.6913,22.9969 Q45.9594,22.5156 46.42,22.2613 Q46.8875,22 47.41,22 Q47.7263,22 48.0013,22.11 Q48.2763,22.22 48.51,22.44 Z " fill="#000000"/><text fill="#000000" font-family="sans-serif" font-size="6.16" lengthAdjust="spacing" textLength="38.28" x="56.65" y="26.1155">ProductImage</text><line style="stroke:#181818;stroke-width:0.22;" x1="3.52" x2="133.76" y1="31.02" y2="31.02"/><text fill="#000000" font-family="sans-serif" font-size="6.16" lengthAdjust="spacing" textLength="24.2" x="5.72" y="38.3565">-id : uuid</text><text fill="#000000" font-family="sans-serif" font-size="6.16" lengthAdjust="spacing" textLength="39.6" x="5.72" y="45.2384">-image : string</text><text fill="#000000" font-family="sans-serif" font-size="6.16" lengthAdjust="spacing" textLength="45.32" x="5.72" y="52.1202">-productId : uuid</text><text fill="#000000" font-family="sans-serif" font-size="6.16" lengthAdjust="spacing" textLength="46.64" x="5.72" y="59.0021">-createdAt : date</text><text fill="#000000" font-family="sans-serif" font-size="6.16" lengthAdjust="spacing" textLength="48.4" x="5.72" y="65.884">-updatedAt : date</text><line style="stroke:#181818;stroke-width:0.22;" x1="3.52" x2="133.76" y1="68.9494" y2="68.9494"/><text fill="#000000" font-family="sans-serif" font-size="6.16" lengthAdjust="spacing" textLength="125.84" x="5.72" y="76.2859">+getOneProductImage() : ProductImageEntity</text><text fill="#000000" font-family="sans-serif" font-size="6.16" lengthAdjust="spacing" textLength="124.08" x="5.72" y="83.1677">+getAllProductImage() : ProductImageEntity[]</text><text fill="#000000" font-family="sans-serif" font-size="6.16" lengthAdjust="spacing" textLength="122.76" x="5.72" y="90.0496">+createProductImage() : ProductImageEntity</text><text fill="#000000" font-family="sans-serif" font-size="6.16" lengthAdjust="spacing" textLength="82.28" x="5.72" y="96.9315">+updateProductImage() : void</text><text fill="#000000" font-family="sans-serif" font-size="6.16" lengthAdjust="spacing" textLength="80.08" x="5.72" y="103.8134">+deleteProductImage() : void</text></g><!--MD5=[a96594a83e2ecdc78cbf17c2ddf01934]
class Category--><g id="elem_Category"><rect codeLine="128" fill="#F1F1F1" height="96.8206" id="Category" rx="1.1" ry="1.1" style="stroke:#181818;stroke-width:0.22;" width="105.6" x="31.24" y="332.42"/><ellipse cx="69.41" cy="339.46" fill="#ADD1B2" rx="4.84" ry="4.84" style="stroke:#181818;stroke-width:0.44;"/><path d="M70.29,337.92 Q70.3794,337.7 70.4825,337.59 Q70.5856,337.48 70.7025,337.48 Q70.9088,337.48 71.0394,337.6038 Q71.17,337.7275 71.17,338.0163 L71.17,338.7038 Q71.17,338.9925 71.0463,339.1163 Q70.9225,339.24 70.73,339.24 Q70.5581,339.24 70.4481,339.1644 Q70.3381,339.0888 70.29,338.8894 Q70.2694,338.7519 70.1938,338.6763 Q70.0563,338.5319 69.8088,338.4494 Q69.5613,338.36 69.3138,338.36 Q69.0044,338.36 68.7431,338.4838 Q68.4888,338.6075 68.2894,338.8825 Q68.09,339.1575 68.09,339.5356 L68.09,339.9413 Q68.09,340.395 68.4613,340.6975 Q68.8325,341 69.4925,341 Q69.8844,341 70.1594,340.9106 Q70.3175,340.8625 70.4963,340.7044 Q70.6131,340.615 70.675,340.5875 Q70.7369,340.56 70.8125,340.56 Q70.9569,340.56 71.06,340.6769 Q71.17,340.7869 71.17,340.945 Q71.17,341.0963 71.0188,341.275 Q70.7988,341.5363 70.4481,341.6806 Q69.9875,341.88 69.4238,341.88 Q68.7638,341.88 68.2344,341.6188 Q67.8081,341.4125 67.5056,340.9656 Q67.21,340.5188 67.21,339.9894 L67.21,339.5081 Q67.21,338.9581 67.4713,338.4769 Q67.7394,337.9956 68.2,337.7413 Q68.6675,337.48 69.19,337.48 Q69.5063,337.48 69.7813,337.59 Q70.0563,337.7 70.29,337.92 Z " fill="#000000"/><text fill="#000000" font-family="sans-serif" font-size="6.16" lengthAdjust="spacing" textLength="25.52" x="78.43" y="341.5955">Category</text><line style="stroke:#181818;stroke-width:0.22;" x1="31.68" x2="136.4" y1="346.5" y2="346.5"/><text fill="#000000" font-family="sans-serif" font-size="6.16" lengthAdjust="spacing" textLength="33.44" x="33.88" y="353.8365">-id : number</text><text fill="#000000" font-family="sans-serif" font-size="6.16" lengthAdjust="spacing" textLength="38.28" x="33.88" y="360.7184">-name : string</text><text fill="#000000" font-family="sans-serif" font-size="6.16" lengthAdjust="spacing" textLength="36.08" x="33.88" y="367.6002">-desc : string</text><text fill="#000000" font-family="sans-serif" font-size="6.16" lengthAdjust="spacing" textLength="37.84" x="33.88" y="374.4821">-image: string</text><text fill="#000000" font-family="sans-serif" font-size="6.16" lengthAdjust="spacing" textLength="46.64" x="33.88" y="381.364">-createdAt : date</text><text fill="#000000" font-family="sans-serif" font-size="6.16" lengthAdjust="spacing" textLength="48.4" x="33.88" y="388.2459">-updatedAt : date</text><line style="stroke:#181818;stroke-width:0.22;" x1="31.68" x2="136.4" y1="391.3113" y2="391.3113"/><text fill="#000000" font-family="sans-serif" font-size="6.16" lengthAdjust="spacing" textLength="100.32" x="33.88" y="398.6477">+getOneCategory() : CategoryEntity</text><text fill="#000000" font-family="sans-serif" font-size="6.16" lengthAdjust="spacing" textLength="98.56" x="33.88" y="405.5296">+getAllCategory() : CategoryEntity[]</text><text fill="#000000" font-family="sans-serif" font-size="6.16" lengthAdjust="spacing" textLength="97.24" x="33.88" y="412.4115">+createCategory() : CategoryEntity</text><text fill="#000000" font-family="sans-serif" font-size="6.16" lengthAdjust="spacing" textLength="69.52" x="33.88" y="419.2934">+updateCategory() : void</text><text fill="#000000" font-family="sans-serif" font-size="6.16" lengthAdjust="spacing" textLength="67.32" x="33.88" y="426.1752">+deleteCategory() : void</text></g><!--MD5=[a36d648812f934b36d05bf0cd5320ae2]
class IndigoTone--><g id="elem_IndigoTone"><rect codeLine="144" fill="#F1F1F1" height="117.4663" id="IndigoTone" rx="1.1" ry="1.1" style="stroke:#181818;stroke-width:0.22;" width="117.04" x="149.6" y="3.08"/><ellipse cx="190.63" cy="10.12" fill="#ADD1B2" rx="4.84" ry="4.84" style="stroke:#181818;stroke-width:0.44;"/><path d="M191.51,8.58 Q191.5994,8.36 191.7025,8.25 Q191.8056,8.14 191.9225,8.14 Q192.1288,8.14 192.2594,8.2638 Q192.39,8.3875 192.39,8.6763 L192.39,9.3638 Q192.39,9.6525 192.2663,9.7763 Q192.1425,9.9 191.95,9.9 Q191.7781,9.9 191.6681,9.8244 Q191.5581,9.7488 191.51,9.5494 Q191.4894,9.4119 191.4138,9.3363 Q191.2763,9.1919 191.0288,9.1094 Q190.7813,9.02 190.5338,9.02 Q190.2244,9.02 189.9631,9.1438 Q189.7088,9.2675 189.5094,9.5425 Q189.31,9.8175 189.31,10.1956 L189.31,10.6013 Q189.31,11.055 189.6813,11.3575 Q190.0525,11.66 190.7125,11.66 Q191.1044,11.66 191.3794,11.5706 Q191.5375,11.5225 191.7163,11.3644 Q191.8331,11.275 191.895,11.2475 Q191.9569,11.22 192.0325,11.22 Q192.1769,11.22 192.28,11.3369 Q192.39,11.4469 192.39,11.605 Q192.39,11.7563 192.2388,11.935 Q192.0188,12.1963 191.6681,12.3406 Q191.2075,12.54 190.6438,12.54 Q189.9838,12.54 189.4544,12.2788 Q189.0281,12.0725 188.7256,11.6256 Q188.43,11.1788 188.43,10.6494 L188.43,10.1681 Q188.43,9.6181 188.6913,9.1369 Q188.9594,8.6556 189.42,8.4013 Q189.8875,8.14 190.41,8.14 Q190.7263,8.14 191.0013,8.25 Q191.2763,8.36 191.51,8.58 Z " fill="#000000"/><text fill="#000000" font-family="sans-serif" font-size="6.16" lengthAdjust="spacing" textLength="31.24" x="199.65" y="12.2555">IndigoTone</text><line style="stroke:#181818;stroke-width:0.22;" x1="150.04" x2="266.2" y1="17.16" y2="17.16"/><text fill="#000000" font-family="sans-serif" font-size="6.16" lengthAdjust="spacing" textLength="24.2" x="152.24" y="24.4965">-id : uuid</text><text fill="#000000" font-family="sans-serif" font-size="6.16" lengthAdjust="spacing" textLength="38.28" x="152.24" y="31.3784">-name : string</text><text fill="#000000" font-family="sans-serif" font-size="6.16" lengthAdjust="spacing" textLength="33.88" x="152.24" y="38.2602">-ccid : string</text><text fill="#000000" font-family="sans-serif" font-size="6.16" lengthAdjust="spacing" textLength="32.56" x="152.24" y="45.1421">-hex : string</text><text fill="#000000" font-family="sans-serif" font-size="6.16" lengthAdjust="spacing" textLength="32.12" x="152.24" y="52.024">-red : string</text><text fill="#000000" font-family="sans-serif" font-size="6.16" lengthAdjust="spacing" textLength="39.16" x="152.24" y="58.9059">-green : string</text><text fill="#000000" font-family="sans-serif" font-size="6.16" lengthAdjust="spacing" textLength="34.76" x="152.24" y="65.7877">-blue : string</text><text fill="#000000" font-family="sans-serif" font-size="6.16" lengthAdjust="spacing" textLength="46.64" x="152.24" y="72.6696">-createdAt : date</text><text fill="#000000" font-family="sans-serif" font-size="6.16" lengthAdjust="spacing" textLength="48.4" x="152.24" y="79.5515">-updatedAt : date</text><line style="stroke:#181818;stroke-width:0.22;" x1="150.04" x2="266.2" y1="82.6169" y2="82.6169"/><text fill="#000000" font-family="sans-serif" font-size="6.16" lengthAdjust="spacing" textLength="111.76" x="152.24" y="89.9534">+getOneIndigoTone() : IndigoToneEntity</text><text fill="#000000" font-family="sans-serif" font-size="6.16" lengthAdjust="spacing" textLength="110" x="152.24" y="96.8352">+getAllIndigoTone() : IndigoToneEntity[]</text><text fill="#000000" font-family="sans-serif" font-size="6.16" lengthAdjust="spacing" textLength="108.68" x="152.24" y="103.7171">+createIndigoTone() : IndigoToneEntity</text><text fill="#000000" font-family="sans-serif" font-size="6.16" lengthAdjust="spacing" textLength="75.24" x="152.24" y="110.599">+updateIndigoTone() : void</text><text fill="#000000" font-family="sans-serif" font-size="6.16" lengthAdjust="spacing" textLength="73.04" x="152.24" y="117.4809">+deleteIndigoTone() : void</text></g><!--MD5=[899b9685cf0792bfe5183a86456c6e1c]
reverse link RoleEum to UserAccount--><g id="link_RoleEum_UserAccount"><path codeLine="164" d="M332.64,81.576 C332.64,101.4948 332.64,133.4124 332.64,160.7276 " fill="none" id="RoleEum-backto-UserAccount" style="stroke:#181818;stroke-width:0.44;"/><polygon fill="#181818" points="332.64,79.3276,330.88,83.2876,332.64,81.5276,334.4,83.2876,332.64,79.3276" style="stroke:#181818;stroke-width:0.44;"/><text fill="#000000" font-family="sans-serif" font-size="5.72" lengthAdjust="spacing" textLength="3.08" x="329.2953" y="88.0534">1</text><text fill="#000000" font-family="sans-serif" font-size="5.72" lengthAdjust="spacing" textLength="2.2" x="330.3661" y="156.0566">*</text></g><!--MD5=[6cb56ad2db0e14266f83041296b08dce]
link User to Address--><g id="link_User_Address"><path codeLine="166" d="M232.43,380.82 C238.7396,380.82 245.3616,380.82 251.9528,380.82 " fill="none" id="User-to-Address" style="stroke:#181818;stroke-width:0.44;"/><polygon fill="none" points="257.73,380.82,255.09,379.06,252.45,380.82,255.09,382.58,257.73,380.82" style="stroke:#181818;stroke-width:0.44;"/><text fill="#000000" font-family="sans-serif" font-size="5.72" lengthAdjust="spacing" textLength="9.24" x="240.46" y="378.0782">has</text><text fill="#000000" font-family="sans-serif" font-size="5.72" lengthAdjust="spacing" textLength="3.08" x="235.8825" y="379.5881">1</text><text fill="#000000" font-family="sans-serif" font-size="5.72" lengthAdjust="spacing" textLength="3.08" x="251.169" y="379.6364">1</text></g><!--MD5=[acc5d6138a8093b722b97abeb547904e]
reverse link UserAccount to User--><g id="link_UserAccount_User"><path codeLine="167" d="M281.3536,269.0248 C270.9344,280.742 260.1676,293.1236 250.36,304.92 C244.442,312.0392 238.3348,319.6556 232.4036,327.2104 " fill="none" id="UserAccount-backto-User" style="stroke:#181818;stroke-width:0.44;"/><polygon fill="#181818" points="285.1728,264.7392,282.1024,265.5392,281.6599,268.681,284.7303,267.8811,285.1728,264.7392" style="stroke:#181818;stroke-width:0.44;"/><text fill="#000000" font-family="sans-serif" font-size="5.72" lengthAdjust="spacing" textLength="9.24" x="265.76" y="290.2982">has</text><text fill="#000000" font-family="sans-serif" font-size="5.72" lengthAdjust="spacing" textLength="3.08" x="279.1064" y="273.285">1</text><text fill="#000000" font-family="sans-serif" font-size="5.72" lengthAdjust="spacing" textLength="3.08" x="235.8539" y="321.5389">1</text></g><!--MD5=[0927e2f55b3f57f64d0ed91b540b5ff6]
link Product to User--><g id="link_Product_User"><path codeLine="169" d="M120.604,267.9864 C128.6164,280.1128 137.016,292.9256 144.76,304.92 C147.1976,308.6908 149.688,312.576 152.196,316.5008 " fill="none" id="Product-User" style="stroke:#181818;stroke-width:0.44;"/><text fill="#000000" font-family="sans-serif" font-size="5.72" lengthAdjust="spacing" textLength="11.44" x="135.08" y="290.2982">have</text><text fill="#000000" font-family="sans-serif" font-size="5.72" lengthAdjust="spacing" textLength="8.8" x="113.764" y="276.7214">0..*</text><text fill="#000000" font-family="sans-serif" font-size="5.72" lengthAdjust="spacing" textLength="3.08" x="146.0592" y="310.5738">1</text></g><!--MD5=[aefb2128b9882c7b1924ec6cfaf7c7d9]
link Admin to UserAccount--><g id="link_Admin_UserAccount"><path codeLine="171" d="M244.6708,212.74 C251.0024,212.74 257.6376,212.74 264.2992,212.74 " fill="none" id="Admin-to-UserAccount" style="stroke:#181818;stroke-width:0.44;"/><polygon fill="#181818" points="270.1556,212.74,267.5156,210.98,264.8756,212.74,267.5156,214.5,270.1556,212.74" style="stroke:#181818;stroke-width:0.44;"/><text fill="#000000" font-family="sans-serif" font-size="5.72" lengthAdjust="spacing" textLength="9.24" x="252.78" y="209.9982">has</text><text fill="#000000" font-family="sans-serif" font-size="5.72" lengthAdjust="spacing" textLength="3.08" x="248.1935" y="211.5317">1</text><text fill="#000000" font-family="sans-serif" font-size="5.72" lengthAdjust="spacing" textLength="3.08" x="263.5743" y="211.5998">1</text></g><!--MD5=[1334f053138c9a2c0e8359c4e9b236a2]
link Admin to Address--><g id="link_Admin_Address"><path codeLine="172" d="M237.8288,271.5416 C243.7512,280.7288 249.964,290.3648 256.1416,299.9436 " fill="none" id="Admin-to-Address" style="stroke:#181818;stroke-width:0.44;"/><polygon fill="#181818" points="259.2656,304.7924,259.313,301.6199,256.4028,300.3559,256.3553,303.5284,259.2656,304.7924" style="stroke:#181818;stroke-width:0.44;"/><text fill="#000000" font-family="sans-serif" font-size="5.72" lengthAdjust="spacing" textLength="9.24" x="247.72" y="290.2982">has</text><text fill="#000000" font-family="sans-serif" font-size="5.72" lengthAdjust="spacing" textLength="3.08" x="236.7224" y="280.1106">1</text><text fill="#000000" font-family="sans-serif" font-size="5.72" lengthAdjust="spacing" textLength="3.08" x="253.9075" y="300.2295">1</text></g><!--MD5=[ad17bcdf4bc69984fce8382eba0f2929]
link IndigoTone to Admin--><g id="link_IndigoTone_Admin"><path codeLine="174" d="M205.0356,120.7008 C204.4592,131.5996 203.8564,142.9956 203.2844,153.8988 " fill="none" id="IndigoTone-Admin" style="stroke:#181818;stroke-width:0.44;"/><text fill="#000000" font-family="sans-serif" font-size="5.72" lengthAdjust="spacing" textLength="20.24" x="204.6" y="139.3782">manage</text><text fill="#000000" font-family="sans-serif" font-size="5.72" lengthAdjust="spacing" textLength="2.2" x="202.6068" y="129.2741">*</text><text fill="#000000" font-family="sans-serif" font-size="5.72" lengthAdjust="spacing" textLength="3.08" x="200.2937" y="149.3442">1</text></g><!--MD5=[e1157d990c71223888f6eba0861fc13e]
link Admin to Category--><g id="link_Admin_Category"><path codeLine="175" d="M163.9176,271.6296 C159.4692,278.454 154.924,285.2784 150.48,291.72 C141.2532,305.1004 130.878,319.308 121.1188,332.3364 " fill="none" id="Admin-Category" style="stroke:#181818;stroke-width:0.44;"/><text fill="#000000" font-family="sans-serif" font-size="5.72" lengthAdjust="spacing" textLength="20.24" x="154.88" y="290.2982">manage</text><text fill="#000000" font-family="sans-serif" font-size="5.72" lengthAdjust="spacing" textLength="3.08" x="158.7692" y="280.2034">1</text><text fill="#000000" font-family="sans-serif" font-size="5.72" lengthAdjust="spacing" textLength="2.2" x="121.4486" y="327.7364">*</text></g><!--MD5=[41043388d0f8d1cf0966079386e80353]
link Product to Category--><g id="link_Product_Category"><path codeLine="177" d="M84.04,268.0436 C84.04,286.8536 84.04,307.8724 84.04,326.5944 " fill="none" id="Product-to-Category" style="stroke:#181818;stroke-width:0.44;"/><polygon fill="#181818" points="84.04,332.3276,85.8,329.6876,84.04,327.0476,82.28,329.6876,84.04,332.3276" style="stroke:#181818;stroke-width:0.44;"/><text fill="#000000" font-family="sans-serif" font-size="5.72" lengthAdjust="spacing" textLength="11.44" x="84.48" y="290.2982">have</text><text fill="#000000" font-family="sans-serif" font-size="5.72" lengthAdjust="spacing" textLength="8.8" x="74.9719" y="276.7821">0..*</text><text fill="#000000" font-family="sans-serif" font-size="5.72" lengthAdjust="spacing" textLength="3.08" x="80.8517" y="327.727">1</text></g><!--MD5=[c22ef2e6f9b5ecdf826afa5c59f0dd18]
link ProductImage to Product--><g id="link_ProductImage_Product"><path codeLine="178" d="M73.2204,106.8716 C74.6636,120.9648 76.2872,136.7828 77.8316,151.7912 " fill="none" id="ProductImage-to-Product" style="stroke:#181818;stroke-width:0.44;"/><polygon fill="#181818" points="78.4168,157.5024,79.898,154.6965,77.8776,152.25,76.3964,155.0559,78.4168,157.5024" style="stroke:#181818;stroke-width:0.44;"/><text fill="#000000" font-family="sans-serif" font-size="5.72" lengthAdjust="spacing" textLength="11.44" x="77" y="139.3782">have</text><text fill="#000000" font-family="sans-serif" font-size="5.72" lengthAdjust="spacing" textLength="8.8" x="64.4336" y="115.5863">1..*</text><text fill="#000000" font-family="sans-serif" font-size="5.72" lengthAdjust="spacing" textLength="3.08" x="74.8779" y="152.7873">1</text></g><!--MD5=[e35aedce6c493bb3c48ff79cdf80e2f3]
@startuml
'https://plantuml.com/class-diagram
!define VAR_SCALE 4
scale VAR_SCALE

'skinparam linetype polyline
'skinparam linetype ortho

skinparam classAttributeIconSize 0
'Type	       Symbol
'Extension	    <|- -
'Composition	*- -
'Aggregation	o- -
'

class UserAccount {
    - id : uuid
    - username : string
    - hashPassword : string
    - isActive : boolean
    - role : RoleEum
    - createdAt : date
    - updatedAt : date

    + getOneUserAccount() : UserAccountEntity
    + getAllUserAccount() : UserAccountEntity[]
    + createUserAccount() : UserAccountEntity
    + updateUserAccount() : void
    + deleteUserAccount() : void
}

class Admin {
    - id : uuid
    - name : string
    - surname : string
    - phone : string
    - email : string
    - addressId: uuid
    - userAccountId: uuid
    - createdAt : date
    - updatedAt : date

    + getOneAdmin() : AdminEntity
    + getAllAdmin() : AdminEntity[]
    + createAdmin() : AdminEntity
    + updateAdmin() : void
    + deleteAdmin() : void
}

class User {
    - id : uuid
    - shopName : string
    - shopOwner : string
    - phone : string
    - email : string
    - img : string
    - role : RoleEum
    - addressId: uuid
    - userAccountId: uuid
    - createdAt : date
    - updatedAt : date

    + getOneUser() : UserEntity
    + getAllUser() : UserEntity[]
    + createUser() : UserEntity
    + updateUser() : void
    + deleteUser() : void
}

enum RoleEum {
    - USER
    - ADMIN
}

class Address {
    - id : uuid
    - houseNo: string
    - village:string
    - villageNo: string
    - lane: string
    - road : string
    - subDistrict: string
    - district: string
    - province : string
    - zipCode: string
    - lat : string
    - lng : string
    - createdAt : date
    - updatedAt : date

    + getOneAddress() : AddressEntity
    + getAllAddress() : AddressEntity[]
    + createAddress() : AddressEntity
    + updateAddress() : void
    + deleteAddress() : void
}

class Product {
    - id : uuid
    - name : string
    - price : decimal
    - desc : string
    - categoryId: number
    - userId: uuid
    - createdAt : date
    - updatedAt : date

    + getOneProduct() : ProductEntity
    + getAllProduct() : ProductEntity[]
    + createProduct() : ProductEntity
    + updateProduct() : void
    + deleteProduct() : void
}

class ProductImage {
    - id : uuid
    - image : string
    - productId : uuid
    - createdAt : date
    - updatedAt : date

    + getOneProductImage() : ProductImageEntity
    + getAllProductImage() : ProductImageEntity[]
    + createProductImage() : ProductImageEntity
    + updateProductImage() : void
    + deleteProductImage() : void
}

class Category {
    - id : number
    - name : string
    - desc : string
    - image: string
    - createdAt : date
    - updatedAt : date

    + getOneCategory() : CategoryEntity
    + getAllCategory() : CategoryEntity[]
    + createCategory() : CategoryEntity
    + updateCategory() : void
    + deleteCategory() : void
}


class IndigoTone {
    - id : uuid
    - name : string
    - ccid : string
    - hex : string
    - red : string
    - green : string
    - blue : string
    - createdAt : date
    - updatedAt : date

    + getOneIndigoTone() : IndigoToneEntity
    + getAllIndigoTone() : IndigoToneEntity[]
    + createIndigoTone() : IndigoToneEntity
    + updateIndigoTone() : void
    + deleteIndigoTone() : void
}

' ======================= Association Flow ===================

UserAccount "*" -up-> "1" RoleEum

User "1" -right-o "1" Address : "has"
User "1" -left-* "1" UserAccount : "has"

Product "0..*" - - "1" User : "have"

Admin "1" -right-* "1" UserAccount : "has"
Admin "1" - -* "1" Address : "has"

Admin "1" -up- "*" IndigoTone : "manage"
Admin "1" - - "*" Category : "manage"

Product "0..*" - -* "1" Category : "have"
ProductImage "1..*" - -* "1" Product : "have"



@enduml

@startuml
scale 4


skinparam classAttributeIconSize 0

class UserAccount {
    - id : uuid
    - username : string
    - hashPassword : string
    - isActive : boolean
    - role : RoleEum
    - createdAt : date
    - updatedAt : date

    + getOneUserAccount() : UserAccountEntity
    + getAllUserAccount() : UserAccountEntity[]
    + createUserAccount() : UserAccountEntity
    + updateUserAccount() : void
    + deleteUserAccount() : void
}

class Admin {
    - id : uuid
    - name : string
    - surname : string
    - phone : string
    - email : string
    - addressId: uuid
    - userAccountId: uuid
    - createdAt : date
    - updatedAt : date

    + getOneAdmin() : AdminEntity
    + getAllAdmin() : AdminEntity[]
    + createAdmin() : AdminEntity
    + updateAdmin() : void
    + deleteAdmin() : void
}

class User {
    - id : uuid
    - shopName : string
    - shopOwner : string
    - phone : string
    - email : string
    - img : string
    - role : RoleEum
    - addressId: uuid
    - userAccountId: uuid
    - createdAt : date
    - updatedAt : date

    + getOneUser() : UserEntity
    + getAllUser() : UserEntity[]
    + createUser() : UserEntity
    + updateUser() : void
    + deleteUser() : void
}

enum RoleEum {
    - USER
    - ADMIN
}

class Address {
    - id : uuid
    - houseNo: string
    - village:string
    - villageNo: string
    - lane: string
    - road : string
    - subDistrict: string
    - district: string
    - province : string
    - zipCode: string
    - lat : string
    - lng : string
    - createdAt : date
    - updatedAt : date

    + getOneAddress() : AddressEntity
    + getAllAddress() : AddressEntity[]
    + createAddress() : AddressEntity
    + updateAddress() : void
    + deleteAddress() : void
}

class Product {
    - id : uuid
    - name : string
    - price : decimal
    - desc : string
    - categoryId: number
    - userId: uuid
    - createdAt : date
    - updatedAt : date

    + getOneProduct() : ProductEntity
    + getAllProduct() : ProductEntity[]
    + createProduct() : ProductEntity
    + updateProduct() : void
    + deleteProduct() : void
}

class ProductImage {
    - id : uuid
    - image : string
    - productId : uuid
    - createdAt : date
    - updatedAt : date

    + getOneProductImage() : ProductImageEntity
    + getAllProductImage() : ProductImageEntity[]
    + createProductImage() : ProductImageEntity
    + updateProductImage() : void
    + deleteProductImage() : void
}

class Category {
    - id : number
    - name : string
    - desc : string
    - image: string
    - createdAt : date
    - updatedAt : date

    + getOneCategory() : CategoryEntity
    + getAllCategory() : CategoryEntity[]
    + createCategory() : CategoryEntity
    + updateCategory() : void
    + deleteCategory() : void
}


class IndigoTone {
    - id : uuid
    - name : string
    - ccid : string
    - hex : string
    - red : string
    - green : string
    - blue : string
    - createdAt : date
    - updatedAt : date

    + getOneIndigoTone() : IndigoToneEntity
    + getAllIndigoTone() : IndigoToneEntity[]
    + createIndigoTone() : IndigoToneEntity
    + updateIndigoTone() : void
    + deleteIndigoTone() : void
}


UserAccount "*" -up-> "1" RoleEum

User "1" -right-o "1" Address : "has"
User "1" -left-* "1" UserAccount : "has"

Product "0..*" - - "1" User : "have"

Admin "1" -right-* "1" UserAccount : "has"
Admin "1" - -* "1" Address : "has"

Admin "1" -up- "*" IndigoTone : "manage"
Admin "1" - - "*" Category : "manage"

Product "0..*" - -* "1" Category : "have"
ProductImage "1..*" - -* "1" Product : "have"



@enduml

PlantUML version 1.2022.7(Tue Aug 23 00:01:30 ICT 2022)
(GPL source distribution)
Java Runtime: OpenJDK Runtime Environment
JVM: OpenJDK 64-Bit Server VM
Default Encoding: Cp1252
Language: en
Country: US
--></g></svg>