<?xml version="1.0" encoding="UTF-8" standalone="no"?><svg xmlns="http://www.w3.org/2000/svg" xmlns:xlink="http://www.w3.org/1999/xlink" contentStyleType="text/css" height="459.8px" preserveAspectRatio="none" style="width:405px;height:459px;background:#FFFFFF;" version="1.1" viewBox="0 0 405 459" width="405.24px" zoomAndPan="magnify"><defs/><g><!--MD5=[873670755c6433d3512a8b316aa6820d]
class UserAccount--><g id="elem_UserAccount"><rect codeLine="15" fill="#F1F1F1" height="103.7025" id="UserAccount" rx="1.1" ry="1.1" style="stroke:#181818;stroke-width:0.22;" width="124.96" x="252.12" y="160.82"/><ellipse cx="295.13" cy="167.86" fill="#ADD1B2" rx="4.84" ry="4.84" style="stroke:#181818;stroke-width:0.44;"/><path d="M296.01,166.32 Q296.0994,166.1 296.2025,165.99 Q296.3056,165.88 296.4225,165.88 Q296.6288,165.88 296.7594,166.0038 Q296.89,166.1275 296.89,166.4163 L296.89,167.1038 Q296.89,167.3925 296.7663,167.5163 Q296.6425,167.64 296.45,167.64 Q296.2781,167.64 296.1681,167.5644 Q296.0581,167.4888 296.01,167.2894 Q295.9894,167.1519 295.9138,167.0763 Q295.7763,166.9319 295.5288,166.8494 Q295.2813,166.76 295.0338,166.76 Q294.7244,166.76 294.4631,166.8838 Q294.2088,167.0075 294.0094,167.2825 Q293.81,167.5575 293.81,167.9356 L293.81,168.3413 Q293.81,168.795 294.1813,169.0975 Q294.5525,169.4 295.2125,169.4 Q295.6044,169.4 295.8794,169.3106 Q296.0375,169.2625 296.2163,169.1044 Q296.3331,169.015 296.395,168.9875 Q296.4569,168.96 296.5325,168.96 Q296.6769,168.96 296.78,169.0769 Q296.89,169.1869 296.89,169.345 Q296.89,169.4963 296.7388,169.675 Q296.5188,169.9363 296.1681,170.0806 Q295.7075,170.28 295.1438,170.28 Q294.4838,170.28 293.9544,170.0188 Q293.5281,169.8125 293.2256,169.3656 Q292.93,168.9188 292.93,168.3894 L292.93,167.9081 Q292.93,167.3581 293.1913,166.8769 Q293.4594,166.3956 293.92,166.1413 Q294.3875,165.88 294.91,165.88 Q295.2263,165.88 295.5013,165.99 Q295.7763,166.1 296.01,166.32 Z " fill="#000000"/><text fill="#000000" font-family="sans-serif" font-size="6.16" lengthAdjust="spacing" textLength="35.2" x="304.15" y="169.9955">UserAccount</text><line style="stroke:#181818;stroke-width:0.22;" x1="252.56" x2="376.64" y1="174.9" y2="174.9"/><text fill="#000000" font-family="sans-serif" font-size="6.16" lengthAdjust="spacing" textLength="24.2" x="254.76" y="182.2365">-id : uuid</text><text fill="#000000" font-family="sans-serif" font-size="6.16" lengthAdjust="spacing" textLength="50.6" x="254.76" y="189.1184">-username : string</text><text fill="#000000" font-family="sans-serif" font-size="6.16" lengthAdjust="spacing" textLength="63.36" x="254.76" y="196.0002">-hashPassword : string</text><text fill="#000000" font-family="sans-serif" font-size="6.16" lengthAdjust="spacing" textLength="51.04" x="254.76" y="202.8821">-isActive : boolean</text><text fill="#000000" font-family="sans-serif" font-size="6.16" lengthAdjust="spacing" textLength="43.12" x="254.76" y="209.764">-role : RoleEum</text><text fill="#000000" font-family="sans-serif" font-size="6.16" lengthAdjust="spacing" textLength="46.64" x="254.76" y="216.6459">-createdAt : date</text><text fill="#000000" font-family="sans-serif" font-size="6.16" lengthAdjust="spacing" textLength="48.4" x="254.76" y="223.5277">-updatedAt : date</text><line style="stroke:#181818;stroke-width:0.22;" x1="252.56" x2="376.64" y1="226.5931" y2="226.5931"/><text fill="#000000" font-family="sans-serif" font-size="6.16" lengthAdjust="spacing" textLength="119.68" x="254.76" y="233.9296">+getOneUserAccount() : UserAccountEntity</text><text fill="#000000" font-family="sans-serif" font-size="6.16" lengthAdjust="spacing" textLength="117.92" x="254.76" y="240.8115">+getAllUserAccount() : UserAccountEntity[]</text><text fill="#000000" font-family="sans-serif" font-size="6.16" lengthAdjust="spacing" textLength="116.6" x="254.76" y="247.6934">+createUserAccount() : UserAccountEntity</text><text fill="#000000" font-family="sans-serif" font-size="6.16" lengthAdjust="spacing" textLength="79.2" x="254.76" y="254.5752">+updateUserAccount() : void</text><text fill="#000000" font-family="sans-serif" font-size="6.16" lengthAdjust="spacing" textLength="77" x="254.76" y="261.4571">+deleteUserAccount() : void</text></g><!--MD5=[db6d18d8099558415abc41d00477ab92]
class Admin--><g id="elem_Admin"><rect codeLine="31" fill="#F1F1F1" height="117.4663" id="Admin" rx="1.1" ry="1.1" style="stroke:#181818;stroke-width:0.22;" width="88.88" x="34.76" y="154"/><ellipse cx="68.75" cy="161.04" fill="#ADD1B2" rx="4.84" ry="4.84" style="stroke:#181818;stroke-width:0.44;"/><path d="M69.63,159.5 Q69.7194,159.28 69.8225,159.17 Q69.9256,159.06 70.0425,159.06 Q70.2488,159.06 70.3794,159.1838 Q70.51,159.3075 70.51,159.5963 L70.51,160.2838 Q70.51,160.5725 70.3863,160.6963 Q70.2625,160.82 70.07,160.82 Q69.8981,160.82 69.7881,160.7444 Q69.6781,160.6688 69.63,160.4694 Q69.6094,160.3319 69.5338,160.2563 Q69.3963,160.1119 69.1488,160.0294 Q68.9013,159.94 68.6538,159.94 Q68.3444,159.94 68.0831,160.0638 Q67.8288,160.1875 67.6294,160.4625 Q67.43,160.7375 67.43,161.1156 L67.43,161.5213 Q67.43,161.975 67.8013,162.2775 Q68.1725,162.58 68.8325,162.58 Q69.2244,162.58 69.4994,162.4906 Q69.6575,162.4425 69.8363,162.2844 Q69.9531,162.195 70.015,162.1675 Q70.0769,162.14 70.1525,162.14 Q70.2969,162.14 70.4,162.2569 Q70.51,162.3669 70.51,162.525 Q70.51,162.6763 70.3588,162.855 Q70.1388,163.1163 69.7881,163.2606 Q69.3275,163.46 68.7638,163.46 Q68.1038,163.46 67.5744,163.1988 Q67.1481,162.9925 66.8456,162.5456 Q66.55,162.0988 66.55,161.5694 L66.55,161.0881 Q66.55,160.5381 66.8113,160.0569 Q67.0794,159.5756 67.54,159.3213 Q68.0075,159.06 68.53,159.06 Q68.8463,159.06 69.1213,159.17 Q69.3963,159.28 69.63,159.5 Z " fill="#000000"/><text fill="#000000" font-family="sans-serif" font-size="6.16" lengthAdjust="spacing" textLength="17.16" x="77.77" y="163.1755">Admin</text><line style="stroke:#181818;stroke-width:0.22;" x1="35.2" x2="123.2" y1="168.08" y2="168.08"/><text fill="#000000" font-family="sans-serif" font-size="6.16" lengthAdjust="spacing" textLength="24.2" x="37.4" y="175.4165">-id : uuid</text><text fill="#000000" font-family="sans-serif" font-size="6.16" lengthAdjust="spacing" textLength="38.28" x="37.4" y="182.2984">-name : string</text><text fill="#000000" font-family="sans-serif" font-size="6.16" lengthAdjust="spacing" textLength="47.08" x="37.4" y="189.1802">-surname : string</text><text fill="#000000" font-family="sans-serif" font-size="6.16" lengthAdjust="spacing" textLength="40.48" x="37.4" y="196.0621">-phone : string</text><text fill="#000000" font-family="sans-serif" font-size="6.16" lengthAdjust="spacing" textLength="37.4" x="37.4" y="202.944">-email : string</text><text fill="#000000" font-family="sans-serif" font-size="6.16" lengthAdjust="spacing" textLength="44.88" x="37.4" y="209.8259">-addressId: uuid</text><text fill="#000000" font-family="sans-serif" font-size="6.16" lengthAdjust="spacing" textLength="57.2" x="37.4" y="216.7077">-userAccountId: uuid</text><text fill="#000000" font-family="sans-serif" font-size="6.16" lengthAdjust="spacing" textLength="46.64" x="37.4" y="223.5896">-createdAt : date</text><text fill="#000000" font-family="sans-serif" font-size="6.16" lengthAdjust="spacing" textLength="48.4" x="37.4" y="230.4715">-updatedAt : date</text><line style="stroke:#181818;stroke-width:0.22;" x1="35.2" x2="123.2" y1="233.5369" y2="233.5369"/><text fill="#000000" font-family="sans-serif" font-size="6.16" lengthAdjust="spacing" textLength="83.6" x="37.4" y="240.8734">+getOneAdmin() : AdminEntity</text><text fill="#000000" font-family="sans-serif" font-size="6.16" lengthAdjust="spacing" textLength="81.84" x="37.4" y="247.7552">+getAllAdmin() : AdminEntity[]</text><text fill="#000000" font-family="sans-serif" font-size="6.16" lengthAdjust="spacing" textLength="80.52" x="37.4" y="254.6371">+createAdmin() : AdminEntity</text><text fill="#000000" font-family="sans-serif" font-size="6.16" lengthAdjust="spacing" textLength="61.16" x="37.4" y="261.519">+updateAdmin() : void</text><text fill="#000000" font-family="sans-serif" font-size="6.16" lengthAdjust="spacing" textLength="58.96" x="37.4" y="268.4009">+deleteAdmin() : void</text></g><!--MD5=[3fd616f346a44cd59a91eb10b19e157c]
class User--><g id="elem_User"><rect codeLine="49" fill="#F1F1F1" height="131.23" id="User" rx="1.1" ry="1.1" style="stroke:#181818;stroke-width:0.22;" width="80.08" x="196.24" y="315.26"/><ellipse cx="228.03" cy="322.3" fill="#ADD1B2" rx="4.84" ry="4.84" style="stroke:#181818;stroke-width:0.44;"/><path d="M228.91,320.76 Q228.9994,320.54 229.1025,320.43 Q229.2056,320.32 229.3225,320.32 Q229.5288,320.32 229.6594,320.4438 Q229.79,320.5675 229.79,320.8563 L229.79,321.5438 Q229.79,321.8325 229.6663,321.9563 Q229.5425,322.08 229.35,322.08 Q229.1781,322.08 229.0681,322.0044 Q228.9581,321.9288 228.91,321.7294 Q228.8894,321.5919 228.8138,321.5163 Q228.6763,321.3719 228.4288,321.2894 Q228.1813,321.2 227.9338,321.2 Q227.6244,321.2 227.3631,321.3238 Q227.1088,321.4475 226.9094,321.7225 Q226.71,321.9975 226.71,322.3756 L226.71,322.7813 Q226.71,323.235 227.0813,323.5375 Q227.4525,323.84 228.1125,323.84 Q228.5044,323.84 228.7794,323.7506 Q228.9375,323.7025 229.1163,323.5444 Q229.2331,323.455 229.295,323.4275 Q229.3569,323.4 229.4325,323.4 Q229.5769,323.4 229.68,323.5169 Q229.79,323.6269 229.79,323.785 Q229.79,323.9363 229.6388,324.115 Q229.4188,324.3763 229.0681,324.5206 Q228.6075,324.72 228.0438,324.72 Q227.3838,324.72 226.8544,324.4588 Q226.4281,324.2525 226.1256,323.8056 Q225.83,323.3588 225.83,322.8294 L225.83,322.3481 Q225.83,321.7981 226.0913,321.3169 Q226.3594,320.8356 226.82,320.5813 Q227.2875,320.32 227.81,320.32 Q228.1263,320.32 228.4013,320.43 Q228.6763,320.54 228.91,320.76 Z " fill="#000000"/><text fill="#000000" font-family="sans-serif" font-size="6.16" lengthAdjust="spacing" textLength="12.76" x="237.05" y="324.4355">User</text><line style="stroke:#181818;stroke-width:0.22;" x1="196.68" x2="275.88" y1="329.34" y2="329.34"/><text fill="#000000" font-family="sans-serif" font-size="6.16" lengthAdjust="spacing" textLength="24.2" x="198.88" y="336.6765">-id : uuid</text><text fill="#000000" font-family="sans-serif" font-size="6.16" lengthAdjust="spacing" textLength="52.36" x="198.88" y="343.5584">-shopName : string</text><text fill="#000000" font-family="sans-serif" font-size="6.16" lengthAdjust="spacing" textLength="54.56" x="198.88" y="350.4402">-shopOwner : string</text><text fill="#000000" font-family="sans-serif" font-size="6.16" lengthAdjust="spacing" textLength="40.48" x="198.88" y="357.3221">-phone : string</text><text fill="#000000" font-family="sans-serif" font-size="6.16" lengthAdjust="spacing" textLength="37.4" x="198.88" y="364.204">-email : string</text><text fill="#000000" font-family="sans-serif" font-size="6.16" lengthAdjust="spacing" textLength="32.56" x="198.88" y="371.0859">-img : string</text><text fill="#000000" font-family="sans-serif" font-size="6.16" lengthAdjust="spacing" textLength="43.12" x="198.88" y="377.9677">-role : RoleEum</text><text fill="#000000" font-family="sans-serif" font-size="6.16" lengthAdjust="spacing" textLength="44.88" x="198.88" y="384.8496">-addressId: uuid</text><text fill="#000000" font-family="sans-serif" font-size="6.16" lengthAdjust="spacing" textLength="57.2" x="198.88" y="391.7315">-userAccountId: uuid</text><text fill="#000000" font-family="sans-serif" font-size="6.16" lengthAdjust="spacing" textLength="46.64" x="198.88" y="398.6134">-createdAt : date</text><text fill="#000000" font-family="sans-serif" font-size="6.16" lengthAdjust="spacing" textLength="48.4" x="198.88" y="405.4952">-updatedAt : date</text><line style="stroke:#181818;stroke-width:0.22;" x1="196.68" x2="275.88" y1="408.5606" y2="408.5606"/><text fill="#000000" font-family="sans-serif" font-size="6.16" lengthAdjust="spacing" textLength="74.8" x="198.88" y="415.8971">+getOneUser() : UserEntity</text><text fill="#000000" font-family="sans-serif" font-size="6.16" lengthAdjust="spacing" textLength="73.04" x="198.88" y="422.779">+getAllUser() : UserEntity[]</text><text fill="#000000" font-family="sans-serif" font-size="6.16" lengthAdjust="spacing" textLength="71.72" x="198.88" y="429.6609">+createUser() : UserEntity</text><text fill="#000000" font-family="sans-serif" font-size="6.16" lengthAdjust="spacing" textLength="56.76" x="198.88" y="436.5427">+updateUser() : void</text><text fill="#000000" font-family="sans-serif" font-size="6.16" lengthAdjust="spacing" textLength="54.56" x="198.88" y="443.4246">+deleteUser() : void</text></g><!--MD5=[6a70b97d4bdd4fae93e5ca72a4dac6ea]
class RoleEum--><g id="elem_RoleEum"><rect codeLine="69" fill="#F1F1F1" height="34.8838" id="RoleEum" rx="1.1" ry="1.1" style="stroke:#181818;stroke-width:0.22;" width="39.16" x="295.02" y="44.44"/><ellipse cx="301.62" cy="51.48" fill="#EB937F" rx="4.84" ry="4.84" style="stroke:#181818;stroke-width:0.44;"/><path d="M300.96,51.92 L300.96,52.8 L302.72,52.8 L302.72,52.36 L302.72,52.1469 L302.995,51.92 L303.16,51.92 L303.325,51.92 L303.6,52.1469 L303.6,52.36 L303.6,53.68 L300.08,53.68 L299.8669,53.68 L299.64,53.405 L299.64,53.24 L299.64,53.075 L299.8669,52.8 L300.08,52.8 L300.08,52.8 L300.08,50.16 L300.08,50.16 L299.8669,50.16 L299.64,49.885 L299.64,49.72 L299.64,49.555 L299.8669,49.28 L300.08,49.28 L303.6,49.28 L303.6,50.6 L303.6,50.8131 L303.325,51.04 L303.16,51.04 L302.995,51.04 L302.72,50.8131 L302.72,50.6 L302.72,50.16 L300.96,50.16 L300.96,51.04 L301.4,51.04 L301.4,50.8269 L301.4,50.8269 L301.675,50.6 L301.84,50.6 L302.005,50.6 L302.28,50.8269 L302.28,51.04 L302.28,51.92 L302.28,52.1331 L302.005,52.36 L302.005,52.36 L301.84,52.36 L301.675,52.36 L301.4,52.1331 L301.4,52.1331 L301.4,51.92 L300.96,51.92 Z " fill="#000000"/><text fill="#000000" font-family="sans-serif" font-size="6.16" lengthAdjust="spacing" textLength="25.08" x="307.78" y="53.6155">RoleEum</text><line style="stroke:#181818;stroke-width:0.22;" x1="295.46" x2="333.74" y1="58.52" y2="58.52"/><text fill="#000000" font-family="sans-serif" font-size="6.16" lengthAdjust="spacing" textLength="18.48" x="297.66" y="65.8565">-USER</text><text fill="#000000" font-family="sans-serif" font-size="6.16" lengthAdjust="spacing" textLength="20.68" x="297.66" y="72.7384">-ADMIN</text><line style="stroke:#181818;stroke-width:0.22;" x1="295.46" x2="333.74" y1="75.8038" y2="75.8038"/></g><!--MD5=[0f39e4cb6f03951afbf6d14bd2505654]
class Address--><g id="elem_Address"><rect codeLine="74" fill="#F1F1F1" height="151.8756" id="Address" rx="1.1" ry="1.1" style="stroke:#181818;stroke-width:0.22;" width="100.32" x="301.84" y="304.92"/><ellipse cx="338.69" cy="311.96" fill="#ADD1B2" rx="4.84" ry="4.84" style="stroke:#181818;stroke-width:0.44;"/><path d="M339.57,310.42 Q339.6594,310.2 339.7625,310.09 Q339.8656,309.98 339.9825,309.98 Q340.1888,309.98 340.3194,310.1038 Q340.45,310.2275 340.45,310.5163 L340.45,311.2038 Q340.45,311.4925 340.3263,311.6163 Q340.2025,311.74 340.01,311.74 Q339.8381,311.74 339.7281,311.6644 Q339.6181,311.5888 339.57,311.3894 Q339.5494,311.2519 339.4738,311.1763 Q339.3363,311.0319 339.0888,310.9494 Q338.8413,310.86 338.5938,310.86 Q338.2844,310.86 338.0231,310.9838 Q337.7688,311.1075 337.5694,311.3825 Q337.37,311.6575 337.37,312.0356 L337.37,312.4413 Q337.37,312.895 337.7413,313.1975 Q338.1125,313.5 338.7725,313.5 Q339.1644,313.5 339.4394,313.4106 Q339.5975,313.3625 339.7763,313.2044 Q339.8931,313.115 339.955,313.0875 Q340.0169,313.06 340.0925,313.06 Q340.2369,313.06 340.34,313.1769 Q340.45,313.2869 340.45,313.445 Q340.45,313.5963 340.2988,313.775 Q340.0788,314.0363 339.7281,314.1806 Q339.2675,314.38 338.7038,314.38 Q338.0438,314.38 337.5144,314.1188 Q337.0881,313.9125 336.7856,313.4656 Q336.49,313.0188 336.49,312.4894 L336.49,312.0081 Q336.49,311.4581 336.7513,310.9769 Q337.0194,310.4956 337.48,310.2413 Q337.9475,309.98 338.47,309.98 Q338.7863,309.98 339.0613,310.09 Q339.3363,310.2 339.57,310.42 Z " fill="#000000"/><text fill="#000000" font-family="sans-serif" font-size="6.16" lengthAdjust="spacing" textLength="22.88" x="347.71" y="314.0955">Address</text><line style="stroke:#181818;stroke-width:0.22;" x1="302.28" x2="401.72" y1="319" y2="319"/><text fill="#000000" font-family="sans-serif" font-size="6.16" lengthAdjust="spacing" textLength="24.2" x="304.48" y="326.3365">-id : uuid</text><text fill="#000000" font-family="sans-serif" font-size="6.16" lengthAdjust="spacing" textLength="45.76" x="304.48" y="333.2184">-houseNo: string</text><text fill="#000000" font-family="sans-serif" font-size="6.16" lengthAdjust="spacing" textLength="36.96" x="304.48" y="340.1002">-village:string</text><text fill="#000000" font-family="sans-serif" font-size="6.16" lengthAdjust="spacing" textLength="46.2" x="304.48" y="346.9821">-villageNo: string</text><text fill="#000000" font-family="sans-serif" font-size="6.16" lengthAdjust="spacing" textLength="33" x="304.48" y="353.864">-lane: string</text><text fill="#000000" font-family="sans-serif" font-size="6.16" lengthAdjust="spacing" textLength="35.64" x="304.48" y="360.7459">-road : string</text><text fill="#000000" font-family="sans-serif" font-size="6.16" lengthAdjust="spacing" textLength="50.16" x="304.48" y="367.6277">-subDistrict: string</text><text fill="#000000" font-family="sans-serif" font-size="6.16" lengthAdjust="spacing" textLength="39.16" x="304.48" y="374.5096">-district: string</text><text fill="#000000" font-family="sans-serif" font-size="6.16" lengthAdjust="spacing" textLength="46.64" x="304.48" y="381.3915">-province : string</text><text fill="#000000" font-family="sans-serif" font-size="6.16" lengthAdjust="spacing" textLength="43.56" x="304.48" y="388.2734">-zipCode: string</text><text fill="#000000" font-family="sans-serif" font-size="6.16" lengthAdjust="spacing" textLength="29.48" x="304.48" y="395.1552">-lat : string</text><text fill="#000000" font-family="sans-serif" font-size="6.16" lengthAdjust="spacing" textLength="31.24" x="304.48" y="402.0371">-lng : string</text><text fill="#000000" font-family="sans-serif" font-size="6.16" lengthAdjust="spacing" textLength="46.64" x="304.48" y="408.919">-createdAt : date</text><text fill="#000000" font-family="sans-serif" font-size="6.16" lengthAdjust="spacing" textLength="48.4" x="304.48" y="415.8009">-updatedAt : date</text><line style="stroke:#181818;stroke-width:0.22;" x1="302.28" x2="401.72" y1="418.8663" y2="418.8663"/><text fill="#000000" font-family="sans-serif" font-size="6.16" lengthAdjust="spacing" textLength="95.04" x="304.48" y="426.2027">+getOneAddress() : AddressEntity</text><text fill="#000000" font-family="sans-serif" font-size="6.16" lengthAdjust="spacing" textLength="93.28" x="304.48" y="433.0846">+getAllAddress() : AddressEntity[]</text><text fill="#000000" font-family="sans-serif" font-size="6.16" lengthAdjust="spacing" textLength="91.96" x="304.48" y="439.9665">+createAddress() : AddressEntity</text><text fill="#000000" font-family="sans-serif" font-size="6.16" lengthAdjust="spacing" textLength="66.88" x="304.48" y="446.8484">+updateAddress() : void</text><text fill="#000000" font-family="sans-serif" font-size="6.16" lengthAdjust="spacing" textLength="64.68" x="304.48" y="453.7302">+deleteAddress() : void</text></g><!--MD5=[72136138052d025cffdce3c22fbd185f]
class Product--><g id="elem_Product"><rect codeLine="97" fill="#F1F1F1" height="110.5844" id="Product" rx="1.1" ry="1.1" style="stroke:#181818;stroke-width:0.22;" width="97.68" x="139.04" y="157.52"/><ellipse cx="175.23" cy="164.56" fill="#ADD1B2" rx="4.84" ry="4.84" style="stroke:#181818;stroke-width:0.44;"/><path d="M176.11,163.02 Q176.1994,162.8 176.3025,162.69 Q176.4056,162.58 176.5225,162.58 Q176.7288,162.58 176.8594,162.7038 Q176.99,162.8275 176.99,163.1163 L176.99,163.8038 Q176.99,164.0925 176.8663,164.2163 Q176.7425,164.34 176.55,164.34 Q176.3781,164.34 176.2681,164.2644 Q176.1581,164.1888 176.11,163.9894 Q176.0894,163.8519 176.0138,163.7763 Q175.8763,163.6319 175.6288,163.5494 Q175.3813,163.46 175.1338,163.46 Q174.8244,163.46 174.5631,163.5838 Q174.3088,163.7075 174.1094,163.9825 Q173.91,164.2575 173.91,164.6356 L173.91,165.0413 Q173.91,165.495 174.2813,165.7975 Q174.6525,166.1 175.3125,166.1 Q175.7044,166.1 175.9794,166.0106 Q176.1375,165.9625 176.3163,165.8044 Q176.4331,165.715 176.495,165.6875 Q176.5569,165.66 176.6325,165.66 Q176.7769,165.66 176.88,165.7769 Q176.99,165.8869 176.99,166.045 Q176.99,166.1963 176.8388,166.375 Q176.6188,166.6363 176.2681,166.7806 Q175.8075,166.98 175.2438,166.98 Q174.5838,166.98 174.0544,166.7188 Q173.6281,166.5125 173.3256,166.0656 Q173.03,165.6188 173.03,165.0894 L173.03,164.6081 Q173.03,164.0581 173.2913,163.5769 Q173.5594,163.0956 174.02,162.8413 Q174.4875,162.58 175.01,162.58 Q175.3263,162.58 175.6013,162.69 Q175.8763,162.8 176.11,163.02 Z " fill="#000000"/><text fill="#000000" font-family="sans-serif" font-size="6.16" lengthAdjust="spacing" textLength="21.56" x="184.25" y="166.6955">Product</text><line style="stroke:#181818;stroke-width:0.22;" x1="139.48" x2="236.28" y1="171.6" y2="171.6"/><text fill="#000000" font-family="sans-serif" font-size="6.16" lengthAdjust="spacing" textLength="24.2" x="141.68" y="178.9365">-id : uuid</text><text fill="#000000" font-family="sans-serif" font-size="6.16" lengthAdjust="spacing" textLength="38.28" x="141.68" y="185.8184">-name : string</text><text fill="#000000" font-family="sans-serif" font-size="6.16" lengthAdjust="spacing" textLength="42.24" x="141.68" y="192.7002">-price : decimal</text><text fill="#000000" font-family="sans-serif" font-size="6.16" lengthAdjust="spacing" textLength="36.08" x="141.68" y="199.5821">-desc : string</text><text fill="#000000" font-family="sans-serif" font-size="6.16" lengthAdjust="spacing" textLength="55.88" x="141.68" y="206.464">-categoryId: number</text><text fill="#000000" font-family="sans-serif" font-size="6.16" lengthAdjust="spacing" textLength="34.76" x="141.68" y="213.3459">-userId: uuid</text><text fill="#000000" font-family="sans-serif" font-size="6.16" lengthAdjust="spacing" textLength="46.64" x="141.68" y="220.2277">-createdAt : date</text><text fill="#000000" font-family="sans-serif" font-size="6.16" lengthAdjust="spacing" textLength="48.4" x="141.68" y="227.1096">-updatedAt : date</text><line style="stroke:#181818;stroke-width:0.22;" x1="139.48" x2="236.28" y1="230.175" y2="230.175"/><text fill="#000000" font-family="sans-serif" font-size="6.16" lengthAdjust="spacing" textLength="92.4" x="141.68" y="237.5115">+getOneProduct() : ProductEntity</text><text fill="#000000" font-family="sans-serif" font-size="6.16" lengthAdjust="spacing" textLength="90.64" x="141.68" y="244.3934">+getAllProduct() : ProductEntity[]</text><text fill="#000000" font-family="sans-serif" font-size="6.16" lengthAdjust="spacing" textLength="89.32" x="141.68" y="251.2752">+createProduct() : ProductEntity</text><text fill="#000000" font-family="sans-serif" font-size="6.16" lengthAdjust="spacing" textLength="65.56" x="141.68" y="258.1571">+updateProduct() : void</text><text fill="#000000" font-family="sans-serif" font-size="6.16" lengthAdjust="spacing" textLength="63.36" x="141.68" y="265.039">+deleteProduct() : void</text></g><!--MD5=[638658a6748aae92dbe5884a4d4bd659]
class ProductImage--><g id="elem_ProductImage"><rect codeLine="114" fill="#F1F1F1" height="89.9388" id="ProductImage" rx="1.1" ry="1.1" style="stroke:#181818;stroke-width:0.22;" width="131.12" x="135.52" y="16.94"/><ellipse cx="180.07" cy="23.98" fill="#ADD1B2" rx="4.84" ry="4.84" style="stroke:#181818;stroke-width:0.44;"/><path d="M180.95,22.44 Q181.0394,22.22 181.1425,22.11 Q181.2456,22 181.3625,22 Q181.5688,22 181.6994,22.1238 Q181.83,22.2475 181.83,22.5363 L181.83,23.2238 Q181.83,23.5125 181.7063,23.6363 Q181.5825,23.76 181.39,23.76 Q181.2181,23.76 181.1081,23.6844 Q180.9981,23.6088 180.95,23.4094 Q180.9294,23.2719 180.8538,23.1963 Q180.7163,23.0519 180.4688,22.9694 Q180.2213,22.88 179.9738,22.88 Q179.6644,22.88 179.4031,23.0038 Q179.1488,23.1275 178.9494,23.4025 Q178.75,23.6775 178.75,24.0556 L178.75,24.4613 Q178.75,24.915 179.1213,25.2175 Q179.4925,25.52 180.1525,25.52 Q180.5444,25.52 180.8194,25.4306 Q180.9775,25.3825 181.1563,25.2244 Q181.2731,25.135 181.335,25.1075 Q181.3969,25.08 181.4725,25.08 Q181.6169,25.08 181.72,25.1969 Q181.83,25.3069 181.83,25.465 Q181.83,25.6163 181.6788,25.795 Q181.4588,26.0563 181.1081,26.2006 Q180.6475,26.4 180.0838,26.4 Q179.4238,26.4 178.8944,26.1388 Q178.4681,25.9325 178.1656,25.4856 Q177.87,25.0388 177.87,24.5094 L177.87,24.0281 Q177.87,23.4781 178.1313,22.9969 Q178.3994,22.5156 178.86,22.2613 Q179.3275,22 179.85,22 Q180.1663,22 180.4413,22.11 Q180.7163,22.22 180.95,22.44 Z " fill="#000000"/><text fill="#000000" font-family="sans-serif" font-size="6.16" lengthAdjust="spacing" textLength="38.28" x="189.09" y="26.1155">ProductImage</text><line style="stroke:#181818;stroke-width:0.22;" x1="135.96" x2="266.2" y1="31.02" y2="31.02"/><text fill="#000000" font-family="sans-serif" font-size="6.16" lengthAdjust="spacing" textLength="24.2" x="138.16" y="38.3565">-id : uuid</text><text fill="#000000" font-family="sans-serif" font-size="6.16" lengthAdjust="spacing" textLength="39.6" x="138.16" y="45.2384">-image : string</text><text fill="#000000" font-family="sans-serif" font-size="6.16" lengthAdjust="spacing" textLength="45.32" x="138.16" y="52.1202">-productId : uuid</text><text fill="#000000" font-family="sans-serif" font-size="6.16" lengthAdjust="spacing" textLength="46.64" x="138.16" y="59.0021">-createdAt : date</text><text fill="#000000" font-family="sans-serif" font-size="6.16" lengthAdjust="spacing" textLength="48.4" x="138.16" y="65.884">-updatedAt : date</text><line style="stroke:#181818;stroke-width:0.22;" x1="135.96" x2="266.2" y1="68.9494" y2="68.9494"/><text fill="#000000" font-family="sans-serif" font-size="6.16" lengthAdjust="spacing" textLength="125.84" x="138.16" y="76.2859">+getOneProductImage() : ProductImageEntity</text><text fill="#000000" font-family="sans-serif" font-size="6.16" lengthAdjust="spacing" textLength="124.08" x="138.16" y="83.1677">+getAllProductImage() : ProductImageEntity[]</text><text fill="#000000" font-family="sans-serif" font-size="6.16" lengthAdjust="spacing" textLength="122.76" x="138.16" y="90.0496">+createProductImage() : ProductImageEntity</text><text fill="#000000" font-family="sans-serif" font-size="6.16" lengthAdjust="spacing" textLength="82.28" x="138.16" y="96.9315">+updateProductImage() : void</text><text fill="#000000" font-family="sans-serif" font-size="6.16" lengthAdjust="spacing" textLength="80.08" x="138.16" y="103.8134">+deleteProductImage() : void</text></g><!--MD5=[a96594a83e2ecdc78cbf17c2ddf01934]
class Category--><g id="elem_Category"><rect codeLine="128" fill="#F1F1F1" height="96.8206" id="Category" rx="1.1" ry="1.1" style="stroke:#181818;stroke-width:0.22;" width="105.6" x="58.08" y="332.42"/><ellipse cx="96.25" cy="339.46" fill="#ADD1B2" rx="4.84" ry="4.84" style="stroke:#181818;stroke-width:0.44;"/><path d="M97.13,337.92 Q97.2194,337.7 97.3225,337.59 Q97.4256,337.48 97.5425,337.48 Q97.7488,337.48 97.8794,337.6038 Q98.01,337.7275 98.01,338.0163 L98.01,338.7038 Q98.01,338.9925 97.8863,339.1163 Q97.7625,339.24 97.57,339.24 Q97.3981,339.24 97.2881,339.1644 Q97.1781,339.0888 97.13,338.8894 Q97.1094,338.7519 97.0338,338.6763 Q96.8963,338.5319 96.6488,338.4494 Q96.4013,338.36 96.1538,338.36 Q95.8444,338.36 95.5831,338.4838 Q95.3288,338.6075 95.1294,338.8825 Q94.93,339.1575 94.93,339.5356 L94.93,339.9413 Q94.93,340.395 95.3013,340.6975 Q95.6725,341 96.3325,341 Q96.7244,341 96.9994,340.9106 Q97.1575,340.8625 97.3363,340.7044 Q97.4531,340.615 97.515,340.5875 Q97.5769,340.56 97.6525,340.56 Q97.7969,340.56 97.9,340.6769 Q98.01,340.7869 98.01,340.945 Q98.01,341.0963 97.8588,341.275 Q97.6388,341.5363 97.2881,341.6806 Q96.8275,341.88 96.2638,341.88 Q95.6038,341.88 95.0744,341.6188 Q94.6481,341.4125 94.3456,340.9656 Q94.05,340.5188 94.05,339.9894 L94.05,339.5081 Q94.05,338.9581 94.3113,338.4769 Q94.5794,337.9956 95.04,337.7413 Q95.5075,337.48 96.03,337.48 Q96.3463,337.48 96.6213,337.59 Q96.8963,337.7 97.13,337.92 Z " fill="#000000"/><text fill="#000000" font-family="sans-serif" font-size="6.16" lengthAdjust="spacing" textLength="25.52" x="105.27" y="341.5955">Category</text><line style="stroke:#181818;stroke-width:0.22;" x1="58.52" x2="163.24" y1="346.5" y2="346.5"/><text fill="#000000" font-family="sans-serif" font-size="6.16" lengthAdjust="spacing" textLength="33.44" x="60.72" y="353.8365">-id : number</text><text fill="#000000" font-family="sans-serif" font-size="6.16" lengthAdjust="spacing" textLength="38.28" x="60.72" y="360.7184">-name : string</text><text fill="#000000" font-family="sans-serif" font-size="6.16" lengthAdjust="spacing" textLength="36.08" x="60.72" y="367.6002">-desc : string</text><text fill="#000000" font-family="sans-serif" font-size="6.16" lengthAdjust="spacing" textLength="37.84" x="60.72" y="374.4821">-image: string</text><text fill="#000000" font-family="sans-serif" font-size="6.16" lengthAdjust="spacing" textLength="46.64" x="60.72" y="381.364">-createdAt : date</text><text fill="#000000" font-family="sans-serif" font-size="6.16" lengthAdjust="spacing" textLength="48.4" x="60.72" y="388.2459">-updatedAt : date</text><line style="stroke:#181818;stroke-width:0.22;" x1="58.52" x2="163.24" y1="391.3113" y2="391.3113"/><text fill="#000000" font-family="sans-serif" font-size="6.16" lengthAdjust="spacing" textLength="100.32" x="60.72" y="398.6477">+getOneCategory() : CategoryEntity</text><text fill="#000000" font-family="sans-serif" font-size="6.16" lengthAdjust="spacing" textLength="98.56" x="60.72" y="405.5296">+getAllCategory() : CategoryEntity[]</text><text fill="#000000" font-family="sans-serif" font-size="6.16" lengthAdjust="spacing" textLength="97.24" x="60.72" y="412.4115">+createCategory() : CategoryEntity</text><text fill="#000000" font-family="sans-serif" font-size="6.16" lengthAdjust="spacing" textLength="69.52" x="60.72" y="419.2934">+updateCategory() : void</text><text fill="#000000" font-family="sans-serif" font-size="6.16" lengthAdjust="spacing" textLength="67.32" x="60.72" y="426.1752">+deleteCategory() : void</text></g><!--MD5=[a36d648812f934b36d05bf0cd5320ae2]
class IndigoTone--><g id="elem_IndigoTone"><rect codeLine="144" fill="#F1F1F1" height="117.4663" id="IndigoTone" rx="1.1" ry="1.1" style="stroke:#181818;stroke-width:0.22;" width="117.04" x="3.08" y="3.08"/><ellipse cx="44.11" cy="10.12" fill="#ADD1B2" rx="4.84" ry="4.84" style="stroke:#181818;stroke-width:0.44;"/><path d="M44.99,8.58 Q45.0794,8.36 45.1825,8.25 Q45.2856,8.14 45.4025,8.14 Q45.6088,8.14 45.7394,8.2638 Q45.87,8.3875 45.87,8.6763 L45.87,9.3638 Q45.87,9.6525 45.7463,9.7763 Q45.6225,9.9 45.43,9.9 Q45.2581,9.9 45.1481,9.8244 Q45.0381,9.7488 44.99,9.5494 Q44.9694,9.4119 44.8938,9.3363 Q44.7563,9.1919 44.5088,9.1094 Q44.2613,9.02 44.0138,9.02 Q43.7044,9.02 43.4431,9.1438 Q43.1888,9.2675 42.9894,9.5425 Q42.79,9.8175 42.79,10.1956 L42.79,10.6013 Q42.79,11.055 43.1613,11.3575 Q43.5325,11.66 44.1925,11.66 Q44.5844,11.66 44.8594,11.5706 Q45.0175,11.5225 45.1963,11.3644 Q45.3131,11.275 45.375,11.2475 Q45.4369,11.22 45.5125,11.22 Q45.6569,11.22 45.76,11.3369 Q45.87,11.4469 45.87,11.605 Q45.87,11.7563 45.7188,11.935 Q45.4988,12.1963 45.1481,12.3406 Q44.6875,12.54 44.1238,12.54 Q43.4638,12.54 42.9344,12.2788 Q42.5081,12.0725 42.2056,11.6256 Q41.91,11.1788 41.91,10.6494 L41.91,10.1681 Q41.91,9.6181 42.1713,9.1369 Q42.4394,8.6556 42.9,8.4013 Q43.3675,8.14 43.89,8.14 Q44.2063,8.14 44.4813,8.25 Q44.7563,8.36 44.99,8.58 Z " fill="#000000"/><text fill="#000000" font-family="sans-serif" font-size="6.16" lengthAdjust="spacing" textLength="31.24" x="53.13" y="12.2555">IndigoTone</text><line style="stroke:#181818;stroke-width:0.22;" x1="3.52" x2="119.68" y1="17.16" y2="17.16"/><text fill="#000000" font-family="sans-serif" font-size="6.16" lengthAdjust="spacing" textLength="24.2" x="5.72" y="24.4965">-id : uuid</text><text fill="#000000" font-family="sans-serif" font-size="6.16" lengthAdjust="spacing" textLength="38.28" x="5.72" y="31.3784">-name : string</text><text fill="#000000" font-family="sans-serif" font-size="6.16" lengthAdjust="spacing" textLength="33.88" x="5.72" y="38.2602">-ccid : string</text><text fill="#000000" font-family="sans-serif" font-size="6.16" lengthAdjust="spacing" textLength="32.56" x="5.72" y="45.1421">-hex : string</text><text fill="#000000" font-family="sans-serif" font-size="6.16" lengthAdjust="spacing" textLength="32.12" x="5.72" y="52.024">-red : string</text><text fill="#000000" font-family="sans-serif" font-size="6.16" lengthAdjust="spacing" textLength="39.16" x="5.72" y="58.9059">-green : string</text><text fill="#000000" font-family="sans-serif" font-size="6.16" lengthAdjust="spacing" textLength="34.76" x="5.72" y="65.7877">-blue : string</text><text fill="#000000" font-family="sans-serif" font-size="6.16" lengthAdjust="spacing" textLength="46.64" x="5.72" y="72.6696">-createdAt : date</text><text fill="#000000" font-family="sans-serif" font-size="6.16" lengthAdjust="spacing" textLength="48.4" x="5.72" y="79.5515">-updatedAt : date</text><line style="stroke:#181818;stroke-width:0.22;" x1="3.52" x2="119.68" y1="82.6169" y2="82.6169"/><text fill="#000000" font-family="sans-serif" font-size="6.16" lengthAdjust="spacing" textLength="111.76" x="5.72" y="89.9534">+getOneIndigoTone() : IndigoToneEntity</text><text fill="#000000" font-family="sans-serif" font-size="6.16" lengthAdjust="spacing" textLength="110" x="5.72" y="96.8352">+getAllIndigoTone() : IndigoToneEntity[]</text><text fill="#000000" font-family="sans-serif" font-size="6.16" lengthAdjust="spacing" textLength="108.68" x="5.72" y="103.7171">+createIndigoTone() : IndigoToneEntity</text><text fill="#000000" font-family="sans-serif" font-size="6.16" lengthAdjust="spacing" textLength="75.24" x="5.72" y="110.599">+updateIndigoTone() : void</text><text fill="#000000" font-family="sans-serif" font-size="6.16" lengthAdjust="spacing" textLength="73.04" x="5.72" y="117.4809">+deleteIndigoTone() : void</text></g><!--MD5=[899b9685cf0792bfe5183a86456c6e1c]
reverse link RoleEum to UserAccount--><g id="link_RoleEum_UserAccount"><path codeLine="164" d="M314.6,81.576 C314.6,101.4948 314.6,133.4124 314.6,160.7276 " fill="none" id="RoleEum-backto-UserAccount" style="stroke:#181818;stroke-width:0.44;"/><polygon fill="#181818" points="314.6,79.3276,312.84,83.2876,314.6,81.5276,316.36,83.2876,314.6,79.3276" style="stroke:#181818;stroke-width:0.44;"/><text fill="#000000" font-family="sans-serif" font-size="5.72" lengthAdjust="spacing" textLength="3.08" x="311.2553" y="88.0534">1</text><text fill="#000000" font-family="sans-serif" font-size="5.72" lengthAdjust="spacing" textLength="2.2" x="312.3261" y="156.0566">*</text></g><!--MD5=[6cb56ad2db0e14266f83041296b08dce]
link User to Address--><g id="link_User_Address"><path codeLine="166" d="M276.43,380.82 C282.7396,380.82 289.3616,380.82 295.9528,380.82 " fill="none" id="User-to-Address" style="stroke:#181818;stroke-width:0.44;"/><polygon fill="none" points="301.73,380.82,299.09,379.06,296.45,380.82,299.09,382.58,301.73,380.82" style="stroke:#181818;stroke-width:0.44;"/><text fill="#000000" font-family="sans-serif" font-size="5.72" lengthAdjust="spacing" textLength="9.24" x="284.46" y="378.0782">has</text><text fill="#000000" font-family="sans-serif" font-size="5.72" lengthAdjust="spacing" textLength="3.08" x="279.8825" y="379.5881">1</text><text fill="#000000" font-family="sans-serif" font-size="5.72" lengthAdjust="spacing" textLength="3.08" x="295.169" y="379.6364">1</text></g><!--MD5=[acc5d6138a8093b722b97abeb547904e]
reverse link UserAccount to User--><g id="link_UserAccount_User"><path codeLine="167" d="M287.9844,269.9972 C281.1864,284.5084 273.8252,300.2252 266.8468,315.1236 " fill="none" id="UserAccount-backto-User" style="stroke:#181818;stroke-width:0.44;"/><polygon fill="#181818" points="290.4616,264.7084,287.7479,266.3525,288.2218,269.4898,290.9355,267.8457,290.4616,264.7084" style="stroke:#181818;stroke-width:0.44;"/><text fill="#000000" font-family="sans-serif" font-size="5.72" lengthAdjust="spacing" textLength="9.24" x="280.28" y="290.2982">has</text><text fill="#000000" font-family="sans-serif" font-size="5.72" lengthAdjust="spacing" textLength="3.08" x="285.8168" y="273.2523">1</text><text fill="#000000" font-family="sans-serif" font-size="5.72" lengthAdjust="spacing" textLength="3.08" x="265.2635" y="310.5986">1</text></g><!--MD5=[0927e2f55b3f57f64d0ed91b540b5ff6]
link Product to User--><g id="link_Product_User"><path codeLine="169" d="M203.7596,268.0436 C208.1288,283.1356 212.9116,299.6488 217.4304,315.2556 " fill="none" id="Product-User" style="stroke:#181818;stroke-width:0.44;"/><text fill="#000000" font-family="sans-serif" font-size="5.72" lengthAdjust="spacing" textLength="8.8" x="195.6591" y="276.7821">0..*</text><text fill="#000000" font-family="sans-serif" font-size="5.72" lengthAdjust="spacing" textLength="3.08" x="213.2353" y="310.5231">1</text></g><!--MD5=[aefb2128b9882c7b1924ec6cfaf7c7d9]
link Admin to UserAccount--><g id="link_Admin_UserAccount"><path codeLine="171" d="M123.7764,157.366 C131.1552,152.1212 139.2908,148.0292 148.06,146.08 C161.4932,143.0968 196.3544,133.8744 244.64,154 C247.4032,155.1528 250.1444,156.4552 252.8416,157.8764 " fill="none" id="Admin-to-UserAccount" style="stroke:#181818;stroke-width:0.44;"/><polygon fill="#181818" points="257.9852,160.7584,256.54,157.9338,253.3768,158.1814,254.822,161.006,257.9852,160.7584" style="stroke:#181818;stroke-width:0.44;"/><text fill="#000000" font-family="sans-serif" font-size="5.72" lengthAdjust="spacing" textLength="9.24" x="148.5" y="139.3782">has</text><text fill="#000000" font-family="sans-serif" font-size="5.72" lengthAdjust="spacing" textLength="3.08" x="127.1631" y="152.1004">1</text><text fill="#000000" font-family="sans-serif" font-size="5.72" lengthAdjust="spacing" textLength="3.08" x="250.9979" y="156.0895">1</text></g><!--MD5=[ad17bcdf4bc69984fce8382eba0f2929]
link IndigoTone to Admin--><g id="link_IndigoTone_Admin"><path codeLine="173" d="M68.4552,120.7008 C69.7356,131.5996 71.0688,142.9956 72.3492,153.8988 " fill="none" id="IndigoTone-Admin" style="stroke:#181818;stroke-width:0.44;"/><text fill="#000000" font-family="sans-serif" font-size="5.72" lengthAdjust="spacing" textLength="20.24" x="70.84" y="139.3782">manage</text><text fill="#000000" font-family="sans-serif" font-size="5.72" lengthAdjust="spacing" textLength="2.2" x="66.5699" y="129.2741">*</text><text fill="#000000" font-family="sans-serif" font-size="5.72" lengthAdjust="spacing" textLength="3.08" x="68.7841" y="149.3442">1</text></g><!--MD5=[e1157d990c71223888f6eba0861fc13e]
link Admin to Category--><g id="link_Admin_Category"><path codeLine="174" d="M90.2572,271.5416 C94.0236,291.4208 98.1904,313.3988 101.7852,332.3716 " fill="none" id="Admin-Category" style="stroke:#181818;stroke-width:0.44;"/><text fill="#000000" font-family="sans-serif" font-size="5.72" lengthAdjust="spacing" textLength="20.24" x="93.72" y="290.2982">manage</text><text fill="#000000" font-family="sans-serif" font-size="5.72" lengthAdjust="spacing" textLength="3.08" x="87.6977" y="280.1106">1</text><text fill="#000000" font-family="sans-serif" font-size="5.72" lengthAdjust="spacing" textLength="2.2" x="98.8365" y="327.6133">*</text></g><!--MD5=[41043388d0f8d1cf0966079386e80353]
link Product to Category--><g id="link_Product_Category"><path codeLine="176" d="M162.6152,268.0436 C153.8768,287.0164 144.1044,308.2376 135.4276,327.0784 " fill="none" id="Product-to-Category" style="stroke:#181818;stroke-width:0.44;"/><polygon fill="#181818" points="133.0076,332.3276,135.7115,330.6675,135.2191,327.5331,132.5152,329.1932,133.0076,332.3276" style="stroke:#181818;stroke-width:0.44;"/><text fill="#000000" font-family="sans-serif" font-size="5.72" lengthAdjust="spacing" textLength="11.44" x="154.44" y="290.2982">have</text><text fill="#000000" font-family="sans-serif" font-size="5.72" lengthAdjust="spacing" textLength="8.8" x="152.0075" y="276.7821">0..*</text><text fill="#000000" font-family="sans-serif" font-size="5.72" lengthAdjust="spacing" textLength="3.08" x="131.3752" y="327.727">1</text></g><!--MD5=[c22ef2e6f9b5ecdf826afa5c59f0dd18]
link ProductImage to Product--><g id="link_ProductImage_Product"><path codeLine="177" d="M197.1552,106.8716 C195.9144,120.9648 194.524,136.7828 193.204,151.7912 " fill="none" id="ProductImage-to-Product" style="stroke:#181818;stroke-width:0.44;"/><polygon fill="#181818" points="192.7024,157.5024,194.6875,155.0272,193.1663,152.2428,191.1812,154.718,192.7024,157.5024" style="stroke:#181818;stroke-width:0.44;"/><text fill="#000000" font-family="sans-serif" font-size="5.72" lengthAdjust="spacing" textLength="11.44" x="194.92" y="139.3782">have</text><text fill="#000000" font-family="sans-serif" font-size="5.72" lengthAdjust="spacing" textLength="8.8" x="187.7438" y="115.5863">1..*</text><text fill="#000000" font-family="sans-serif" font-size="5.72" lengthAdjust="spacing" textLength="3.08" x="189.8327" y="152.7873">1</text></g><!--MD5=[5f2b75e29df7382bfd8a77142574441b]
@startuml
'https://plantuml.com/class-diagram
!define VAR_SCALE 4
scale VAR_SCALE

'skinparam linetype polyline
'skinparam linetype ortho

skinparam classAttributeIconSize 0
'Type	       Symbol
'Extension	    <|- -
'Composition	*- -
'Aggregation	o- -
'

class UserAccount {
    - id : uuid
    - username : string
    - hashPassword : string
    - isActive : boolean
    - role : RoleEum
    - createdAt : date
    - updatedAt : date

    + getOneUserAccount() : UserAccountEntity
    + getAllUserAccount() : UserAccountEntity[]
    + createUserAccount() : UserAccountEntity
    + updateUserAccount() : void
    + deleteUserAccount() : void
}

class Admin {
    - id : uuid
    - name : string
    - surname : string
    - phone : string
    - email : string
    - addressId: uuid
    - userAccountId: uuid
    - createdAt : date
    - updatedAt : date

    + getOneAdmin() : AdminEntity
    + getAllAdmin() : AdminEntity[]
    + createAdmin() : AdminEntity
    + updateAdmin() : void
    + deleteAdmin() : void
}

class User {
    - id : uuid
    - shopName : string
    - shopOwner : string
    - phone : string
    - email : string
    - img : string
    - role : RoleEum
    - addressId: uuid
    - userAccountId: uuid
    - createdAt : date
    - updatedAt : date

    + getOneUser() : UserEntity
    + getAllUser() : UserEntity[]
    + createUser() : UserEntity
    + updateUser() : void
    + deleteUser() : void
}

enum RoleEum {
    - USER
    - ADMIN
}

class Address {
    - id : uuid
    - houseNo: string
    - village:string
    - villageNo: string
    - lane: string
    - road : string
    - subDistrict: string
    - district: string
    - province : string
    - zipCode: string
    - lat : string
    - lng : string
    - createdAt : date
    - updatedAt : date

    + getOneAddress() : AddressEntity
    + getAllAddress() : AddressEntity[]
    + createAddress() : AddressEntity
    + updateAddress() : void
    + deleteAddress() : void
}

class Product {
    - id : uuid
    - name : string
    - price : decimal
    - desc : string
    - categoryId: number
    - userId: uuid
    - createdAt : date
    - updatedAt : date

    + getOneProduct() : ProductEntity
    + getAllProduct() : ProductEntity[]
    + createProduct() : ProductEntity
    + updateProduct() : void
    + deleteProduct() : void
}

class ProductImage {
    - id : uuid
    - image : string
    - productId : uuid
    - createdAt : date
    - updatedAt : date

    + getOneProductImage() : ProductImageEntity
    + getAllProductImage() : ProductImageEntity[]
    + createProductImage() : ProductImageEntity
    + updateProductImage() : void
    + deleteProductImage() : void
}

class Category {
    - id : number
    - name : string
    - desc : string
    - image: string
    - createdAt : date
    - updatedAt : date

    + getOneCategory() : CategoryEntity
    + getAllCategory() : CategoryEntity[]
    + createCategory() : CategoryEntity
    + updateCategory() : void
    + deleteCategory() : void
}


class IndigoTone {
    - id : uuid
    - name : string
    - ccid : string
    - hex : string
    - red : string
    - green : string
    - blue : string
    - createdAt : date
    - updatedAt : date

    + getOneIndigoTone() : IndigoToneEntity
    + getAllIndigoTone() : IndigoToneEntity[]
    + createIndigoTone() : IndigoToneEntity
    + updateIndigoTone() : void
    + deleteIndigoTone() : void
}

' ======================= Association Flow ===================

UserAccount "*" -up-> "1" RoleEum

User "1" -right-o "1" Address : "has"
User "1" -left-* "1" UserAccount : "has"

Product "0..*" - - "1" User

Admin "1" -right-* "1" UserAccount : "has"

Admin "1" -up- "*" IndigoTone : "manage"
Admin "1" - - "*" Category : "manage"

Product "0..*" - -* "1" Category : "have"
ProductImage "1..*" - -* "1" Product : "have"



@enduml

@startuml
scale 4


skinparam classAttributeIconSize 0

class UserAccount {
    - id : uuid
    - username : string
    - hashPassword : string
    - isActive : boolean
    - role : RoleEum
    - createdAt : date
    - updatedAt : date

    + getOneUserAccount() : UserAccountEntity
    + getAllUserAccount() : UserAccountEntity[]
    + createUserAccount() : UserAccountEntity
    + updateUserAccount() : void
    + deleteUserAccount() : void
}

class Admin {
    - id : uuid
    - name : string
    - surname : string
    - phone : string
    - email : string
    - addressId: uuid
    - userAccountId: uuid
    - createdAt : date
    - updatedAt : date

    + getOneAdmin() : AdminEntity
    + getAllAdmin() : AdminEntity[]
    + createAdmin() : AdminEntity
    + updateAdmin() : void
    + deleteAdmin() : void
}

class User {
    - id : uuid
    - shopName : string
    - shopOwner : string
    - phone : string
    - email : string
    - img : string
    - role : RoleEum
    - addressId: uuid
    - userAccountId: uuid
    - createdAt : date
    - updatedAt : date

    + getOneUser() : UserEntity
    + getAllUser() : UserEntity[]
    + createUser() : UserEntity
    + updateUser() : void
    + deleteUser() : void
}

enum RoleEum {
    - USER
    - ADMIN
}

class Address {
    - id : uuid
    - houseNo: string
    - village:string
    - villageNo: string
    - lane: string
    - road : string
    - subDistrict: string
    - district: string
    - province : string
    - zipCode: string
    - lat : string
    - lng : string
    - createdAt : date
    - updatedAt : date

    + getOneAddress() : AddressEntity
    + getAllAddress() : AddressEntity[]
    + createAddress() : AddressEntity
    + updateAddress() : void
    + deleteAddress() : void
}

class Product {
    - id : uuid
    - name : string
    - price : decimal
    - desc : string
    - categoryId: number
    - userId: uuid
    - createdAt : date
    - updatedAt : date

    + getOneProduct() : ProductEntity
    + getAllProduct() : ProductEntity[]
    + createProduct() : ProductEntity
    + updateProduct() : void
    + deleteProduct() : void
}

class ProductImage {
    - id : uuid
    - image : string
    - productId : uuid
    - createdAt : date
    - updatedAt : date

    + getOneProductImage() : ProductImageEntity
    + getAllProductImage() : ProductImageEntity[]
    + createProductImage() : ProductImageEntity
    + updateProductImage() : void
    + deleteProductImage() : void
}

class Category {
    - id : number
    - name : string
    - desc : string
    - image: string
    - createdAt : date
    - updatedAt : date

    + getOneCategory() : CategoryEntity
    + getAllCategory() : CategoryEntity[]
    + createCategory() : CategoryEntity
    + updateCategory() : void
    + deleteCategory() : void
}


class IndigoTone {
    - id : uuid
    - name : string
    - ccid : string
    - hex : string
    - red : string
    - green : string
    - blue : string
    - createdAt : date
    - updatedAt : date

    + getOneIndigoTone() : IndigoToneEntity
    + getAllIndigoTone() : IndigoToneEntity[]
    + createIndigoTone() : IndigoToneEntity
    + updateIndigoTone() : void
    + deleteIndigoTone() : void
}


UserAccount "*" -up-> "1" RoleEum

User "1" -right-o "1" Address : "has"
User "1" -left-* "1" UserAccount : "has"

Product "0..*" - - "1" User

Admin "1" -right-* "1" UserAccount : "has"

Admin "1" -up- "*" IndigoTone : "manage"
Admin "1" - - "*" Category : "manage"

Product "0..*" - -* "1" Category : "have"
ProductImage "1..*" - -* "1" Product : "have"



@enduml

PlantUML version 1.2022.7(Tue Aug 23 00:01:30 ICT 2022)
(GPL source distribution)
Java Runtime: OpenJDK Runtime Environment
JVM: OpenJDK 64-Bit Server VM
Default Encoding: Cp1252
Language: en
Country: US
--></g></svg>