<?xml version="1.0" encoding="UTF-8" standalone="no"?><svg xmlns="http://www.w3.org/2000/svg" xmlns:xlink="http://www.w3.org/1999/xlink" contentStyleType="text/css" height="488.8px" preserveAspectRatio="none" style="width:640px;height:488px;background:#FFFFFF;" version="1.1" viewBox="0 0 640 488" width="640px" zoomAndPan="magnify"><defs/><g><text fill="#000000" font-family="Sarabun" font-size="11.2" font-weight="bold" lengthAdjust="spacing" textLength="89.6" x="274" y="26.1391">Activity Diagram</text><ellipse cx="320" cy="45.3125" fill="#222222" rx="8" ry="8" style="stroke:#222222;stroke-width:0.8000000000000002;"/><rect fill="#F1F1F1" height="30.3" rx="10" ry="10" style="stroke:#181818;stroke-width:0.4000000000000001;" width="241.6" x="199.2" y="69.3125"/><text fill="#000000" font-family="Sarabun" font-size="12.8" lengthAdjust="spacing" textLength="225.6" x="207.2" y="88.9">User or Member or Admin sends request</text><line style="stroke:#181818;stroke-width:1.2000000000000002;" x1="64" x2="590.8" y1="115.6125" y2="115.6125"/><rect fill="#F1F1F1" height="30.3" rx="10" ry="10" style="stroke:#181818;stroke-width:0.4000000000000001;" width="110.4" x="8.8" y="131.6125"/><text fill="#000000" font-family="Sarabun" font-size="12.8" lengthAdjust="spacing" textLength="94.4" x="16.8" y="151.2">Member Account</text><rect fill="#F1F1F1" height="30.3" rx="10" ry="10" style="stroke:#181818;stroke-width:0.4000000000000001;" width="96" x="141.6" y="131.6125"/><text fill="#000000" font-family="Sarabun" font-size="12.8" lengthAdjust="spacing" textLength="80" x="149.6" y="151.2">Color Scheme</text><rect fill="#F1F1F1" height="30.3" rx="10" ry="10" style="stroke:#181818;stroke-width:0.4000000000000001;" width="59.2" x="260" y="131.6125"/><text fill="#000000" font-family="Sarabun" font-size="12.8" lengthAdjust="spacing" textLength="43.2" x="268" y="151.2">Product</text><rect fill="#F1F1F1" height="30.3" rx="10" ry="10" style="stroke:#181818;stroke-width:0.4000000000000001;" width="96.8" x="341.6" y="131.6125"/><text fill="#000000" font-family="Sarabun" font-size="12.8" lengthAdjust="spacing" textLength="80.8" x="349.6" y="151.2">Product Image</text><rect fill="#F1F1F1" height="30.3" rx="10" ry="10" style="stroke:#181818;stroke-width:0.4000000000000001;" width="67.2" x="460.8" y="131.6125"/><text fill="#000000" font-family="Sarabun" font-size="12.8" lengthAdjust="spacing" textLength="51.2" x="468.8" y="151.2">Category</text><rect fill="#F1F1F1" height="30.3" rx="10" ry="10" style="stroke:#181818;stroke-width:0.4000000000000001;" width="80.8" x="550.4" y="131.6125"/><text fill="#000000" font-family="Sarabun" font-size="12.8" lengthAdjust="spacing" textLength="64.8" x="558.4" y="151.2">Group Data</text><line style="stroke:#181818;stroke-width:1.2000000000000002;" x1="64" x2="590.8" y1="177.9125" y2="177.9125"/><polygon fill="#F1F1F1" points="221.2,193.9125,418.8,193.9125,428.4,203.5125,418.8,213.1125,221.2,213.1125,211.6,203.5125,221.2,193.9125" style="stroke:#181818;stroke-width:0.4000000000000001;"/><text fill="#000000" font-family="Sarabun" font-size="12.8" lengthAdjust="spacing" textLength="197.6" x="221.2" y="207.95">Member or Admin is authenticated?</text><text fill="#000000" font-family="Sarabun" font-size="12.8" lengthAdjust="spacing" textLength="19.2" x="192.4" y="200.8">yes</text><text fill="#000000" font-family="Sarabun" font-size="12.8" lengthAdjust="spacing" textLength="13.6" x="428.4" y="200.8">no</text><rect fill="#F1F1F1" height="30.3" rx="10" ry="10" style="stroke:#181818;stroke-width:0.4000000000000001;" width="76.8" x="131.1" y="261.8625"/><text fill="#000000" font-family="Sarabun" font-size="12.8" lengthAdjust="spacing" textLength="60.8" x="139.1" y="281.45">Verify Role</text><polygon fill="#F1F1F1" points="120.7,221.1125,218.3,221.1125,227.9,230.7125,218.3,240.3125,120.7,240.3125,111.1,230.7125,120.7,221.1125" style="stroke:#181818;stroke-width:0.4000000000000001;"/><text fill="#000000" font-family="Sarabun" font-size="12.8" lengthAdjust="spacing" textLength="19.2" x="172.7" y="251.9">yes</text><text fill="#000000" font-family="Sarabun" font-size="12.8" lengthAdjust="spacing" textLength="97.6" x="120.7" y="235.15">Request is allow?</text><polygon fill="#F1F1F1" points="169.5,313.7125,179.1,323.3125,169.5,332.9125,159.9,323.3125,169.5,313.7125" style="stroke:#181818;stroke-width:0.4000000000000001;"/><polygon fill="#F1F1F1" points="105.9,352.9125,233.1,352.9125,242.7,362.5125,233.1,372.1125,105.9,372.1125,96.3,362.5125,105.9,352.9125" style="stroke:#181818;stroke-width:0.4000000000000001;"/><text fill="#000000" font-family="Sarabun" font-size="12.8" lengthAdjust="spacing" textLength="127.2" x="105.9" y="366.95">Request is successful?</text><text fill="#000000" font-family="Sarabun" font-size="12.8" lengthAdjust="spacing" textLength="19.2" x="77.1" y="359.8">yes</text><text fill="#000000" font-family="Sarabun" font-size="12.8" lengthAdjust="spacing" textLength="13.6" x="242.7" y="359.8">no</text><rect fill="#F1F1F1" height="30.3" rx="10" ry="10" style="stroke:#181818;stroke-width:0.4000000000000001;" width="100.8" x="37.9" y="380.1125"/><text fill="#000000" font-family="Sarabun" font-size="12.8" lengthAdjust="spacing" textLength="84.8" x="45.9" y="399.7">Send response</text><rect fill="#F1F1F1" height="30.3" rx="10" ry="10" style="stroke:#181818;stroke-width:0.4000000000000001;" width="130.4" x="185.5" y="380.1125"/><text fill="#000000" font-family="Sarabun" font-size="12.8" lengthAdjust="spacing" textLength="114.4" x="193.5" y="399.7">Send error response</text><polygon fill="#F1F1F1" points="169.5,415.2125,179.1,424.8125,169.5,434.4125,159.9,424.8125,169.5,415.2125" style="stroke:#181818;stroke-width:0.4000000000000001;"/><ellipse cx="169.5" cy="471.2125" fill="none" rx="8.8" ry="8.8" style="stroke:#222222;stroke-width:0.8000000000000002;"/><ellipse cx="169.5" cy="471.2125" fill="#222222" rx="4.8" ry="4.8" style="stroke:#111111;stroke-width:0.8000000000000002;"/><rect fill="#F1F1F1" height="30.3" rx="10" ry="10" style="stroke:#181818;stroke-width:0.4000000000000001;" width="124" x="408.5" y="221.1125"/><text fill="#000000" font-family="Sarabun" font-size="12.8" lengthAdjust="spacing" textLength="108" x="416.5" y="240.7">User sends request</text><polygon fill="#F1F1F1" points="421.7,279.4125,519.3,279.4125,528.9,289.0125,519.3,298.6125,421.7,298.6125,412.1,289.0125,421.7,279.4125" style="stroke:#181818;stroke-width:0.4000000000000001;"/><text fill="#000000" font-family="Sarabun" font-size="12.8" lengthAdjust="spacing" textLength="97.6" x="421.7" y="293.45">Request is allow?</text><text fill="#000000" font-family="Sarabun" font-size="12.8" lengthAdjust="spacing" textLength="19.2" x="392.9" y="286.3">yes</text><text fill="#000000" font-family="Sarabun" font-size="12.8" lengthAdjust="spacing" textLength="13.6" x="528.9" y="286.3">no</text><rect fill="#F1F1F1" height="30.3" rx="10" ry="10" style="stroke:#181818;stroke-width:0.4000000000000001;" width="107.2" x="347.9" y="306.6125"/><text fill="#000000" font-family="Sarabun" font-size="12.8" lengthAdjust="spacing" textLength="91.2" x="355.9" y="326.2">Process request</text><rect fill="#F1F1F1" height="30.3" rx="10" ry="10" style="stroke:#181818;stroke-width:0.4000000000000001;" width="100.8" x="351.1" y="356.9125"/><text fill="#000000" font-family="Sarabun" font-size="12.8" lengthAdjust="spacing" textLength="84.8" x="359.1" y="376.5">Send response</text><rect fill="#F1F1F1" height="30.3" rx="10" ry="10" style="stroke:#181818;stroke-width:0.4000000000000001;" width="136.8" x="471.1" y="306.6125"/><text fill="#000000" font-family="Sarabun" font-size="12.8" lengthAdjust="spacing" textLength="120.8" x="479.1" y="326.2">Send Error Response</text><polygon fill="#F1F1F1" points="470.5,392.0125,480.1,401.6125,470.5,411.2125,460.9,401.6125,470.5,392.0125" style="stroke:#181818;stroke-width:0.4000000000000001;"/><ellipse cx="470.5" cy="448.0125" fill="none" rx="8.8" ry="8.8" style="stroke:#222222;stroke-width:0.8000000000000002;"/><ellipse cx="470.5" cy="448.0125" fill="#222222" rx="4.8" ry="4.8" style="stroke:#111111;stroke-width:0.8000000000000002;"/><line style="stroke:#181818;stroke-width:0.8000000000000002;" x1="320" x2="320" y1="53.3125" y2="69.3125"/><polygon fill="#181818" points="316.8,61.3125,320,69.3125,323.2,61.3125,320,64.5125" style="stroke:#181818;stroke-width:0.8000000000000002;"/><line style="stroke:#181818;stroke-width:0.8000000000000002;" x1="64" x2="64" y1="116.8125" y2="131.6125"/><polygon fill="#181818" points="60.8,123.6125,64,131.6125,67.2,123.6125,64,126.8125" style="stroke:#181818;stroke-width:0.8000000000000002;"/><line style="stroke:#181818;stroke-width:0.8000000000000002;" x1="189.6" x2="189.6" y1="116.8125" y2="131.6125"/><polygon fill="#181818" points="186.4,123.6125,189.6,131.6125,192.8,123.6125,189.6,126.8125" style="stroke:#181818;stroke-width:0.8000000000000002;"/><line style="stroke:#181818;stroke-width:0.8000000000000002;" x1="289.6" x2="289.6" y1="116.8125" y2="131.6125"/><polygon fill="#181818" points="286.4,123.6125,289.6,131.6125,292.8,123.6125,289.6,126.8125" style="stroke:#181818;stroke-width:0.8000000000000002;"/><line style="stroke:#181818;stroke-width:0.8000000000000002;" x1="390" x2="390" y1="116.8125" y2="131.6125"/><polygon fill="#181818" points="386.8,123.6125,390,131.6125,393.2,123.6125,390,126.8125" style="stroke:#181818;stroke-width:0.8000000000000002;"/><line style="stroke:#181818;stroke-width:0.8000000000000002;" x1="494.4" x2="494.4" y1="116.8125" y2="131.6125"/><polygon fill="#181818" points="491.2,123.6125,494.4,131.6125,497.6,123.6125,494.4,126.8125" style="stroke:#181818;stroke-width:0.8000000000000002;"/><line style="stroke:#181818;stroke-width:0.8000000000000002;" x1="590.8" x2="590.8" y1="116.8125" y2="131.6125"/><polygon fill="#181818" points="587.6,123.6125,590.8,131.6125,594,123.6125,590.8,126.8125" style="stroke:#181818;stroke-width:0.8000000000000002;"/><line style="stroke:#181818;stroke-width:0.8000000000000002;" x1="64" x2="64" y1="161.9125" y2="177.9125"/><polygon fill="#181818" points="60.8,169.9125,64,177.9125,67.2,169.9125,64,173.1125" style="stroke:#181818;stroke-width:0.8000000000000002;"/><line style="stroke:#181818;stroke-width:0.8000000000000002;" x1="189.6" x2="189.6" y1="161.9125" y2="177.9125"/><polygon fill="#181818" points="186.4,169.9125,189.6,177.9125,192.8,169.9125,189.6,173.1125" style="stroke:#181818;stroke-width:0.8000000000000002;"/><line style="stroke:#181818;stroke-width:0.8000000000000002;" x1="289.6" x2="289.6" y1="161.9125" y2="177.9125"/><polygon fill="#181818" points="286.4,169.9125,289.6,177.9125,292.8,169.9125,289.6,173.1125" style="stroke:#181818;stroke-width:0.8000000000000002;"/><line style="stroke:#181818;stroke-width:0.8000000000000002;" x1="390" x2="390" y1="161.9125" y2="177.9125"/><polygon fill="#181818" points="386.8,169.9125,390,177.9125,393.2,169.9125,390,173.1125" style="stroke:#181818;stroke-width:0.8000000000000002;"/><line style="stroke:#181818;stroke-width:0.8000000000000002;" x1="494.4" x2="494.4" y1="161.9125" y2="177.9125"/><polygon fill="#181818" points="491.2,169.9125,494.4,177.9125,497.6,169.9125,494.4,173.1125" style="stroke:#181818;stroke-width:0.8000000000000002;"/><line style="stroke:#181818;stroke-width:0.8000000000000002;" x1="590.8" x2="590.8" y1="161.9125" y2="177.9125"/><polygon fill="#181818" points="587.6,169.9125,590.8,177.9125,594,169.9125,590.8,173.1125" style="stroke:#181818;stroke-width:0.8000000000000002;"/><line style="stroke:#181818;stroke-width:0.8000000000000002;" x1="320" x2="320" y1="99.6125" y2="115.6125"/><polygon fill="#181818" points="316.8,107.6125,320,115.6125,323.2,107.6125,320,110.8125" style="stroke:#181818;stroke-width:0.8000000000000002;"/><line style="stroke:#181818;stroke-width:0.8000000000000002;" x1="169.5" x2="169.5" y1="240.3125" y2="261.8625"/><polygon fill="#181818" points="166.3,253.8625,169.5,261.8625,172.7,253.8625,169.5,257.0625" style="stroke:#181818;stroke-width:0.8000000000000002;"/><line style="stroke:#181818;stroke-width:0.8000000000000002;" x1="227.9" x2="237.5" y1="230.7125" y2="230.7125"/><polygon fill="#181818" points="234.3,269.0125,237.5,277.0125,240.7,269.0125,237.5,272.2125" style="stroke:#181818;stroke-width:0.8000000000000002;"/><line style="stroke:#181818;stroke-width:0.8000000000000002;" x1="237.5" x2="237.5" y1="230.7125" y2="323.3125"/><line style="stroke:#181818;stroke-width:0.8000000000000002;" x1="237.5" x2="179.1" y1="323.3125" y2="323.3125"/><polygon fill="#181818" points="187.1,320.1125,179.1,323.3125,187.1,326.5125,183.9,323.3125" style="stroke:#181818;stroke-width:0.8000000000000002;"/><line style="stroke:#181818;stroke-width:0.8000000000000002;" x1="169.5" x2="169.5" y1="292.1625" y2="313.7125"/><polygon fill="#181818" points="166.3,305.7125,169.5,313.7125,172.7,305.7125,169.5,308.9125" style="stroke:#181818;stroke-width:0.8000000000000002;"/><line style="stroke:#181818;stroke-width:0.8000000000000002;" x1="96.3" x2="88.3" y1="362.5125" y2="362.5125"/><line style="stroke:#181818;stroke-width:0.8000000000000002;" x1="88.3" x2="88.3" y1="362.5125" y2="380.1125"/><polygon fill="#181818" points="85.1,372.1125,88.3,380.1125,91.5,372.1125,88.3,375.3125" style="stroke:#181818;stroke-width:0.8000000000000002;"/><line style="stroke:#181818;stroke-width:0.8000000000000002;" x1="242.7" x2="250.7" y1="362.5125" y2="362.5125"/><line style="stroke:#181818;stroke-width:0.8000000000000002;" x1="250.7" x2="250.7" y1="362.5125" y2="380.1125"/><polygon fill="#181818" points="247.5,372.1125,250.7,380.1125,253.9,372.1125,250.7,375.3125" style="stroke:#181818;stroke-width:0.8000000000000002;"/><line style="stroke:#181818;stroke-width:0.8000000000000002;" x1="88.3" x2="88.3" y1="410.4125" y2="424.8125"/><line style="stroke:#181818;stroke-width:0.8000000000000002;" x1="88.3" x2="159.9" y1="424.8125" y2="424.8125"/><polygon fill="#181818" points="151.9,421.6125,159.9,424.8125,151.9,428.0125,155.1,424.8125" style="stroke:#181818;stroke-width:0.8000000000000002;"/><line style="stroke:#181818;stroke-width:0.8000000000000002;" x1="250.7" x2="250.7" y1="410.4125" y2="424.8125"/><line style="stroke:#181818;stroke-width:0.8000000000000002;" x1="250.7" x2="179.1" y1="424.8125" y2="424.8125"/><polygon fill="#181818" points="187.1,421.6125,179.1,424.8125,187.1,428.0125,183.9,424.8125" style="stroke:#181818;stroke-width:0.8000000000000002;"/><line style="stroke:#181818;stroke-width:0.8000000000000002;" x1="169.5" x2="169.5" y1="332.9125" y2="352.9125"/><polygon fill="#181818" points="166.3,344.9125,169.5,352.9125,172.7,344.9125,169.5,348.1125" style="stroke:#181818;stroke-width:0.8000000000000002;"/><line style="stroke:#181818;stroke-width:0.8000000000000002;" x1="169.5" x2="169.5" y1="434.4125" y2="462.4125"/><polygon fill="#181818" points="166.3,454.4125,169.5,462.4125,172.7,454.4125,169.5,457.6125" style="stroke:#181818;stroke-width:0.8000000000000002;"/><line style="stroke:#181818;stroke-width:0.8000000000000002;" x1="401.5" x2="401.5" y1="336.9125" y2="356.9125"/><polygon fill="#181818" points="398.3,348.9125,401.5,356.9125,404.7,348.9125,401.5,352.1125" style="stroke:#181818;stroke-width:0.8000000000000002;"/><line style="stroke:#181818;stroke-width:0.8000000000000002;" x1="412.1" x2="401.5" y1="289.0125" y2="289.0125"/><line style="stroke:#181818;stroke-width:0.8000000000000002;" x1="401.5" x2="401.5" y1="289.0125" y2="306.6125"/><polygon fill="#181818" points="398.3,298.6125,401.5,306.6125,404.7,298.6125,401.5,301.8125" style="stroke:#181818;stroke-width:0.8000000000000002;"/><line style="stroke:#181818;stroke-width:0.8000000000000002;" x1="528.9" x2="539.5" y1="289.0125" y2="289.0125"/><line style="stroke:#181818;stroke-width:0.8000000000000002;" x1="539.5" x2="539.5" y1="289.0125" y2="306.6125"/><polygon fill="#181818" points="536.3,298.6125,539.5,306.6125,542.7,298.6125,539.5,301.8125" style="stroke:#181818;stroke-width:0.8000000000000002;"/><line style="stroke:#181818;stroke-width:0.8000000000000002;" x1="401.5" x2="401.5" y1="387.2125" y2="401.6125"/><line style="stroke:#181818;stroke-width:0.8000000000000002;" x1="401.5" x2="460.9" y1="401.6125" y2="401.6125"/><polygon fill="#181818" points="452.9,398.4125,460.9,401.6125,452.9,404.8125,456.1,401.6125" style="stroke:#181818;stroke-width:0.8000000000000002;"/><line style="stroke:#181818;stroke-width:0.8000000000000002;" x1="539.5" x2="539.5" y1="336.9125" y2="401.6125"/><line style="stroke:#181818;stroke-width:0.8000000000000002;" x1="539.5" x2="480.1" y1="401.6125" y2="401.6125"/><polygon fill="#181818" points="488.1,398.4125,480.1,401.6125,488.1,404.8125,484.9,401.6125" style="stroke:#181818;stroke-width:0.8000000000000002;"/><line style="stroke:#181818;stroke-width:0.8000000000000002;" x1="470.5" x2="470.5" y1="251.4125" y2="279.4125"/><polygon fill="#181818" points="467.3,271.4125,470.5,279.4125,473.7,271.4125,470.5,274.6125" style="stroke:#181818;stroke-width:0.8000000000000002;"/><line style="stroke:#181818;stroke-width:0.8000000000000002;" x1="470.5" x2="470.5" y1="411.2125" y2="439.2125"/><polygon fill="#181818" points="467.3,431.2125,470.5,439.2125,473.7,431.2125,470.5,434.4125" style="stroke:#181818;stroke-width:0.8000000000000002;"/><line style="stroke:#181818;stroke-width:0.8000000000000002;" x1="211.6" x2="169.5" y1="203.5125" y2="203.5125"/><line style="stroke:#181818;stroke-width:0.8000000000000002;" x1="169.5" x2="169.5" y1="203.5125" y2="221.1125"/><polygon fill="#181818" points="166.3,213.1125,169.5,221.1125,172.7,213.1125,169.5,216.3125" style="stroke:#181818;stroke-width:0.8000000000000002;"/><line style="stroke:#181818;stroke-width:0.8000000000000002;" x1="428.4" x2="470.5" y1="203.5125" y2="203.5125"/><line style="stroke:#181818;stroke-width:0.8000000000000002;" x1="470.5" x2="470.5" y1="203.5125" y2="221.1125"/><polygon fill="#181818" points="467.3,213.1125,470.5,221.1125,473.7,213.1125,470.5,216.3125" style="stroke:#181818;stroke-width:0.8000000000000002;"/><line style="stroke:#181818;stroke-width:0.8000000000000002;" x1="320" x2="320" y1="179.1125" y2="193.9125"/><polygon fill="#181818" points="316.8,185.9125,320,193.9125,323.2,185.9125,320,189.1125" style="stroke:#181818;stroke-width:0.8000000000000002;"/><!--SRC=[xLDDSzCm43rdVyNUI0vquhJqO0uGaj9fI20JDxahyjhL84j67s7ChsSTjoGq6GPk7AhnGQlttkh9UWegQCAn36gdGeDJ9KedAl1VbQa5pp2dGaGTFbeJFekACEFLRJJd6PdwGPXS0tWfk6qov5aGBW2aQqyEhSC5LTjkDiuhPT2JoJqw-XR9XxS0FLzh5Q3NIn-POobjD0nr28fIADFY4wkvIoOVgA9JTEbi7YNBaCSnXe_ZYO5tbIZFD9Y8GALrpIbowsoiSIg2QFso_wu_W2gm__nyogE8uO5CK98xvky6s5RORyWFMDvgLjtfzrojxVVVERpZXfmg6bnPtHhb7LLnelHHIlA-YFf4dhKU7VdQ6hzle3rXtzW3ICwnusDAjuSFjeO37NhTFJwxjByx1F_lrk2HxC_ENfstzajsimTMHq1dUk-Pg_TSnae3X9UClsJyVypulqTvgOK9wyKST-IyiWQJYz5mT7anxDz7mfdWXI4Ea_IIlokycznZ2m-WVxkSexVHIS9S-U3KDWRM3s0cTW9N73vLKOfVQZApwQUd1RmnE-MigVXgORPP70ZNLwy_S5uoSkm4DmkOTY-45TBcofGfJkfaz6O4Ss7AoEbBaGnCsfYx9iLrzXC0]--></g></svg>