<?xml version="1.0" encoding="UTF-8" standalone="no"?><svg xmlns="http://www.w3.org/2000/svg" xmlns:xlink="http://www.w3.org/1999/xlink" contentStyleType="text/css" height="1080px" preserveAspectRatio="none" style="width:538px;height:1080px;background:#FFFFFF;" version="1.1" viewBox="0 0 538 1080" width="538px" zoomAndPan="magnify"><defs/><g><text fill="#000000" font-family="sans-serif" font-size="14" font-weight="bold" lengthAdjust="spacing" textLength="132" x="214.25" y="27.6738">Sequence Diagram</text><rect fill="#FFFFFF" height="196.1406" style="stroke:#181818;stroke-width:1.0;" width="10" x="32.5" y="147.8047"/><rect fill="#FFFFFF" height="287.7109" style="stroke:#181818;stroke-width:1.0;" width="10" x="88.5" y="364.4688"/><rect fill="#FFFFFF" height="287.7109" style="stroke:#181818;stroke-width:1.0;" width="10" x="149.5" y="687.7031"/><rect fill="#FFFFFF" height="863.1328" style="stroke:#181818;stroke-width:1.0;" width="10" x="307.5" y="127.2813"/><rect fill="#FFFFFF" height="28.5234" style="stroke:#181818;stroke-width:1.0;" width="10" x="455.5" y="199.8516"/><rect fill="#FFFFFF" height="28.5234" style="stroke:#181818;stroke-width:1.0;" width="10" x="455.5" y="523.0859"/><rect fill="#FFFFFF" height="28.5234" style="stroke:#181818;stroke-width:1.0;" width="10" x="455.5" y="846.3203"/><rect fill="none" height="174.1406" style="stroke:#000000;stroke-width:1.5;" width="521.5" x="10" y="162.8047"/><rect fill="none" height="215.6641" style="stroke:#000000;stroke-width:1.5;" width="476.5" x="55" y="444.5156"/><rect fill="none" height="215.6641" style="stroke:#000000;stroke-width:1.5;" width="409.5" x="122" y="767.75"/><line style="stroke:#181818;stroke-width:0.5;stroke-dasharray:5.0,5.0;" x1="37" x2="37" y1="117.2813" y2="1000.4141"/><line style="stroke:#181818;stroke-width:0.5;stroke-dasharray:5.0,5.0;" x1="93" x2="93" y1="117.2813" y2="1000.4141"/><line style="stroke:#181818;stroke-width:0.5;stroke-dasharray:5.0,5.0;" x1="154" x2="154" y1="117.2813" y2="1000.4141"/><line style="stroke:#181818;stroke-width:0.5;stroke-dasharray:5.0,5.0;" x1="312.5" x2="312.5" y1="117.2813" y2="1000.4141"/><line style="stroke:#181818;stroke-width:0.5;stroke-dasharray:5.0,5.0;" x1="460.5" x2="460.5" y1="117.2813" y2="1000.4141"/><text fill="#000000" font-family="sans-serif" font-size="14" lengthAdjust="spacing" textLength="29" x="20" y="114.3145">User</text><ellipse cx="37.5" cy="50.1406" fill="#E2E2F0" rx="8" ry="8" style="stroke:#181818;stroke-width:0.5;"/><path d="M37.5,58.1406 L37.5,85.1406 M24.5,66.1406 L50.5,66.1406 M37.5,85.1406 L24.5,100.1406 M37.5,85.1406 L50.5,100.1406 " fill="none" style="stroke:#181818;stroke-width:0.5;"/><text fill="#000000" font-family="sans-serif" font-size="14" lengthAdjust="spacing" textLength="29" x="20" y="1012.0879">User</text><ellipse cx="37.5" cy="1023.5547" fill="#E2E2F0" rx="8" ry="8" style="stroke:#181818;stroke-width:0.5;"/><path d="M37.5,1031.5547 L37.5,1058.5547 M24.5,1039.5547 L50.5,1039.5547 M37.5,1058.5547 L24.5,1073.5547 M37.5,1058.5547 L50.5,1073.5547 " fill="none" style="stroke:#181818;stroke-width:0.5;"/><text fill="#000000" font-family="sans-serif" font-size="14" lengthAdjust="spacing" textLength="51" x="65" y="114.3145">Member</text><ellipse cx="93.5" cy="50.1406" fill="#E2E2F0" rx="8" ry="8" style="stroke:#181818;stroke-width:0.5;"/><path d="M93.5,58.1406 L93.5,85.1406 M80.5,66.1406 L106.5,66.1406 M93.5,85.1406 L80.5,100.1406 M93.5,85.1406 L106.5,100.1406 " fill="none" style="stroke:#181818;stroke-width:0.5;"/><text fill="#000000" font-family="sans-serif" font-size="14" lengthAdjust="spacing" textLength="51" x="65" y="1012.0879">Member</text><ellipse cx="93.5" cy="1023.5547" fill="#E2E2F0" rx="8" ry="8" style="stroke:#181818;stroke-width:0.5;"/><path d="M93.5,1031.5547 L93.5,1058.5547 M80.5,1039.5547 L106.5,1039.5547 M93.5,1058.5547 L80.5,1073.5547 M93.5,1058.5547 L106.5,1073.5547 " fill="none" style="stroke:#181818;stroke-width:0.5;"/><text fill="#000000" font-family="sans-serif" font-size="14" lengthAdjust="spacing" textLength="39" x="132" y="114.3145">Admin</text><ellipse cx="154.5" cy="50.1406" fill="#E2E2F0" rx="8" ry="8" style="stroke:#181818;stroke-width:0.5;"/><path d="M154.5,58.1406 L154.5,85.1406 M141.5,66.1406 L167.5,66.1406 M154.5,85.1406 L141.5,100.1406 M154.5,85.1406 L167.5,100.1406 " fill="none" style="stroke:#181818;stroke-width:0.5;"/><text fill="#000000" font-family="sans-serif" font-size="14" lengthAdjust="spacing" textLength="39" x="132" y="1012.0879">Admin</text><ellipse cx="154.5" cy="1023.5547" fill="#E2E2F0" rx="8" ry="8" style="stroke:#181818;stroke-width:0.5;"/><path d="M154.5,1031.5547 L154.5,1058.5547 M141.5,1039.5547 L167.5,1039.5547 M154.5,1058.5547 L141.5,1073.5547 M154.5,1058.5547 L167.5,1073.5547 " fill="none" style="stroke:#181818;stroke-width:0.5;"/><rect fill="#E2E2F0" height="29.6406" rx="2.5" ry="2.5" style="stroke:#181818;stroke-width:0.5;" width="116" x="254.5" y="86.6406"/><text fill="#000000" font-family="sans-serif" font-size="14" lengthAdjust="spacing" textLength="102" x="261.5" y="106.3145">Web Application</text><rect fill="#E2E2F0" height="29.6406" rx="2.5" ry="2.5" style="stroke:#181818;stroke-width:0.5;" width="116" x="254.5" y="999.4141"/><text fill="#000000" font-family="sans-serif" font-size="14" lengthAdjust="spacing" textLength="102" x="261.5" y="1019.0879">Web Application</text><rect fill="#E2E2F0" height="29.6406" rx="2.5" ry="2.5" style="stroke:#181818;stroke-width:0.5;" width="122" x="399.5" y="86.6406"/><text fill="#000000" font-family="sans-serif" font-size="14" lengthAdjust="spacing" textLength="108" x="406.5" y="106.3145">RESTFul Service</text><rect fill="#E2E2F0" height="29.6406" rx="2.5" ry="2.5" style="stroke:#181818;stroke-width:0.5;" width="122" x="399.5" y="999.4141"/><text fill="#000000" font-family="sans-serif" font-size="14" lengthAdjust="spacing" textLength="108" x="406.5" y="1019.0879">RESTFul Service</text><rect fill="#FFFFFF" height="196.1406" style="stroke:#181818;stroke-width:1.0;" width="10" x="32.5" y="147.8047"/><rect fill="#FFFFFF" height="287.7109" style="stroke:#181818;stroke-width:1.0;" width="10" x="88.5" y="364.4688"/><rect fill="#FFFFFF" height="287.7109" style="stroke:#181818;stroke-width:1.0;" width="10" x="149.5" y="687.7031"/><rect fill="#FFFFFF" height="863.1328" style="stroke:#181818;stroke-width:1.0;" width="10" x="307.5" y="127.2813"/><rect fill="#FFFFFF" height="28.5234" style="stroke:#181818;stroke-width:1.0;" width="10" x="455.5" y="199.8516"/><rect fill="#FFFFFF" height="28.5234" style="stroke:#181818;stroke-width:1.0;" width="10" x="455.5" y="523.0859"/><rect fill="#FFFFFF" height="28.5234" style="stroke:#181818;stroke-width:1.0;" width="10" x="455.5" y="846.3203"/><polygon fill="#181818" points="295.5,143.8047,305.5,147.8047,295.5,151.8047,299.5,147.8047" style="stroke:#181818;stroke-width:1.0;"/><line style="stroke:#181818;stroke-width:1.0;" x1="42.5" x2="301.5" y1="147.8047" y2="147.8047"/><text fill="#000000" font-family="sans-serif" font-size="13" lengthAdjust="spacing" textLength="82" x="49.5" y="143.0498">Send Request</text><path d="M10,162.8047 L71,162.8047 L71,169.3281 L61,179.3281 L10,179.3281 L10,162.8047 " fill="#EEEEEE" style="stroke:#000000;stroke-width:1.5;"/><rect fill="none" height="174.1406" style="stroke:#000000;stroke-width:1.5;" width="521.5" x="10" y="162.8047"/><text fill="#000000" font-family="sans-serif" font-size="13" font-weight="bold" lengthAdjust="spacing" textLength="16" x="25" y="175.5732">alt</text><text fill="#000000" font-family="sans-serif" font-size="11" font-weight="bold" lengthAdjust="spacing" textLength="113" x="86" y="174.7627">[Request is allowed]</text><polygon fill="#181818" points="443.5,195.8516,453.5,199.8516,443.5,203.8516,447.5,199.8516" style="stroke:#181818;stroke-width:1.0;"/><line style="stroke:#181818;stroke-width:1.0;" x1="317.5" x2="449.5" y1="199.8516" y2="199.8516"/><text fill="#000000" font-family="sans-serif" font-size="13" lengthAdjust="spacing" textLength="82" x="324.5" y="195.0967">Send Request</text><polygon fill="#181818" points="328.5,224.375,318.5,228.375,328.5,232.375,324.5,228.375" style="stroke:#181818;stroke-width:1.0;"/><line style="stroke:#181818;stroke-width:1.0;stroke-dasharray:2.0,2.0;" x1="322.5" x2="459.5" y1="228.375" y2="228.375"/><text fill="#000000" font-family="sans-serif" font-size="13" lengthAdjust="spacing" textLength="92" x="334.5" y="223.6201">Send Response</text><polygon fill="#181818" points="53.5,252.8984,43.5,256.8984,53.5,260.8984,49.5,256.8984" style="stroke:#181818;stroke-width:1.0;"/><line style="stroke:#181818;stroke-width:1.0;" x1="47.5" x2="306.5" y1="256.8984" y2="256.8984"/><text fill="#000000" font-family="sans-serif" font-size="13" lengthAdjust="spacing" textLength="92" x="59.5" y="252.1436">Send Response</text><line style="stroke:#000000;stroke-width:1.0;stroke-dasharray:2.0,2.0;" x1="10" x2="531.5" y1="265.8984" y2="265.8984"/><line style="stroke:#181818;stroke-width:1.0;" x1="317.5" x2="359.5" y1="287.4219" y2="287.4219"/><line style="stroke:#181818;stroke-width:1.0;" x1="359.5" x2="359.5" y1="287.4219" y2="300.4219"/><line style="stroke:#181818;stroke-width:1.0;" x1="318.5" x2="359.5" y1="300.4219" y2="300.4219"/><polygon fill="#181818" points="328.5,296.4219,318.5,300.4219,328.5,304.4219,324.5,300.4219" style="stroke:#181818;stroke-width:1.0;"/><text fill="#000000" font-family="sans-serif" font-size="13" lengthAdjust="spacing" textLength="124" x="324.5" y="282.667">Send Error Response</text><polygon fill="#181818" points="53.5,324.9453,43.5,328.9453,53.5,332.9453,49.5,328.9453" style="stroke:#181818;stroke-width:1.0;"/><line style="stroke:#181818;stroke-width:1.0;" x1="47.5" x2="306.5" y1="328.9453" y2="328.9453"/><text fill="#000000" font-family="sans-serif" font-size="13" lengthAdjust="spacing" textLength="124" x="59.5" y="324.1904">Send Error Response</text><polygon fill="#181818" points="295.5,360.4688,305.5,364.4688,295.5,368.4688,299.5,364.4688" style="stroke:#181818;stroke-width:1.0;"/><line style="stroke:#181818;stroke-width:1.0;" x1="98.5" x2="301.5" y1="364.4688" y2="364.4688"/><text fill="#000000" font-family="sans-serif" font-size="13" lengthAdjust="spacing" textLength="82" x="105.5" y="359.7139">Send Request</text><line style="stroke:#181818;stroke-width:1.0;" x1="317.5" x2="359.5" y1="416.5156" y2="416.5156"/><line style="stroke:#181818;stroke-width:1.0;" x1="359.5" x2="359.5" y1="416.5156" y2="429.5156"/><line style="stroke:#181818;stroke-width:1.0;" x1="318.5" x2="359.5" y1="429.5156" y2="429.5156"/><polygon fill="#181818" points="328.5,425.5156,318.5,429.5156,328.5,433.5156,324.5,429.5156" style="stroke:#181818;stroke-width:1.0;"/><text fill="#000000" font-family="sans-serif" font-size="13" lengthAdjust="spacing" textLength="73" x="324.5" y="411.7607">Authenticate</text><path d="M55,444.5156 L116,444.5156 L116,451.0391 L106,461.0391 L55,461.0391 L55,444.5156 " fill="#EEEEEE" style="stroke:#000000;stroke-width:1.5;"/><rect fill="none" height="215.6641" style="stroke:#000000;stroke-width:1.5;" width="476.5" x="55" y="444.5156"/><text fill="#000000" font-family="sans-serif" font-size="13" font-weight="bold" lengthAdjust="spacing" textLength="16" x="70" y="457.2842">alt</text><text fill="#000000" font-family="sans-serif" font-size="11" font-weight="bold" lengthAdjust="spacing" textLength="113" x="131" y="456.4736">[Request is allowed]</text><line style="stroke:#181818;stroke-width:1.0;" x1="317.5" x2="359.5" y1="481.5625" y2="481.5625"/><line style="stroke:#181818;stroke-width:1.0;" x1="359.5" x2="359.5" y1="481.5625" y2="494.5625"/><line style="stroke:#181818;stroke-width:1.0;" x1="318.5" x2="359.5" y1="494.5625" y2="494.5625"/><polygon fill="#181818" points="328.5,490.5625,318.5,494.5625,328.5,498.5625,324.5,494.5625" style="stroke:#181818;stroke-width:1.0;"/><text fill="#000000" font-family="sans-serif" font-size="13" lengthAdjust="spacing" textLength="63" x="324.5" y="476.8076">Verify Role</text><polygon fill="#181818" points="443.5,519.0859,453.5,523.0859,443.5,527.0859,447.5,523.0859" style="stroke:#181818;stroke-width:1.0;"/><line style="stroke:#181818;stroke-width:1.0;" x1="317.5" x2="449.5" y1="523.0859" y2="523.0859"/><text fill="#000000" font-family="sans-serif" font-size="13" lengthAdjust="spacing" textLength="82" x="324.5" y="518.3311">Send Request</text><polygon fill="#181818" points="328.5,547.6094,318.5,551.6094,328.5,555.6094,324.5,551.6094" style="stroke:#181818;stroke-width:1.0;"/><line style="stroke:#181818;stroke-width:1.0;stroke-dasharray:2.0,2.0;" x1="322.5" x2="459.5" y1="551.6094" y2="551.6094"/><text fill="#000000" font-family="sans-serif" font-size="13" lengthAdjust="spacing" textLength="92" x="334.5" y="546.8545">Send Response</text><polygon fill="#181818" points="109.5,576.1328,99.5,580.1328,109.5,584.1328,105.5,580.1328" style="stroke:#181818;stroke-width:1.0;"/><line style="stroke:#181818;stroke-width:1.0;" x1="103.5" x2="306.5" y1="580.1328" y2="580.1328"/><text fill="#000000" font-family="sans-serif" font-size="13" lengthAdjust="spacing" textLength="92" x="115.5" y="575.3779">Send Response</text><line style="stroke:#000000;stroke-width:1.0;stroke-dasharray:2.0,2.0;" x1="55" x2="531.5" y1="589.1328" y2="589.1328"/><line style="stroke:#181818;stroke-width:1.0;" x1="317.5" x2="359.5" y1="610.6563" y2="610.6563"/><line style="stroke:#181818;stroke-width:1.0;" x1="359.5" x2="359.5" y1="610.6563" y2="623.6563"/><line style="stroke:#181818;stroke-width:1.0;" x1="318.5" x2="359.5" y1="623.6563" y2="623.6563"/><polygon fill="#181818" points="328.5,619.6563,318.5,623.6563,328.5,627.6563,324.5,623.6563" style="stroke:#181818;stroke-width:1.0;"/><text fill="#000000" font-family="sans-serif" font-size="13" lengthAdjust="spacing" textLength="124" x="324.5" y="605.9014">Send Error Response</text><polygon fill="#181818" points="104.5,648.1797,94.5,652.1797,104.5,656.1797,100.5,652.1797" style="stroke:#181818;stroke-width:1.0;"/><line style="stroke:#181818;stroke-width:1.0;" x1="98.5" x2="306.5" y1="652.1797" y2="652.1797"/><text fill="#000000" font-family="sans-serif" font-size="13" lengthAdjust="spacing" textLength="124" x="110.5" y="647.4248">Send Error Response</text><polygon fill="#181818" points="295.5,683.7031,305.5,687.7031,295.5,691.7031,299.5,687.7031" style="stroke:#181818;stroke-width:1.0;"/><line style="stroke:#181818;stroke-width:1.0;" x1="159.5" x2="301.5" y1="687.7031" y2="687.7031"/><text fill="#000000" font-family="sans-serif" font-size="13" lengthAdjust="spacing" textLength="82" x="166.5" y="682.9482">Send Request</text><line style="stroke:#181818;stroke-width:1.0;" x1="317.5" x2="359.5" y1="739.75" y2="739.75"/><line style="stroke:#181818;stroke-width:1.0;" x1="359.5" x2="359.5" y1="739.75" y2="752.75"/><line style="stroke:#181818;stroke-width:1.0;" x1="318.5" x2="359.5" y1="752.75" y2="752.75"/><polygon fill="#181818" points="328.5,748.75,318.5,752.75,328.5,756.75,324.5,752.75" style="stroke:#181818;stroke-width:1.0;"/><text fill="#000000" font-family="sans-serif" font-size="13" lengthAdjust="spacing" textLength="73" x="324.5" y="734.9951">Authenticate</text><path d="M122,767.75 L183,767.75 L183,774.2734 L173,784.2734 L122,784.2734 L122,767.75 " fill="#EEEEEE" style="stroke:#000000;stroke-width:1.5;"/><rect fill="none" height="215.6641" style="stroke:#000000;stroke-width:1.5;" width="409.5" x="122" y="767.75"/><text fill="#000000" font-family="sans-serif" font-size="13" font-weight="bold" lengthAdjust="spacing" textLength="16" x="137" y="780.5186">alt</text><text fill="#000000" font-family="sans-serif" font-size="11" font-weight="bold" lengthAdjust="spacing" textLength="113" x="198" y="779.708">[Request is allowed]</text><line style="stroke:#181818;stroke-width:1.0;" x1="317.5" x2="359.5" y1="804.7969" y2="804.7969"/><line style="stroke:#181818;stroke-width:1.0;" x1="359.5" x2="359.5" y1="804.7969" y2="817.7969"/><line style="stroke:#181818;stroke-width:1.0;" x1="318.5" x2="359.5" y1="817.7969" y2="817.7969"/><polygon fill="#181818" points="328.5,813.7969,318.5,817.7969,328.5,821.7969,324.5,817.7969" style="stroke:#181818;stroke-width:1.0;"/><text fill="#000000" font-family="sans-serif" font-size="13" lengthAdjust="spacing" textLength="63" x="324.5" y="800.042">Verify Role</text><polygon fill="#181818" points="443.5,842.3203,453.5,846.3203,443.5,850.3203,447.5,846.3203" style="stroke:#181818;stroke-width:1.0;"/><line style="stroke:#181818;stroke-width:1.0;" x1="317.5" x2="449.5" y1="846.3203" y2="846.3203"/><text fill="#000000" font-family="sans-serif" font-size="13" lengthAdjust="spacing" textLength="82" x="324.5" y="841.5654">Send Request</text><polygon fill="#181818" points="328.5,870.8438,318.5,874.8438,328.5,878.8438,324.5,874.8438" style="stroke:#181818;stroke-width:1.0;"/><line style="stroke:#181818;stroke-width:1.0;stroke-dasharray:2.0,2.0;" x1="322.5" x2="459.5" y1="874.8438" y2="874.8438"/><text fill="#000000" font-family="sans-serif" font-size="13" lengthAdjust="spacing" textLength="92" x="334.5" y="870.0889">Send Response</text><polygon fill="#181818" points="170.5,899.3672,160.5,903.3672,170.5,907.3672,166.5,903.3672" style="stroke:#181818;stroke-width:1.0;"/><line style="stroke:#181818;stroke-width:1.0;" x1="164.5" x2="306.5" y1="903.3672" y2="903.3672"/><text fill="#000000" font-family="sans-serif" font-size="13" lengthAdjust="spacing" textLength="92" x="176.5" y="898.6123">Send Response</text><line style="stroke:#000000;stroke-width:1.0;stroke-dasharray:2.0,2.0;" x1="122" x2="531.5" y1="912.3672" y2="912.3672"/><line style="stroke:#181818;stroke-width:1.0;" x1="317.5" x2="359.5" y1="933.8906" y2="933.8906"/><line style="stroke:#181818;stroke-width:1.0;" x1="359.5" x2="359.5" y1="933.8906" y2="946.8906"/><line style="stroke:#181818;stroke-width:1.0;" x1="318.5" x2="359.5" y1="946.8906" y2="946.8906"/><polygon fill="#181818" points="328.5,942.8906,318.5,946.8906,328.5,950.8906,324.5,946.8906" style="stroke:#181818;stroke-width:1.0;"/><text fill="#000000" font-family="sans-serif" font-size="13" lengthAdjust="spacing" textLength="124" x="324.5" y="929.1357">Send Error Response</text><polygon fill="#181818" points="165.5,971.4141,155.5,975.4141,165.5,979.4141,161.5,975.4141" style="stroke:#181818;stroke-width:1.0;"/><line style="stroke:#181818;stroke-width:1.0;" x1="159.5" x2="306.5" y1="975.4141" y2="975.4141"/><text fill="#000000" font-family="sans-serif" font-size="13" lengthAdjust="spacing" textLength="124" x="171.5" y="970.6592">Send Error Response</text><!--SRC=[tPNBJiCm44Nt_efHDgpw0ooG8b5sR58UQpSPm9BZ17jInDzZntauJaCReGh4SXw-Tpm-IaYGHDZXUuCgHxWL_5Npal6SAWt9eq6T03VGnYxgA_TOxiEQZ_jgMfH2ZSKsPApccaGkQgu8acVSGrhNKkISHEMRRIv8JVkpxUxXhf5sL7qGERRzNQvBENDnu8In3XkcXyrDLBosWgg0p2t0q2WHN5XINmPXBoHbzO45cyeuuUaqaV2e70tDfZ5ibaSqTQKCigkvzVS72bmodoiDzuv5K9fZ_KUTjrfR2eQZfrsY0pOL3Zs-1GjOM_cM7Q1dB2zjw0qLkHXXG21qTXW4JGLR9yhEPogMUK8jNZuXgoIk9N29WT_aRmaDl-VB8pZnYOxC2Em8Sd2oyREs4aF_AVmPXTxtRq3udobiztnv24ERKmnwV5e4mrhqm_i2]--></g></svg>