<?xml version="1.0" encoding="UTF-8" standalone="no"?><svg xmlns="http://www.w3.org/2000/svg" xmlns:xlink="http://www.w3.org/1999/xlink" contentStyleType="text/css" height="324px" preserveAspectRatio="none" style="width:682px;height:324px;background:#FFFFFF;" version="1.1" viewBox="0 0 682 324" width="682.4px" zoomAndPan="magnify"><defs/><g><!--cluster Admin Use Case Diagram--><g id="cluster_Admin Use Case Diagram"><path d="M6.8,4.8 L146.8,4.8 A3,3 0 0 1 148.8,6.8 L154.4,22.1125 L674.8,22.1125 A2,2 0 0 1 676.8,24.1125 L676.8,316.4 A2,2 0 0 1 674.8,318.4 L6.8,318.4 A2,2 0 0 1 4.8,316.4 L4.8,6.8 A2,2 0 0 1 6.8,4.8 " fill="none" style="stroke:#000000;stroke-width:1.2000000000000002;"/><line style="stroke:#000000;stroke-width:1.2000000000000002;" x1="4.8" x2="154.4" y1="22.1125" y2="22.1125"/><text fill="#000000" font-family="Sarabun" font-size="11.2" font-weight="bold" lengthAdjust="spacing" textLength="139.2" x="8" y="16.5391">Admin Use Case Diagram</text></g><!--cluster System Boundary--><g id="cluster_System Boundary"><rect fill="none" height="193.6" rx="2" ry="2" style="stroke:#181818;stroke-width:0.8000000000000002;" width="633.6" x="24" y="105.6"/><text fill="#000000" font-family="Sarabun" font-size="11.2" font-weight="bold" lengthAdjust="spacing" textLength="96.8" x="292.4" y="117.3391">System Boundary</text></g><!--entity actorAdmin--><g id="elem_actorAdmin"><ellipse cx="287.6" cy="38.8" fill="#F1F1F1" rx="6.4" ry="6.4" style="stroke:#181818;stroke-width:0.4000000000000001;"/><path d="M287.6,45.2 L287.6,66.8 M277.2,51.6 L298,51.6 M287.6,66.8 L277.2,78.8 M287.6,66.8 L298,78.8 " fill="none" style="stroke:#181818;stroke-width:0.4000000000000001;"/><text fill="#000000" font-family="Sarabun" font-size="11.2" lengthAdjust="spacing" textLength="31.2" x="272" y="90.1391">Admin</text></g><g id="elem_usecaseGroupData"><ellipse cx="86.0472" cy="152.9694" fill="#103D81" rx="49.2472" ry="11.7694" style="stroke:#181818;stroke-width:0.4000000000000001;"/><text fill="#FFFFFF" font-family="Sarabun" font-size="11.2" lengthAdjust="spacing" textLength="59.2" x="54.0472" y="155.839">Group Data</text></g><g id="elem_usecaseProduct"><ellipse cx="287.7969" cy="267.2708" fill="#103D81" rx="36.9969" ry="11.2708" style="stroke:#181818;stroke-width:0.4000000000000001;"/><text fill="#FFFFFF" font-family="Sarabun" font-size="11.2" lengthAdjust="spacing" textLength="39.2" x="266.4329" y="270.0059">Product</text></g><g id="elem_usecaseProductImage"><ellipse cx="542.5651" cy="273.553" fill="#F1F1F1" rx="54.1651" ry="12.753" style="stroke:#181818;stroke-width:0.4000000000000001;"/><text fill="#000000" font-family="Sarabun" font-size="11.2" lengthAdjust="spacing" textLength="72.8" x="505.0072" y="276.1408">Product Image</text></g><g id="elem_usecaseIndigoTone"><ellipse cx="542.2276" cy="210.3655" fill="#103D81" rx="102.2276" ry="22.3655" style="stroke:#181818;stroke-width:0.4000000000000001;"/><text fill="#FFFFFF" font-family="Sarabun" font-size="11.2" lengthAdjust="spacing" textLength="180" x="452.2276" y="212.6483">Color Scheme of Natural Indigo Dye</text></g><g id="elem_usecaseCategory"><ellipse cx="85.9162" cy="220.1188" fill="#103D81" rx="42.3162" ry="11.3188" style="stroke:#181818;stroke-width:0.4000000000000001;"/><text fill="#FFFFFF" font-family="Sarabun" font-size="11.2" lengthAdjust="spacing" textLength="46.4" x="60.3162" y="222.9883">Category</text></g><g id="elem_usecaseAuthentication"><ellipse cx="287.4573" cy="215.0915" fill="#103D81" rx="53.8573" ry="12.6915" style="stroke:#181818;stroke-width:0.4000000000000001;"/><text fill="#FFFFFF" font-family="Sarabun" font-size="11.2" lengthAdjust="spacing" textLength="72" x="250.1383" y="217.7184">Authentication</text></g><g id="elem_usecaseUserAccount"><ellipse cx="542.2247" cy="146.5249" fill="#103D81" rx="59.0247" ry="13.7249" style="stroke:#181818;stroke-width:0.4000000000000001;"/><text fill="#FFFFFF" font-family="Sarabun" font-size="11.2" lengthAdjust="spacing" textLength="84.8" x="499.8247" y="148.8078">Member Account</text></g><!--link usecaseGroupData to actorAdmin--><g id="link_usecaseGroupData_actorAdmin"><path d="M97.8,141.256 C118.048,120 159.2,76.8 159.2,76.8 C159.2,76.8 238.256,67.88 271.912,64.08 " fill="none" id="usecaseGroupData-actorAdmin" style="stroke:#181818;stroke-width:0.8000000000000002;"/><text fill="#000000" font-family="Sarabun" font-size="11.2" lengthAdjust="spacing" textLength="31.2" x="168.8" y="69.3391">CRUD</text></g><!--link usecaseProduct to usecaseIndigoTone--><g id="link_usecaseProduct_usecaseIndigoTone"><path d="M316.928,260.4 C338.92,255.16 365.6,248.8 365.6,248.8 C365.6,248.8 417.736,237.424 465.256,227.056 " fill="none" id="usecaseProduct-to-usecaseIndigoTone" style="stroke:#181818;stroke-width:0.8000000000000002;stroke-dasharray:7.0,7.0;"/><polygon fill="#181818" points="469.256,226.184,461.5421,224.579,465.3465,227.0299,462.8956,230.8343,469.256,226.184" style="stroke:#181818;stroke-width:0.8000000000000002;"/><text fill="#000000" font-family="Sarabun" font-size="11.2" lengthAdjust="spacing" textLength="48.8" x="366.4" y="235.7391">«include»</text></g><!--link usecaseProduct to usecaseProductImage--><g id="link_usecaseProduct_usecaseProductImage"><path d="M324.408,268.112 C366.104,269.168 435.344,270.912 484.424,272.152 " fill="none" id="usecaseProduct-to-usecaseProductImage" style="stroke:#181818;stroke-width:0.8000000000000002;stroke-dasharray:7.0,7.0;"/><polygon fill="#181818" points="488.512,272.256,481.3966,268.872,484.5133,272.1532,481.2321,275.2699,488.512,272.256" style="stroke:#181818;stroke-width:0.8000000000000002;"/><text fill="#000000" font-family="Sarabun" font-size="11.2" lengthAdjust="spacing" textLength="48.8" x="366.4" y="266.1391">«include»</text></g><!--reverse link usecaseCategory to usecaseProduct--><g id="link_usecaseCategory_usecaseProduct"><path d="M121.952,228.296 C160.64,237.424 222.104,251.928 258.04,260.416 " fill="none" id="usecaseCategory-backto-usecaseProduct" style="stroke:#181818;stroke-width:0.8000000000000002;stroke-dasharray:7.0,7.0;"/><polygon fill="#181818" points="118.048,227.376,124.3268,232.1359,121.9423,228.2896,125.7886,225.9051,118.048,227.376" style="stroke:#181818;stroke-width:0.8000000000000002;"/><text fill="#000000" font-family="Sarabun" font-size="11.2" lengthAdjust="spacing" textLength="48.8" x="160" y="234.9391">«include»</text></g><!--link usecaseProduct to actorAdmin--><g id="link_usecaseProduct_actorAdmin"><path d="M267.184,257.824 C251.896,250.8 233.6,242.4 233.6,242.4 C233.6,242.4 184.8,137.2 184.8,137.2 C184.8,137.2 184.8,123.6 184.8,123.6 C184.8,123.6 243.232,88.816 271.984,71.696 " fill="none" id="usecaseProduct-actorAdmin" style="stroke:#181818;stroke-width:0.8000000000000002;"/><text fill="#000000" font-family="Sarabun" font-size="11.2" lengthAdjust="spacing" textLength="31.2" x="168.8" y="134.5391">CRUD</text></g><!--link usecaseAuthentication to usecaseUserAccount--><g id="link_usecaseAuthentication_usecaseUserAccount"><path d="M323.608,205.632 C369.664,193.12 450.288,171.208 499.52,157.832 " fill="none" id="usecaseAuthentication-to-usecaseUserAccount" style="stroke:#181818;stroke-width:0.8000000000000002;stroke-dasharray:7.0,7.0;"/><polygon fill="#181818" points="503.592,156.728,495.8043,155.5313,499.7324,157.7785,497.4852,161.7066,503.592,156.728" style="stroke:#181818;stroke-width:0.8000000000000002;"/><text fill="#000000" font-family="Sarabun" font-size="11.2" lengthAdjust="spacing" textLength="48.8" x="366.4" y="178.1391">«include»</text></g><!--link actorAdmin to usecaseAuthentication--><g id="link_actorAdmin_usecaseAuthentication"><path d="M271.984,74.368 C243.232,96.416 184.8,141.2 184.8,141.2 C184.8,141.2 184.8,154.8 184.8,154.8 C184.8,154.8 237.328,185.664 267.288,203.264 " fill="none" id="actorAdmin-usecaseAuthentication" style="stroke:#181818;stroke-width:0.8000000000000002;"/><text fill="#000000" font-family="Sarabun" font-size="11.2" lengthAdjust="spacing" textLength="31.2" x="168.8" y="152.1391">CRUD</text></g><!--link usecaseUserAccount to actorAdmin--><g id="link_usecaseUserAccount_actorAdmin"><path d="M512.472,134.528 C475.368,119.4 416,95.2 416,95.2 C416,95.2 336.944,74.88 303.288,66.224 " fill="none" id="usecaseUserAccount-actorAdmin" style="stroke:#181818;stroke-width:0.8000000000000002;"/><text fill="#000000" font-family="Sarabun" font-size="11.2" lengthAdjust="spacing" textLength="31.2" x="375.2" y="80.5391">CRUD</text></g><!--link actorAdmin to usecaseIndigoTone--><g id="link_actorAdmin_usecaseIndigoTone"><path d="M303.216,73.344 C341.36,101.528 440,174.4 440,174.4 C440,174.4 463.456,182.712 487.824,191.344 " fill="none" id="actorAdmin-usecaseIndigoTone" style="stroke:#181818;stroke-width:0.8000000000000002;"/><text fill="#000000" font-family="Sarabun" font-size="11.2" lengthAdjust="spacing" textLength="31.2" x="375.2" y="118.9391">CRUD</text></g><!--link actorAdmin to usecaseCategory--><g id="link_actorAdmin_usecaseCategory"><path d="M271.912,69.4 C238.256,85.224 159.2,122.4 159.2,122.4 C159.2,122.4 135.2,178.4 135.2,178.4 C135.2,178.4 113.608,196.96 99.264,209.288 " fill="none" id="actorAdmin-usecaseCategory" style="stroke:#181818;stroke-width:0.8000000000000002;"/><text fill="#000000" font-family="Sarabun" font-size="11.2" lengthAdjust="spacing" textLength="31.2" x="168.8" y="97.3391">CRUD</text></g><!--reverse link usecaseGroupData to usecaseUserAccount--><g id="link_usecaseGroupData_usecaseUserAccount"><path d="M138.536,155.088 C150.192,155.6 159.2,156 159.2,156 C159.2,156 209.6,156 209.6,156 C209.6,156 388.176,150.84 483.392,148.08 " fill="none" id="usecaseGroupData-backto-usecaseUserAccount" style="stroke:#181818;stroke-width:0.8000000000000002;stroke-dasharray:7.0,7.0;"/><polygon fill="#181818" points="134.488,154.904,141.544,158.4102,138.4843,155.0758,141.8188,152.0161,134.488,154.904" style="stroke:#181818;stroke-width:0.8000000000000002;"/><text fill="#000000" font-family="Sarabun" font-size="11.2" lengthAdjust="spacing" textLength="48.8" x="263.2" y="149.3391">«include»</text></g><!--SRC=[jLVDRjD04BxxAOPmI7k8sm875DgYD55H9HfGqeWZsjeRPrLxr_AkLLB4WIDtJeWRuixHVHi_2kjTsx4T9pJ5NaMHlJ_pytqpi-FkGWYVzmyEV1TH4NgkQJ7l8EIuPo7vPnFa1CWpk8LS34U7nXCRpmd5SFvkV3MRlFqu7Km6PxCnP6BcZ0fkEemvBaO-uKgSnVdhEVA8kpoPeW1TXzJWDuJwyja3AH25hZYN1yV8mx1rnvJSIJDU68QFh1laOEWCR8zGc74CGsamZBJ17VXi6227Y-S218E0E0i1DWcm9GYZUd6bmfK-YQMFmMVkCdbHwzsw7ImG2rPt_fROOW7FAYiQkUeibPvowGC6ZfCPmGBezwkRcC3I3qZ7cNJP2LX8xI5pvVwdHuVFxPT7-Ng2Zrxvi212U_156ugiH8662d7zgjwqcqhHDHE2US3cXMNeGoUEViRHVNp_BOw-guUlSVGxZdx5qPyu-Y5_7IKa0HPHoJfqfaiki0TdYQaeMEPSQ4W1JdOSfSDwIBu3U2F1y9kHB0C-YNVOKp9XX0JQJv3QInVKj9vDONyby2VHlrL85spefIENM7XAXs7aVcJY4tS6bYK14_i0fdbQfxWFnyU4McveuzFJEfMQvHg5sTu2iRtGxzKh6Kvc8-LHGrIz3vWTMYApgc6-KkabilAv6ges2O0BJvQJEZ5wOMUEgnJdHXNPlQ0sSTWLetWJlLkFbopyXu0X4jXXmLB6rx5fhidz_-1QipGxb5MIFB2QB0I3K2mm5SH2ggmt6rnbuQNWg2urK1MgG5PL59al5Onc2qDlimKPXwrKyzITXYcynDxrIdY9mXA63-JlqIMsGbWhkQ2hIKk5LdSMKsk1POyccuGn4c60t4pfQ5akdiNArWQslGqrD0Es8KXrEz0aiDqDBSUE-Af3Zm1vfxQaq1V8EyFShBnSWUhb5FVlTWS-94QwsuEankAqb3MTX5PwpxQLXlarNWY6rMIxgRRIqzPDCB3j07CEpQ1d63NfTa453f3w2eHBv9U0LEyr6AvBIGqjzmJPN2l9c4itYzcZB7v8-kaqDaE_S3WNkRrrt5G6jZGXZmgwdV9ypGTrtHRYDelHjHCAicfpEfbbtyloznS0]--></g></svg>