<?xml version="1.0" encoding="UTF-8" standalone="no"?><svg xmlns="http://www.w3.org/2000/svg" xmlns:xlink="http://www.w3.org/1999/xlink" contentStyleType="text/css" height="492.24px" preserveAspectRatio="none" style="width:835px;height:492px;background:#FFFFFF;" version="1.1" viewBox="0 0 835 492" width="835.8px" zoomAndPan="magnify"><defs/><g><!--cluster Context of Management System for Connecting Color Scheme of Natural Indigo Dye with Indigo Textile Production Sites Use Case Diagram--><g id="cluster_Context of Management System for Connecting Color Scheme of Natural Indigo Dye with Indigo Textile Production Sites Use Case Diagram"><path d="M7.14,5.04 L819.42,5.04 A3.15,3.15 0 0 1 821.52,7.14 L827.4,23.2181 L827.82,23.2181 A2.1,2.1 0 0 1 829.92,25.3181 L829.92,484.26 A2.1,2.1 0 0 1 827.82,486.36 L7.14,486.36 A2.1,2.1 0 0 1 5.04,484.26 L5.04,7.14 A2.1,2.1 0 0 1 7.14,5.04 " fill="none" style="stroke:#000000;stroke-width:1.26;"/><line style="stroke:#000000;stroke-width:1.26;" x1="5.04" x2="827.4" y1="23.2181" y2="23.2181"/><text fill="#000000" font-family="Sarabun" font-size="11.76" font-weight="bold" lengthAdjust="spacing" textLength="811.44" x="8.4" y="17.366">Context of Management System for Connecting Color Scheme of Natural Indigo Dye with Indigo Textile Production Sites Use Case Diagram</text></g><!--cluster System Boundary--><g id="cluster_System Boundary"><rect fill="none" height="251.16" rx="2.1" ry="2.1" style="stroke:#181818;stroke-width:0.84;" width="588.84" x="172.2" y="141.96"/><text fill="#000000" font-family="Sarabun" font-size="11.76" font-weight="bold" lengthAdjust="spacing" textLength="101.64" x="415.8" y="154.286">System Boundary</text></g><!--entity actorMember--><g id="elem_actorMember"><ellipse cx="511.98" cy="413.7" fill="#F1F1F1" rx="6.72" ry="6.72" style="stroke:#181818;stroke-width:0.42;"/><path d="M511.98,420.42 L511.98,443.1 M501.06,427.14 L522.9,427.14 M511.98,443.1 L501.06,455.7 M511.98,443.1 L522.9,455.7 " fill="none" style="stroke:#181818;stroke-width:0.42;"/><text fill="#000000" font-family="Sarabun" font-size="11.76" lengthAdjust="spacing" textLength="42.84" x="490.56" y="467.606">Member</text></g><!--entity actorManufacturer--><g id="elem_actorManufacturer"><ellipse cx="685.44" cy="413.7" fill="#F1F1F1" rx="6.72" ry="6.72" style="stroke:#181818;stroke-width:0.42;"/><path d="M685.44,420.42 L685.44,443.1 M674.52,427.14 L696.36,427.14 M685.44,443.1 L674.52,455.7 M685.44,443.1 L696.36,455.7 " fill="none" style="stroke:#181818;stroke-width:0.42;"/><text fill="#000000" font-family="Sarabun" font-size="11.76" lengthAdjust="spacing" textLength="48.72" x="661.08" y="467.606">Producer</text></g><!--entity actorShop--><g id="elem_actorShop"><ellipse cx="293.16" cy="416.22" fill="#F1F1F1" rx="6.72" ry="6.72" style="stroke:#181818;stroke-width:0.42;"/><path d="M293.16,422.94 L293.16,445.62 M282.24,429.66 L304.08,429.66 M293.16,445.62 L282.24,458.22 M293.16,445.62 L304.08,458.22 " fill="none" style="stroke:#181818;stroke-width:0.42;"/><text fill="#000000" font-family="Sarabun" font-size="11.76" lengthAdjust="spacing" textLength="27.72" x="279.3" y="470.126">Shop</text></g><!--entity actorAdmin--><g id="elem_actorAdmin"><ellipse cx="511.98" cy="71.82" fill="#F1F1F1" rx="6.72" ry="6.72" style="stroke:#181818;stroke-width:0.42;"/><path d="M511.98,78.54 L511.98,101.22 M501.06,85.26 L522.9,85.26 M511.98,101.22 L501.06,113.82 M511.98,101.22 L522.9,113.82 " fill="none" style="stroke:#181818;stroke-width:0.42;"/><text fill="#000000" font-family="Sarabun" font-size="11.76" lengthAdjust="spacing" textLength="32.76" x="495.6" y="125.726">Admin</text></g><!--entity actorUser--><g id="elem_actorUser"><ellipse cx="79.38" cy="235.62" fill="#F1F1F1" rx="6.72" ry="6.72" style="stroke:#181818;stroke-width:0.42;"/><path d="M79.38,242.34 L79.38,265.02 M68.46,249.06 L90.3,249.06 M79.38,265.02 L68.46,277.62 M79.38,265.02 L90.3,277.62 " fill="none" style="stroke:#181818;stroke-width:0.42;"/><text fill="#000000" font-family="Sarabun" font-size="11.76" lengthAdjust="spacing" textLength="24.36" x="67.2" y="289.526">User</text></g><g id="elem_usecaseGroupData"><ellipse cx="685.4895" cy="187.4979" fill="#103D81" rx="51.7095" ry="12.3579" style="stroke:#181818;stroke-width:0.42;"/><text fill="#FFFFFF" font-family="Sarabun" font-size="11.76" lengthAdjust="spacing" textLength="62.16" x="651.8895" y="190.5109">Group Data</text></g><g id="elem_usecaseIndigoTone"><ellipse cx="292.979" cy="194.0038" fill="#103D81" rx="107.339" ry="23.4838" style="stroke:#181818;stroke-width:0.42;"/><text fill="#FFFFFF" font-family="Sarabun" font-size="11.76" lengthAdjust="spacing" textLength="189" x="198.479" y="196.4008">Color Scheme of Natural Indigo Dye</text></g><g id="elem_usecaseAuthentication"><ellipse cx="293.0102" cy="260.286" fill="#103D81" rx="56.5502" ry="13.326" style="stroke:#181818;stroke-width:0.42;"/><text fill="#FFFFFF" font-family="Sarabun" font-size="11.76" lengthAdjust="spacing" textLength="75.6" x="253.8252" y="263.0443">Authentication</text></g><g id="elem_usecaseMemberAccount"><ellipse cx="685.2559" cy="258.8512" fill="#103D81" rx="61.9759" ry="14.4112" style="stroke:#181818;stroke-width:0.42;"/><text fill="#FFFFFF" font-family="Sarabun" font-size="11.76" lengthAdjust="spacing" textLength="89.04" x="640.7359" y="261.2481">Member Account</text></g><g id="elem_usecaseProduct"><ellipse cx="293.3667" cy="367.9943" fill="#103D81" rx="38.8467" ry="11.8343" style="stroke:#181818;stroke-width:0.42;"/><text fill="#FFFFFF" font-family="Sarabun" font-size="11.76" lengthAdjust="spacing" textLength="41.16" x="270.9346" y="370.8661">Product</text></g><g id="elem_usecaseCategory"><ellipse cx="293.072" cy="315.1247" fill="#103D81" rx="44.432" ry="11.8847" style="stroke:#181818;stroke-width:0.42;"/><text fill="#FFFFFF" font-family="Sarabun" font-size="11.76" lengthAdjust="spacing" textLength="48.72" x="266.192" y="318.1377">Category</text></g><!--reverse link actorMember to actorManufacturer--><g id="link_actorMember_actorManufacturer"><path d="M550.5444,438.48 C584.2452,438.48 632.5704,438.48 661.0548,438.48 " fill="none" id="actorMember-backto-actorManufacturer" style="stroke:#181818;stroke-width:0.84;"/><polygon fill="none" points="550.3428,444.36,533.5428,438.48,550.3428,432.6,550.3428,444.36" style="stroke:#181818;stroke-width:0.84;"/></g><!--link actorShop to actorMember--><g id="link_actorShop_actorMember"><path d="M307.1292,442.2516 C340.4856,445.4436 425.88,453.6 425.88,453.6 C425.88,453.6 460.32,453.6 460.32,453.6 C460.32,453.6 466.2924,451.8276 474.138,449.4924 " fill="none" id="actorShop-to-actorMember" style="stroke:#181818;stroke-width:0.84;"/><polygon fill="none" points="472.6932,443.7888,490.4676,444.6288,476.0448,455.0532,472.6932,443.7888" style="stroke:#181818;stroke-width:0.84;"/></g><!--link actorMember to usecaseGroupData--><g id="link_actorMember_usecaseGroupData"><path d="M530.8884,406.4844 C535.1304,398.9748 538.44,393.12 538.44,393.12 C538.44,393.12 563.64,331.8 563.64,331.8 C563.64,331.8 623.28,229.32 623.28,229.32 C623.28,229.32 649.6896,211.2348 667.842,198.7944 " fill="none" id="actorMember-usecaseGroupData" style="stroke:#181818;stroke-width:0.84;"/><text fill="#000000" font-family="Sarabun" font-size="11.76" lengthAdjust="spacing" textLength="15.96" x="572.88" y="271.886">RU</text></g><!--link usecaseGroupData to actorAdmin--><g id="link_usecaseGroupData_actorAdmin"><path d="M666.2544,175.9212 C640.8528,160.1376 598.08,133.56 598.08,133.56 C598.08,133.56 553.0728,114.0468 528.4608,103.3788 " fill="none" id="usecaseGroupData-actorAdmin" style="stroke:#181818;stroke-width:0.84;"/><text fill="#000000" font-family="Sarabun" font-size="11.76" lengthAdjust="spacing" textLength="32.76" x="564.48" y="117.326">CRUD</text></g><!--link usecaseGroupData to actorUser--><g id="link_usecaseGroupData_actorUser"><path d="M672.9324,175.4256 C649.3116,151.3512 598.08,99.12 598.08,99.12 C598.08,99.12 538.44,49.56 538.44,49.56 C538.44,49.56 485.52,49.56 485.52,49.56 C485.52,49.56 165.48,155.4 165.48,155.4 C165.48,155.4 116.76,209.16 116.76,209.16 C116.76,209.16 102.3036,229.4292 91.5852,244.4652 " fill="none" id="usecaseGroupData-actorUser" style="stroke:#181818;stroke-width:0.84;"/><text fill="#000000" font-family="Sarabun" font-size="11.76" lengthAdjust="spacing" textLength="8.4" x="438.9" y="56.006">R</text></g><!--reverse link usecaseIndigoTone to usecaseGroupData--><g id="link_usecaseIndigoTone_usecaseGroupData"><path d="M405.1068,193.662 C469.686,193.4352 538.44,193.2 538.44,193.2 C538.44,193.2 592.0236,191.0412 634.3008,189.3444 " fill="none" id="usecaseIndigoTone-backto-usecaseGroupData" style="stroke:#181818;stroke-width:0.84;stroke-dasharray:7.0,7.0;"/><polygon fill="#181818" points="400.8564,193.6704,408.426,197.0088,405.0564,193.6584,408.4068,190.2888,400.8564,193.6704" style="stroke:#181818;stroke-width:0.84;"/><text fill="#000000" font-family="Sarabun" font-size="11.76" lengthAdjust="spacing" textLength="37.8" x="493.08" y="190.406">include</text></g><!--link usecaseAuthentication to usecaseMemberAccount--><g id="link_usecaseAuthentication_usecaseMemberAccount"><path d="M349.9608,260.1564 C421.0752,259.854 543.6228,259.3248 619.0464,259.0056 " fill="none" id="usecaseAuthentication-to-usecaseMemberAccount" style="stroke:#181818;stroke-width:0.84;stroke-dasharray:7.0,7.0;"/><polygon fill="#181818" points="623.2716,258.9804,615.702,255.642,619.0716,258.9924,615.7212,262.362,623.2716,258.9804" style="stroke:#181818;stroke-width:0.84;"/><text fill="#000000" font-family="Sarabun" font-size="11.76" lengthAdjust="spacing" textLength="51.24" x="486.36" y="256.766">«include»</text></g><!--link actorMember to usecaseAuthentication--><g id="link_actorMember_usecaseAuthentication"><path d="M490.4676,406.7028 C476.3976,385.0812 460.32,360.36 460.32,360.36 C460.32,360.36 425.88,330.12 425.88,330.12 C425.88,330.12 400.68,288.12 400.68,288.12 C400.68,288.12 362.5776,278.2164 331.9092,270.2532 " fill="none" id="actorMember-usecaseAuthentication" style="stroke:#181818;stroke-width:0.84;"/><text fill="#000000" font-family="Sarabun" font-size="11.76" lengthAdjust="spacing" textLength="25.2" x="430.5" y="327.326">login</text></g><!--link usecaseAuthentication to actorAdmin--><g id="link_usecaseAuthentication_actorAdmin"><path d="M331.3128,250.4124 C362.0736,242.172 400.68,231.84 400.68,231.84 C400.68,231.84 425.88,137.76 425.88,137.76 C425.88,137.76 470.8872,116.0292 495.4992,104.1516 " fill="none" id="usecaseAuthentication-actorAdmin" style="stroke:#181818;stroke-width:0.84;"/><text fill="#000000" font-family="Sarabun" font-size="11.76" lengthAdjust="spacing" textLength="25.2" x="430.5" y="119.846">login</text></g><!--link actorUser to usecaseAuthentication--><g id="link_actorUser_usecaseAuthentication"><path d="M91.6272,260.4 C118.4232,260.4 186.9,260.4 236.4264,260.4 " fill="none" id="actorUser-usecaseAuthentication" style="stroke:#181818;stroke-width:0.84;"/><text fill="#000000" font-family="Sarabun" font-size="11.76" lengthAdjust="spacing" textLength="40.32" x="117.6" y="257.606">register</text></g><!--link actorAdmin to usecaseMemberAccount--><g id="link_actorAdmin_usecaseMemberAccount"><path d="M528.6204,114.618 C543.5388,131.6364 563.64,154.56 563.64,154.56 C563.64,154.56 623.28,214.2 623.28,214.2 C623.28,214.2 647.8332,232.0248 665.868,245.1204 " fill="none" id="actorAdmin-usecaseMemberAccount" style="stroke:#181818;stroke-width:0.84;"/><text fill="#000000" font-family="Sarabun" font-size="11.76" lengthAdjust="spacing" textLength="32.76" x="564.48" y="151.766">CRUD</text></g><!--link actorMember to usecaseMemberAccount--><g id="link_actorMember_usecaseMemberAccount"><path d="M533.4588,416.9256 C558.6924,390.5748 598.08,349.44 598.08,349.44 C598.08,349.44 623.28,276.36 623.28,276.36 C623.28,276.36 633.7968,273.336 646.1112,269.7912 " fill="none" id="actorMember-usecaseMemberAccount" style="stroke:#181818;stroke-width:0.84;"/><text fill="#000000" font-family="Sarabun" font-size="11.76" lengthAdjust="spacing" textLength="15.96" x="572.88" y="346.646">RU</text></g><!--link actorAdmin to usecaseIndigoTone--><g id="link_actorAdmin_usecaseIndigoTone"><path d="M495.3396,94.5084 C480.4212,92.5344 460.32,89.88 460.32,89.88 C460.32,89.88 425.88,89.88 425.88,89.88 C425.88,89.88 400.68,167.16 400.68,167.16 C400.68,167.16 384.2412,171.3012 364.266,176.3328 " fill="none" id="actorAdmin-usecaseIndigoTone" style="stroke:#181818;stroke-width:0.84;"/></g><!--link actorUser to usecaseIndigoTone--><g id="link_actorUser_usecaseIndigoTone"><path d="M91.7784,253.7556 C102.4884,247.6068 116.76,239.4 116.76,239.4 C116.76,239.4 174.0564,224.5992 223.188,211.8984 " fill="none" id="actorUser-usecaseIndigoTone" style="stroke:#181818;stroke-width:0.84;"/><text fill="#000000" font-family="Sarabun" font-size="11.76" lengthAdjust="spacing" textLength="8.4" x="133.56" y="227.366">R</text></g><!--link usecaseIndigoTone to actorMember--><g id="link_usecaseIndigoTone_actorMember"><path d="M350.4648,214.0488 C376.0512,223.1124 400.68,231.84 400.68,231.84 C400.68,231.84 460.32,312.48 460.32,312.48 C460.32,312.48 485.52,393.12 485.52,393.12 C485.52,393.12 488.8296,398.9748 493.0716,406.4844 " fill="none" id="usecaseIndigoTone-actorMember" style="stroke:#181818;stroke-width:0.84;"/><text fill="#000000" font-family="Sarabun" font-size="11.76" lengthAdjust="spacing" textLength="32.76" x="426.72" y="265.166">CRUD</text></g><!--link usecaseProduct to actorMember--><g id="link_usecaseProduct_actorMember"><path d="M328.3392,372.7836 C359.5284,377.2104 400.68,383.04 400.68,383.04 C400.68,383.04 425.88,425.88 425.88,425.88 C425.88,425.88 465.2676,431.7012 490.5012,435.4308 " fill="none" id="usecaseProduct-actorMember" style="stroke:#181818;stroke-width:0.84;"/><text fill="#000000" font-family="Sarabun" font-size="11.76" lengthAdjust="spacing" textLength="32.76" x="426.72" y="423.086">CRUD</text></g><!--link actorUser to usecaseProduct--><g id="link_actorUser_usecaseProduct"><path d="M91.5852,275.8056 C102.3036,290.3544 116.76,309.96 116.76,309.96 C116.76,309.96 165.48,341.04 165.48,341.04 C165.48,341.04 223.4064,353.3124 260.9628,361.2756 " fill="none" id="actorUser-usecaseProduct" style="stroke:#181818;stroke-width:0.84;"/><text fill="#000000" font-family="Sarabun" font-size="11.76" lengthAdjust="spacing" textLength="32.76" x="121.38" y="307.166">CRUD</text></g><!--link actorAdmin to usecaseCategory--><g id="link_actorAdmin_usecaseCategory"><path d="M495.5496,123.6312 C465.0996,176.4252 400.68,288.12 400.68,288.12 C400.68,288.12 357.4284,299.0148 326.004,306.936 " fill="none" id="actorAdmin-usecaseCategory" style="stroke:#181818;stroke-width:0.84;"/><text fill="#000000" font-family="Sarabun" font-size="11.76" lengthAdjust="spacing" textLength="32.76" x="426.72" y="184.526">CRUD</text></g><!--link actorMember to usecaseCategory--><g id="link_actorMember_usecaseCategory"><path d="M490.5012,423.8388 C465.2676,405.9384 425.88,378 425.88,378 C425.88,378 400.68,341.04 400.68,341.04 C400.68,341.04 357.6972,330.5484 326.298,322.8876 " fill="none" id="actorMember-usecaseCategory" style="stroke:#181818;stroke-width:0.84;"/><text fill="#000000" font-family="Sarabun" font-size="11.76" lengthAdjust="spacing" textLength="32.76" x="426.72" y="375.206">CRUD</text></g><!--link actorUser to usecaseCategory--><g id="link_actorUser_usecaseCategory"><path d="M91.7784,267.0444 C102.4884,273.1932 116.76,281.4 116.76,281.4 C116.76,281.4 205.4976,298.3848 256.7964,308.2044 " fill="none" id="actorUser-usecaseCategory" style="stroke:#181818;stroke-width:0.84;"/><text fill="#000000" font-family="Sarabun" font-size="11.76" lengthAdjust="spacing" textLength="8.4" x="133.56" y="278.606">R</text></g><!--reverse link usecaseGroupData to usecaseMemberAccount--><g id="link_usecaseGroupData_usecaseMemberAccount"><path d="M685.44,203.9016 C685.44,216.1236 685.44,232.5876 685.44,244.272 " fill="none" id="usecaseGroupData-backto-usecaseMemberAccount" style="stroke:#181818;stroke-width:0.84;stroke-dasharray:7.0,7.0;"/><polygon fill="#181818" points="685.44,199.6092,682.08,207.1692,685.44,203.8092,688.8,207.1692,685.44,199.6092" style="stroke:#181818;stroke-width:0.84;"/><text fill="#000000" font-family="Sarabun" font-size="11.76" lengthAdjust="spacing" textLength="51.24" x="650.16" y="226.316">«include»</text></g><!--SRC=[jLXBR-H44BxxLpJcCBk7cMo00nfcWoQ95aKY0Sran15rx1wFjNQtPRSL1jZ3YZq0Pn3YSK6h5H8dG1my_yO_XUfkFxh77iyaE5OIzQFggtBLLzNj35QSHyduw2WACELf68mS5Xwb2Haw6FwuFlPY75hMMovP-fIWPvzSNIzc7ty-dywcfuihLAel6UN9o6FC2mYE_4J2E4douHA7Vh1-EiSnlacfbJptQGJZ404WJWF-31IlS4XGfyJS_vAWu_UinC4139vOLeITvzWZo3w3RV85Hso9BZ65fP1GZkRhX9CGBLcCG80IX_lKWs402tDd1K92uGhpDCO1kg2kxp5qlYRerkUhSduDk3xO-pHcRWe8ZAAvpqc25Wb1Pn0VTAxYOwElB2iWIuuuGx7lhJXo_PX85SlINYc06DxwBfXunrYd4844NecWX8WL3cwEnxe0umIC87XEuSszcANKLQ_pzl6JTzttZ-MUY9LQ_Mm5dbelT2EGLP7K0aOFQpat4c7eYfV1599xBstiY1UwZwO865z714KiM8k9DK0jkopcAsP9F6NBlYJX3ObjX1ErekQwXCgg8ODfkeHH6fkIynMBQYangtSLBffyFHnsWTHYQJJKSAJ4G6QNiqXmKXSV8plF_iopt_FidppxFi_-pRENzYuTpR3IV9bdR_8iopVVIeZVycoJRxwJWpSIwyTTMC8tXV5QQe3rd_FibHhRUg2dRkZJAZPojWDJIKhGofCVv43v-JhF_igpN-37C613iMav4ZFDm0tZd8ML3R5hcjXy8m8dRFsKPt_BKFoHRrxbsQzWHTcfkMqNRUDKL1UErpOIXIs5f4duVNh7nr1MZtGIsBU4tj8FTbdPZpw2lX2XSypnOn6nHyM6N5QhHRVuGFJCyQri4hKBm-8fGZ-iWCkDIbPdASYt61gZsS8Q6FAA0KFP87VedCqMvrQRaYYR0pLaVAN23hygyN9RzVjhHibZD1cDHZiKRPywGUeIktzEJ5E-WdFBTx0yC_fbXGbkC6DxguKUZMXjwq30JgfDnOcfuq09SH6qoQI8sic9rIVLjhqOeu1vFjthRMcoR4UcbaQWBbCnyNpe5F73z8OYUZspe0XXbHgD1Lj9woB1dJDNrEzmDqDa1RTs2d6bsgUuXoOD9UXAVIUjk2uM5djEs_uxgv5AlPMrv75m3tonAljWyqpPOwqsrz9FHscazOq6dDvk1rqDUoJFaqEXxaJa0qYfsTd3Ursokz-OldSVLzMrixmnjbJJZdDQTsZGwL13lEyAAhwm7gY42dI3ljLQLv6qWA2B4Bunsw3KXg7SjAOVbOPUEzzhZbRStDrkxzAQ6uwrywYJ5PLk8TmtAU2u9HwBrm_LM0ju8vVrulyz10_e7RMnZelleUBD8k-MtywcBZrxW0kkwyOaIL0_oMmvnouetCUm-Y_D9JRFAZ5lKIbyCY_4nLfhiZkAi7b6IIVaryGszjQjkFEGrFh53dMhGtrI78uFS3rlU5svPxOIwv1AgAFU7iOIKdxz3_O85NOFkL4ANWYH5-A_JfRr7m00]--></g></svg>