<?xml version="1.0" encoding="UTF-8" standalone="no"?><svg xmlns="http://www.w3.org/2000/svg" xmlns:xlink="http://www.w3.org/1999/xlink" contentStyleType="text/css" height="441.6px" preserveAspectRatio="none" style="width:644px;height:441px;background:#FFFFFF;" version="1.1" viewBox="0 0 644 441" width="644.8px" zoomAndPan="magnify"><defs/><g><!--cluster Member Use Case Diagram--><g id="cluster_Member Use Case Diagram"><path d="M6.8,4.8 L158.8,4.8 A3,3 0 0 1 160.8,6.8 L166.4,22.1125 L637.2,22.1125 A2,2 0 0 1 639.2,24.1125 L639.2,434 A2,2 0 0 1 637.2,436 L6.8,436 A2,2 0 0 1 4.8,434 L4.8,6.8 A2,2 0 0 1 6.8,4.8 " fill="none" style="stroke:#000000;stroke-width:1.2000000000000002;"/><line style="stroke:#000000;stroke-width:1.2000000000000002;" x1="4.8" x2="166.4" y1="22.1125" y2="22.1125"/><text fill="#000000" font-family="Sarabun" font-size="11.2" font-weight="bold" lengthAdjust="spacing" textLength="151.2" x="8" y="16.5391">Member Use Case Diagram</text></g><!--cluster System Boundary--><g id="cluster_System Boundary"><rect fill="none" height="308.8" rx="2" ry="2" style="stroke:#181818;stroke-width:0.8000000000000002;" width="596" x="24" y="38.4"/><text fill="#000000" font-family="Sarabun" font-size="11.2" font-weight="bold" lengthAdjust="spacing" textLength="96.8" x="273.6" y="50.1391">System Boundary</text></g><!--entity actorMember--><g id="elem_actorMember"><ellipse cx="394" cy="366.8" fill="#F1F1F1" rx="6.4" ry="6.4" style="stroke:#181818;stroke-width:0.4000000000000001;"/><path d="M394,373.2 L394,394.8 M383.6,379.6 L404.4,379.6 M394,394.8 L383.6,406.8 M394,394.8 L404.4,406.8 " fill="none" style="stroke:#181818;stroke-width:0.4000000000000001;"/><text fill="#000000" font-family="Sarabun" font-size="11.2" lengthAdjust="spacing" textLength="40.8" x="373.6" y="418.1391">Member</text></g><!--entity actorProducer--><g id="elem_actorProducer"><ellipse cx="578.4" cy="366.8" fill="#F1F1F1" rx="6.4" ry="6.4" style="stroke:#181818;stroke-width:0.4000000000000001;"/><path d="M578.4,373.2 L578.4,394.8 M568,379.6 L588.8,379.6 M578.4,394.8 L568,406.8 M578.4,394.8 L588.8,406.8 " fill="none" style="stroke:#181818;stroke-width:0.4000000000000001;"/><text fill="#000000" font-family="Sarabun" font-size="11.2" lengthAdjust="spacing" textLength="46.4" x="555.2" y="418.1391">Producer</text></g><!--entity actorShop--><g id="elem_actorShop"><ellipse cx="139.2" cy="369.2" fill="#F1F1F1" rx="6.4" ry="6.4" style="stroke:#181818;stroke-width:0.4000000000000001;"/><path d="M139.2,375.6 L139.2,397.2 M128.8,382 L149.6,382 M139.2,397.2 L128.8,409.2 M139.2,397.2 L149.6,409.2 " fill="none" style="stroke:#181818;stroke-width:0.4000000000000001;"/><text fill="#000000" font-family="Sarabun" font-size="11.2" lengthAdjust="spacing" textLength="26.4" x="126" y="420.5391">Shop</text></g><g id="elem_usecaseCategory"><ellipse cx="139.1162" cy="250.5188" fill="#103D81" rx="42.3162" ry="11.3188" style="stroke:#181818;stroke-width:0.4000000000000001;"/><text fill="#FFFFFF" font-family="Sarabun" font-size="11.2" lengthAdjust="spacing" textLength="46.4" x="113.5162" y="253.3883">Category</text></g><g id="elem_usecaseAuthentication"><ellipse cx="393.8573" cy="190.2915" fill="#103D81" rx="53.8573" ry="12.6915" style="stroke:#181818;stroke-width:0.4000000000000001;"/><text fill="#FFFFFF" font-family="Sarabun" font-size="11.2" lengthAdjust="spacing" textLength="72" x="356.5383" y="192.9184">Authentication</text></g><g id="elem_usecaseUserLogin"><ellipse cx="578.5872" cy="313.6477" fill="#F1F1F1" rx="28.9872" ry="11.2477" style="stroke:#181818;stroke-width:0.4000000000000001;"/><text fill="#000000" font-family="Sarabun" font-size="11.2" lengthAdjust="spacing" textLength="28" x="564.5872" y="315.9305">Login</text></g><g id="elem_usecaseMemberAccount"><ellipse cx="139.0247" cy="132.9249" fill="#103D81" rx="59.0247" ry="13.7249" style="stroke:#181818;stroke-width:0.4000000000000001;"/><text fill="#FFFFFF" font-family="Sarabun" font-size="11.2" lengthAdjust="spacing" textLength="84.8" x="96.6247" y="135.2078">Member Account</text></g><g id="elem_usecaseIndigoTone"><ellipse cx="139.0276" cy="311.9655" fill="#103D81" rx="102.2276" ry="22.3655" style="stroke:#181818;stroke-width:0.4000000000000001;"/><text fill="#FFFFFF" font-family="Sarabun" font-size="11.2" lengthAdjust="spacing" textLength="180" x="49.0276" y="314.2483">Color Scheme of Natural Indigo Dye</text></g><g id="elem_usecaseProduct"><ellipse cx="394.1969" cy="79.2708" fill="#103D81" rx="36.9969" ry="11.2708" style="stroke:#181818;stroke-width:0.4000000000000001;"/><text fill="#FFFFFF" font-family="Sarabun" font-size="11.2" lengthAdjust="spacing" textLength="39.2" x="372.8329" y="82.0059">Product</text></g><g id="elem_usecaseProductImage"><ellipse cx="139.3651" cy="78.353" fill="#F1F1F1" rx="54.1651" ry="12.753" style="stroke:#181818;stroke-width:0.4000000000000001;"/><text fill="#000000" font-family="Sarabun" font-size="11.2" lengthAdjust="spacing" textLength="72.8" x="101.8072" y="80.9408">Product Image</text></g><g id="elem_usecaseGroupData"><ellipse cx="139.2472" cy="199.3694" fill="#103D81" rx="49.2472" ry="11.7694" style="stroke:#181818;stroke-width:0.4000000000000001;"/><text fill="#FFFFFF" font-family="Sarabun" font-size="11.2" lengthAdjust="spacing" textLength="59.2" x="107.2472" y="202.239">Group Data</text></g><!--reverse link actorMember to actorProducer--><g id="link_actorMember_actorProducer"><path d="M430.872,390.4 C467.832,390.4 524.136,390.4 555.152,390.4 " fill="none" id="actorMember-backto-actorProducer" style="stroke:#181818;stroke-width:0.8000000000000002;"/><polygon fill="none" points="430.712,396,414.712,390.4,430.712,384.8,430.712,396" style="stroke:#181818;stroke-width:0.8000000000000002;"/></g><!--link actorShop to actorMember--><g id="link_actorShop_actorMember"><path d="M152.504,393.44 C184.272,395.056 265.6,399.2 265.6,399.2 C265.6,399.2 316,399.2 316,399.2 C316,399.2 337.36,396.768 357.608,394.456 " fill="none" id="actorShop-to-actorMember" style="stroke:#181818;stroke-width:0.8000000000000002;"/><polygon fill="none" points="356.992,388.888,373.52,392.64,358.256,400.016,356.992,388.888" style="stroke:#181818;stroke-width:0.8000000000000002;"/></g><!--link usecaseCategory to actorMember--><g id="link_usecaseCategory_actorMember"><path d="M170.76,257.912 C200.664,265.208 241.6,275.2 241.6,275.2 C241.6,275.2 265.6,327.2 265.6,327.2 C265.6,327.2 337.752,362.936 373.544,380.664 " fill="none" id="usecaseCategory-actorMember" style="stroke:#181818;stroke-width:0.8000000000000002;"/><text fill="#000000" font-family="Sarabun" font-size="11.2" lengthAdjust="spacing" textLength="31.2" x="275.2" y="324.5391">CRUD</text></g><!--reverse link usecaseMemberAccount to usecaseAuthentication--><g id="link_usecaseMemberAccount_usecaseAuthentication"><path d="M185.816,143.224 C234.104,154.208 309.304,171.312 354.648,181.632 " fill="none" id="usecaseMemberAccount-backto-usecaseAuthentication" style="stroke:#181818;stroke-width:0.8000000000000002;stroke-dasharray:7.0,7.0;"/><polygon fill="#181818" points="181.808,142.312,188.1132,147.0369,185.7073,143.2039,189.5403,140.798,181.808,142.312" style="stroke:#181818;stroke-width:0.8000000000000002;"/><text fill="#000000" font-family="Sarabun" font-size="11.2" lengthAdjust="spacing" textLength="48.8" x="266.4" y="158.9391">«include»</text></g><!--reverse link usecaseAuthentication to usecaseUserLogin--><g id="link_usecaseAuthentication_usecaseUserLogin"><path d="M432.112,201.624 C441.016,204.296 448,206.4 448,206.4 C448,206.4 525.6,260 525.6,260 C525.6,260 552.176,287.392 567.328,303.008 " fill="none" id="usecaseAuthentication-backto-usecaseUserLogin" style="stroke:#181818;stroke-width:0.8000000000000002;stroke-dasharray:7.0,7.0;"/><polygon fill="#181818" points="428.192,200.44,434.1618,205.5821,432.0217,201.5946,436.0092,199.4546,428.192,200.44" style="stroke:#181818;stroke-width:0.8000000000000002;"/><text fill="#000000" font-family="Sarabun" font-size="11.2" lengthAdjust="spacing" textLength="52" x="472.8" y="221.3391">«extends»</text></g><!--link actorMember to usecaseUserLogin--><g id="link_actorMember_usecaseUserLogin"><path d="M414.712,382.032 C450.056,367.184 523.336,336.4 558.264,321.72 " fill="none" id="actorMember-usecaseUserLogin" style="stroke:#181818;stroke-width:0.8000000000000002;"/><text fill="#000000" font-family="Sarabun" font-size="11.2" lengthAdjust="spacing" textLength="28" x="484.8" y="334.1391">Login</text></g><!--link usecaseMemberAccount to actorMember--><g id="link_usecaseMemberAccount_actorMember"><path d="M169.384,144.6 C199.392,156.648 241.6,173.6 241.6,173.6 C241.6,173.6 265.6,235.2 265.6,235.2 C265.6,235.2 316,264.8 316,264.8 C316,264.8 340,347.2 340,347.2 C340,347.2 358.264,362.032 373.392,374.312 " fill="none" id="usecaseMemberAccount-actorMember" style="stroke:#181818;stroke-width:0.8000000000000002;"/><text fill="#000000" font-family="Sarabun" font-size="11.2" lengthAdjust="spacing" textLength="15.2" x="283.2" y="232.5391">RU</text></g><!--link actorMember to usecaseIndigoTone--><g id="link_actorMember_usecaseIndigoTone"><path d="M373.544,387.688 C337.752,382.752 265.6,372.8 265.6,372.8 C265.6,372.8 241.6,337.6 241.6,337.6 C241.6,337.6 225.944,333.656 206.92,328.864 " fill="none" id="actorMember-usecaseIndigoTone" style="stroke:#181818;stroke-width:0.8000000000000002;"/><text fill="#000000" font-family="Sarabun" font-size="11.2" lengthAdjust="spacing" textLength="8" x="286.8" y="370.1391">R</text></g><!--reverse link usecaseProductImage to usecaseProduct--><g id="link_usecaseProductImage_usecaseProduct"><path d="M197.472,78.584 C246.472,78.736 315.392,78.952 357.024,79.088 " fill="none" id="usecaseProductImage-backto-usecaseProduct" style="stroke:#181818;stroke-width:0.8000000000000002;stroke-dasharray:7.0,7.0;"/><polygon fill="#181818" points="193.384,78.568,200.5748,81.7886,197.384,78.5794,200.5931,75.3886,193.384,78.568" style="stroke:#181818;stroke-width:0.8000000000000002;"/><text fill="#000000" font-family="Sarabun" font-size="11.2" lengthAdjust="spacing" textLength="36" x="272.8" y="76.5391">include</text></g><!--link usecaseProduct to actorMember--><g id="link_usecaseProduct_actorMember"><path d="M384.88,90.096 C359.72,120.152 291.2,202 291.2,202 C291.2,202 291.2,215.6 291.2,215.6 C291.2,215.6 340,347.2 340,347.2 C340,347.2 358.296,361.832 373.584,374.064 " fill="none" id="usecaseProduct-actorMember" style="stroke:#181818;stroke-width:0.8000000000000002;"/><text fill="#000000" font-family="Sarabun" font-size="11.2" lengthAdjust="spacing" textLength="31.2" x="275.2" y="212.9391">CRUD</text></g><!--reverse link usecaseGroupData to usecaseMemberAccount--><g id="link_usecaseGroupData_usecaseMemberAccount"><path d="M139.2,183.096 C139.2,171.944 139.2,157.256 139.2,146.632 " fill="none" id="usecaseGroupData-backto-usecaseMemberAccount" style="stroke:#181818;stroke-width:0.8000000000000002;stroke-dasharray:7.0,7.0;"/><polygon fill="#181818" points="139.2,187.328,142.4,180.128,139.2,183.328,136,180.128,139.2,187.328" style="stroke:#181818;stroke-width:0.8000000000000002;"/><text fill="#000000" font-family="Sarabun" font-size="11.2" lengthAdjust="spacing" textLength="48.8" x="105.6" y="171.1391">«include»</text></g><!--link actorMember to usecaseGroupData--><g id="link_actorMember_usecaseGroupData"><path d="M373.392,374.312 C358.264,362.032 340,347.2 340,347.2 C340,347.2 316,310.4 316,310.4 C316,310.4 265.6,281.6 265.6,281.6 C265.6,281.6 241.6,224.8 241.6,224.8 C241.6,224.8 202.896,215.048 173.264,207.584 " fill="none" id="actorMember-usecaseGroupData" style="stroke:#181818;stroke-width:0.8000000000000002;"/><text fill="#000000" font-family="Sarabun" font-size="11.2" lengthAdjust="spacing" textLength="15.2" x="283.2" y="278.9391">RU</text></g><!--SRC=[jLVBRjim4BppAxRk8Ut1JeBsKBXE2iT1YW29MzWnUYmOYPQ5IAH0KcZTDlzUKgGawk4dP1uCQxcSNGvdLzJPIif43C_FamXJcSRHm6FnUIf8tyFgnmznm76CX8SZ0fSN2BtnoJAa1Ew-JPyMiuUVy_5iVBEOGewpP5IAGS1O416SX2B3yuJuiiHn6AslvfZZvvGYyHBIHFsFGG7YD99tQk4KnmIsUip3FogFZmWbs7l10O7U8ucV2OU5831HASEjIRa7Vn6e4P6b1Cc0Xy5AWXzouicGKPHDbY4YjIUvJWWaB5hh1tG6-MZnObokM1s3gko5oek08DeY6OVXiEx49B6fwN6ZjX5mbb9_mYBb__RoueF_wRAOrtisCpzMeIIP_TK4nfuEOFVV0ooCnJox7jyvyrFFzSajhjTynPBIGp-LivRZqRz-VnD0wP8cVGSZyz2aOweKeSAiXIGntEWjOxxMnrHiLbD-TU2eB3R3mv84ZAz1oLYhk1jy2mRl9XR-lIRhdJMNHdk2doNvBOU_YaCpyVjsMDBx1Me-KVYwf6QKDYCDOJ9Rt7PEtpYLAq9bg6ZKXT8jULNm2eNrgIr45d0FB0YhAAeFS6CjYTaKOP0cW-jYrf0zzZmbJQdP7Or2waMfJwwl6r1bc1fABOP6KVaJwWi7vMWXzDiI648l-zT3g7in-3udGa0tjOJAhbeSuJsLXEEiASCZJYg7cJstwA05nYPQLLHksxCeYpDedeOJie5Uav7EkIgUnjAlgkCdjrXYjTZLJevONOuEqitP3k4uGRBsiSlVxcVMkRIqWi6MMyTTnkwYg6LNKjKgRnDN_RHgItBoRH15pQ9pRkwf7mRiL2-mx3unzrP4tRRO4gPOfXn7UT3RDQamPinFZ9BjTEqZpbrTpOsbsjgibuc_8rApgkkKscORCZ4EP3XRT0JDs_hLjfup6WmsnzwdTRd-rUwt6QdB7jQIz4ckGkQQAqzKXnQz8eN2jkMDrOI0-rXz2xK1cGbdQUiyL2HHvA0gq9vVxs3z7NFLQIJWh2kwxKaEEdiNwU-mfECpDlt0b5szuesrWrhVySA2WVu8TehKYNvyZQ9zQZGFeb-HzXxpYjJtwty0]--></g></svg>