<?xml version="1.0" encoding="UTF-8" standalone="no"?><svg xmlns="http://www.w3.org/2000/svg" xmlns:xlink="http://www.w3.org/1999/xlink" contentStyleType="text/css" height="612px" preserveAspectRatio="none" style="width:828px;height:612px;background:#FFFFFF;" version="1.1" viewBox="0 0 828 612" width="828px" zoomAndPan="magnify"><defs/><g><!--cluster User Use Case Diagram--><g id="cluster_User Use Case Diagram"><path d="M10.2,7.2 L208.2,7.2 A4.5,4.5 0 0 1 211.2,10.2 L219.6,33.1687 L816.6,33.1687 A3,3 0 0 1 819.6,36.1687 L819.6,600.6 A3,3 0 0 1 816.6,603.6 L10.2,603.6 A3,3 0 0 1 7.2,600.6 L7.2,10.2 A3,3 0 0 1 10.2,7.2 " fill="none" style="stroke:#000000;stroke-width:1.7999999999999998;"/><line style="stroke:#000000;stroke-width:1.7999999999999998;" x1="7.2" x2="219.6" y1="33.1687" y2="33.1687"/><text fill="#000000" font-family="Sarabun" font-size="16.8" font-weight="bold" lengthAdjust="spacing" textLength="196.8" x="12" y="24.8086">User Use Case Diagram</text></g><!--cluster System Boundary--><g id="cluster_System Boundary"><rect fill="none" height="441.6" rx="3" ry="3" style="stroke:#181818;stroke-width:1.2;" width="660" x="130.8" y="57.6"/><text fill="#000000" font-family="Sarabun" font-size="16.8" font-weight="bold" lengthAdjust="spacing" textLength="145.2" x="388.2" y="75.2086">System Boundary</text></g><!--entity actorEndUser--><g id="elem_actorEndUser"><ellipse cx="43.8" cy="247.8" fill="#F1F1F1" rx="9.6" ry="9.6" style="stroke:#181818;stroke-width:0.6;"/><path d="M43.8,257.4 L43.8,289.8 M28.2,267 L59.4,267 M43.8,289.8 L28.2,307.8 M43.8,289.8 L59.4,307.8 " fill="none" style="stroke:#181818;stroke-width:0.6;"/><text fill="#000000" font-family="Sarabun" font-size="16.8" lengthAdjust="spacing" textLength="34.8" x="26.4" y="324.8086">User</text></g><g id="elem_usecaseGroupData"><ellipse cx="690.6707" cy="446.6541" fill="#103D81" rx="73.8707" ry="17.6541" style="stroke:#181818;stroke-width:0.6;"/><text fill="#FFFFFF" font-family="Sarabun" font-size="16.8" lengthAdjust="spacing" textLength="88.8" x="642.6707" y="450.9584">Group Data</text></g><g id="elem_usecaseUserAccount"><ellipse cx="303.337" cy="459.7874" fill="#103D81" rx="88.537" ry="20.5874" style="stroke:#181818;stroke-width:0.6;"/><text fill="#FFFFFF" font-family="Sarabun" font-size="16.8" lengthAdjust="spacing" textLength="127.2" x="239.737" y="463.2116">Member Account</text></g><g id="elem_usecaseAuthentication"><ellipse cx="690.386" cy="361.0372" fill="#103D81" rx="80.786" ry="19.0372" style="stroke:#181818;stroke-width:0.6;"/><text fill="#FFFFFF" font-family="Sarabun" font-size="16.8" lengthAdjust="spacing" textLength="108" x="634.4075" y="364.9775">Authentication</text></g><g id="elem_usecaseRegister"><ellipse cx="303.3781" cy="378.0756" fill="#F1F1F1" rx="78.9781" ry="18.6756" style="stroke:#181818;stroke-width:0.6;"/><text fill="#000000" font-family="Sarabun" font-size="16.8" lengthAdjust="spacing" textLength="103.2" x="248.8028" y="382.2455">User Register</text></g><g id="elem_usecaseIndigoTone"><ellipse cx="303.3415" cy="283.1483" fill="#103D81" rx="153.3415" ry="33.5483" style="stroke:#181818;stroke-width:0.6;"/><text fill="#FFFFFF" font-family="Sarabun" font-size="16.8" lengthAdjust="spacing" textLength="270" x="168.3415" y="286.5725">Color Scheme of Natural Indigo Dye</text></g><g id="elem_usecaseProduct"><ellipse cx="303.8953" cy="190.9061" fill="#103D81" rx="55.4953" ry="16.9061" style="stroke:#181818;stroke-width:0.6;"/><text fill="#FFFFFF" font-family="Sarabun" font-size="16.8" lengthAdjust="spacing" textLength="58.8" x="271.8494" y="195.0088">Product</text></g><g id="elem_usecaseProductImage"><ellipse cx="690.8476" cy="190.7295" fill="#F1F1F1" rx="81.2476" ry="19.1295" style="stroke:#181818;stroke-width:0.6;"/><text fill="#000000" font-family="Sarabun" font-size="16.8" lengthAdjust="spacing" textLength="109.2" x="634.5109" y="194.6112">Product Image</text></g><g id="elem_usecaseCategory"><ellipse cx="303.4743" cy="115.3782" fill="#103D81" rx="63.4743" ry="16.9782" style="stroke:#181818;stroke-width:0.6;"/><text fill="#FFFFFF" font-family="Sarabun" font-size="16.8" lengthAdjust="spacing" textLength="69.6" x="265.0743" y="119.6825">Category</text></g><!--link usecaseUserAccount to usecaseGroupData--><g id="link_usecaseUserAccount_usecaseGroupData"><path d="M391.596,456.624 C457.584,454.356 547.596,451.272 611.34,449.076 " fill="none" id="usecaseUserAccount-to-usecaseGroupData" style="stroke:#181818;stroke-width:1.2;stroke-dasharray:7.0,7.0;"/><polygon fill="#181818" points="617.424,448.872,606.4659,444.4449,611.4275,449.0776,606.7948,454.0392,617.424,448.872" style="stroke:#181818;stroke-width:1.2;"/><text fill="#000000" font-family="Sarabun" font-size="16.8" lengthAdjust="spacing" textLength="73.2" x="496.8" y="447.2086">«include»</text></g><!--link actorEndUser to usecaseGroupData--><g id="link_actorEndUser_usecaseGroupData"><path d="M59.688,329.016 C81.84,398.052 121.2,520.8 121.2,520.8 C121.2,520.8 457.2,520.8 457.2,520.8 C457.2,520.8 578.46,481.944 645.72,460.392 " fill="none" id="actorEndUser-usecaseGroupData" style="stroke:#181818;stroke-width:1.2;"/><text fill="#000000" font-family="Sarabun" font-size="16.8" lengthAdjust="spacing" textLength="12" x="297.6" y="516.8086">R</text></g><!--link usecaseRegister to usecaseAuthentication--><g id="link_usecaseRegister_usecaseAuthentication"><path d="M369.636,367.68 C424.128,358.992 493.2,348 493.2,348 C493.2,348 573.6,348 573.6,348 C573.6,348 590.064,349.872 610.572,352.212 " fill="none" id="usecaseRegister-to-usecaseAuthentication" style="stroke:#181818;stroke-width:1.2;stroke-dasharray:7.0,7.0;"/><polygon fill="#181818" points="617.052,352.956,606.8708,346.9541,611.0912,352.2709,605.7745,356.4913,617.052,352.956" style="stroke:#181818;stroke-width:1.2;"/><text fill="#000000" font-family="Sarabun" font-size="16.8" lengthAdjust="spacing" textLength="78" x="494.4" y="344.0086">«extends»</text></g><!--reverse link usecaseUserAccount to usecaseAuthentication--><g id="link_usecaseUserAccount_usecaseAuthentication"><path d="M369.792,442.968 C444.204,423.936 564.792,393.084 634.62,375.216 " fill="none" id="usecaseUserAccount-backto-usecaseAuthentication" style="stroke:#181818;stroke-width:1.2;stroke-dasharray:7.0,7.0;"/><polygon fill="#181818" points="363.636,444.552,375.2847,446.5489,369.4518,443.0766,372.9241,437.2437,363.636,444.552" style="stroke:#181818;stroke-width:1.2;"/><text fill="#000000" font-family="Sarabun" font-size="16.8" lengthAdjust="spacing" textLength="73.2" x="496.8" y="389.6086">«include»</text></g><!--link actorEndUser to usecaseRegister--><g id="link_actorEndUser_usecaseRegister"><path d="M61.536,294.912 C83.94,310.8 121.2,337.2 121.2,337.2 C121.2,337.2 192.42,353.232 245.568,365.208 " fill="none" id="actorEndUser-usecaseRegister" style="stroke:#181818;stroke-width:1.2;"/></g><!--link actorEndUser to usecaseIndigoTone--><g id="link_actorEndUser_usecaseIndigoTone"><path d="M61.488,283.2 C80.52,283.2 113.832,283.2 149.724,283.2 " fill="none" id="actorEndUser-usecaseIndigoTone" style="stroke:#181818;stroke-width:1.2;"/><text fill="#000000" font-family="Sarabun" font-size="16.8" lengthAdjust="spacing" textLength="12" x="98.4" y="279.2086">R</text></g><!--link usecaseProduct to usecaseProductImage--><g id="link_usecaseProduct_usecaseProductImage"><path d="M359.088,190.8 C422.532,190.8 528.324,190.8 603.072,190.8 " fill="none" id="usecaseProduct-to-usecaseProductImage" style="stroke:#181818;stroke-width:1.2;stroke-dasharray:7.0,7.0;"/><polygon fill="#181818" points="609.3,190.8,598.5,186,603.3,190.8,598.5,195.6,609.3,190.8" style="stroke:#181818;stroke-width:1.2;"/><text fill="#000000" font-family="Sarabun" font-size="16.8" lengthAdjust="spacing" textLength="54" x="506.4" y="186.8086">include</text></g><!--link actorEndUser to usecaseProduct--><g id="link_actorEndUser_usecaseProduct"><path d="M61.536,271.224 C83.94,254.988 121.2,228 121.2,228 C121.2,228 203.472,211.104 257.148,200.088 " fill="none" id="actorEndUser-usecaseProduct" style="stroke:#181818;stroke-width:1.2;"/><text fill="#000000" font-family="Sarabun" font-size="16.8" lengthAdjust="spacing" textLength="12" x="98.4" y="232.4086">R</text></g><!--link actorEndUser to usecaseCategory--><g id="link_actorEndUser_usecaseCategory"><path d="M61.344,255.144 C83.736,216.708 121.2,152.4 121.2,152.4 C121.2,152.4 199.236,136.38 252.888,125.364 " fill="none" id="actorEndUser-usecaseCategory" style="stroke:#181818;stroke-width:1.2;"/><text fill="#000000" font-family="Sarabun" font-size="16.8" lengthAdjust="spacing" textLength="12" x="98.4" y="167.6086">R</text></g><!--SRC=[jLRBSjCm5DtxAovcaR9e-e054zeoQKkPpj309EsmP5Jxnj7KbZoIF2LqMC42-04Mi6VDBlaRVmgIxJYMupGJ9jKYiQzqptsS8rcjaLAnxEpin25XAed2jiUZdKJYjaVqZqz984ZaED8Z8SBUhlF8no5b26TlUvTN_JSV1jr-z_Yg1pES8MTAjWFEWn19J6M6vqdvSaWY6euF1qIGwuGvyeQoM3z7e0594gepxTWZ4SAzAmRqaqxZcUF4nBiX0O9x9L60_e4JdJ2SvWcxSEU07Y4E5IWEWWOZ1JuLw2dAcPDDpWE4kY8rZX5Y7exDIpRVQbh1XHhncliibxiSztFkRJlVKb-DOBy-bVTrlmR8T1-aHaMGQ2oA2-Xqwekumg9CCuvr4e7W2VDFUAZNFzxRVUe_toldJVVocVSZgh38DFiZdWcGTT858lFtLymtXZpXBDOrLuf7m8VM0kY0cqv-fvDfElsUJh-aan_cOV8pdVnDfz_IoPzq-ZMT_7BpM8O1mhGum1sCfS88ZatEH8mDPqvhbgwMe54WR9qpXO9ajC45YP-O1BUAsUozAFI5me-gSvlLrW3JzNs1KbhkfQqHmobRruBjOfHubQTYL89QwHsqsui1Et10cHScFXuTDON96Ma8KiQmAD0ULimEWDjthGe03jSSbdC-ic3l11_I43U3NVBpMaitXbEYY4LHPiwjJHojoP1JPyWKrFKyhK2bLT1k7pK5rcHLs5gaUIwZAjTB0TQXsrb5jnKbutoXinSONMkdiinATwto6_gxOVbq4pL2fgX7iaDuimAomUrzNfkwfz8IBcjq7mEgpoXXePN6TULNryqSlIgyUh96F3fFPBwiY6VPwdOILx0iVfjLk4nOZLLkH0NdpAS1dxLdmoh8lt03RuJw9g6_L3sY4a72MT3JCLfSvkPBpd25_bTlrLKDhOPwgFDP7yr-uga7wcs1RZMmjDtJlKK8E8_qVQa9A9-ekCx7GiZghh7SpL5OADtz_s_4CYBB-BK3TqCSwfsC0HVZXzeW1RpL_BcnyIAqoMqm3rLkWk8ggY-Z_m00]--></g></svg>